# Blender 5.1.1
# www.blender.org
mtllib Haunted_Interrior.mtl
o Cube
v 31.473705 -0.026198 -52.696438
v 30.959217 -0.026198 53.112549
v -30.959763 -0.026198 -53.000019
v -31.474251 -0.026198 52.808968
v 31.473705 23.406052 -52.696438
v 30.959217 23.406052 53.112549
v -30.959763 23.406052 -53.000019
v -31.474251 23.406052 52.808968
v -20.902935 14.138922 18.774977
v 31.301325 -0.026198 -17.245121
v 31.307970 -0.026198 -18.611853
v 31.124950 -0.026198 19.027958
v 31.132143 -0.026198 17.548697
v -31.308517 -0.026198 18.724380
v -31.301325 -0.026198 17.245119
v -31.132143 -0.026198 -17.548698
v -31.125498 -0.026198 -18.915430
v 31.301325 23.406052 -17.245121
v 31.307970 23.406052 -18.611853
v 31.124950 23.406052 19.027958
v 31.132143 23.406052 17.548697
v -31.301325 23.406052 17.245119
v -31.308517 23.406052 18.724380
v -31.125498 23.406052 -18.915430
v -31.132143 23.406052 -17.548698
v 10.490169 -0.026198 -17.346313
v 20.895746 -0.026198 -17.295717
v 10.559748 13.633101 -17.345976
v 20.885386 13.634494 -17.295767
v 20.902391 -0.026198 -18.662449
v 10.496815 -0.026198 -18.713045
v 20.902391 13.634497 -18.662449
v 10.496814 13.633105 -18.713045
v -20.902939 -0.026198 18.774977
v -10.497361 -0.026198 18.825573
v -10.490169 -0.026198 17.346312
v -20.895746 -0.026198 17.295715
v -10.497354 14.138922 18.825573
v -10.426170 14.138923 17.346622
v -20.845980 14.138923 17.295958
v 0.945569 -0.026198 52.966610
v -1.460605 -0.026198 52.954906
v 0.945562 23.406052 52.966610
v -1.460613 23.406052 52.954906
v -1.294871 -0.026198 18.870319
v 1.111303 -0.026198 18.882019
v 1.111312 23.406052 18.882019
v -1.294860 23.406052 18.870319
v -1.294864 14.138921 18.870319
v -1.357529 -0.026198 31.756451
v -1.397947 -0.026198 40.068775
v 1.008227 -0.026198 40.080479
v 1.048645 -0.026198 31.768150
v 1.008226 14.138919 40.080479
v 1.048647 14.138923 31.768150
v -1.357526 14.138918 31.756451
v -1.397948 14.138916 40.068775
v 30.959217 14.138908 53.112549
v 31.124950 14.138908 19.027958
v 31.014462 -0.026198 41.751019
v 31.069706 -0.026198 30.389488
v 31.069706 14.138908 30.389488
v 31.014462 14.138908 41.751019
v 37.457008 -0.026198 41.782345
v 37.512253 -0.026198 30.420815
v 37.512253 14.138908 30.420815
v 37.457008 14.138908 41.782345
v 37.457008 -2.026198 41.782345
v 37.512253 -2.026198 30.420815
v 39.456985 -2.036518 41.792068
v 39.512230 -2.036518 30.430540
v 39.512230 12.128589 30.430540
v 39.456985 12.128589 41.792068
v 39.456985 -4.046837 41.792068
v 39.512230 -4.046837 30.430540
v 41.456963 -4.057156 41.801792
v 41.512207 -4.057156 30.440264
v 41.512207 10.107951 30.440264
v 41.456963 10.107951 41.801792
v 41.456963 -6.067475 41.801792
v 41.512207 -6.067475 30.440264
v 43.456940 -6.077795 41.811516
v 43.512184 -6.077795 30.449989
v 43.512184 8.087313 30.449989
v 43.456940 8.087313 41.811516
v 43.456940 -8.088113 41.811516
v 43.512184 -8.088113 30.449989
v 45.456917 -8.098433 41.821243
v 45.512161 -8.098433 30.459713
v 45.512161 6.066674 30.459713
v 45.456917 6.066674 41.821243
v 45.456917 -10.108752 41.821243
v 45.512161 -10.108752 30.459713
v 47.456894 -10.119071 41.830967
v 47.512138 -10.119071 30.469439
v 47.512138 4.046036 30.469439
v 47.456894 4.046036 41.830967
v 47.456894 -12.129390 41.830967
v 47.512138 -12.129390 30.469439
v 49.456867 -12.139709 41.840691
v 49.512112 -12.139709 30.479164
v 49.512112 2.025397 30.479164
v 49.456867 2.025397 41.840691
v 49.456867 -14.150028 41.840691
v 49.512112 -14.150028 30.479164
v 51.456844 -14.160347 41.850418
v 51.512089 -14.160347 30.488888
v 51.512089 0.004759 30.488888
v 51.456844 0.004759 41.850418
v 51.456844 -16.170666 41.850418
v 51.512089 -16.170666 30.488888
v 53.456821 -16.180984 41.860142
v 53.512066 -16.180984 30.498613
v 53.512066 -2.015879 30.498613
v 53.456821 -2.015879 41.860142
v 53.456821 -18.191305 41.860142
v 53.512066 -18.191305 30.498613
v 55.456799 -18.201624 41.869865
v 55.512043 -18.201624 30.508337
v 55.512043 -4.036518 30.508337
v 55.456799 -4.036518 41.869865
v 55.456799 -20.211943 41.869865
v 55.512043 -20.211943 30.508337
v 57.456776 -20.222261 41.879589
v 57.512020 -20.222261 30.518063
v 57.512020 -6.057156 30.518063
v 57.456776 -6.057156 41.879589
v 57.456776 -22.232580 41.879589
v 57.512020 -22.232580 30.518063
v 59.456749 -22.242901 41.889317
v 59.511993 -22.242901 30.527786
v 59.511993 -8.077794 30.527786
v 59.456749 -8.077794 41.889317
v 59.456749 -24.253222 41.889317
v 59.511993 -24.253222 30.527786
v 61.456726 -24.263542 41.899040
v 61.511971 -24.263542 30.537512
v 61.511971 -10.098433 30.537512
v 61.456726 -10.098433 41.899040
v 61.456726 -26.273859 41.899040
v 61.511971 -26.273859 30.537512
v 63.456703 -26.284178 41.908764
v 63.511948 -26.284178 30.547237
v 63.511948 -12.119071 30.547237
v 63.456703 -12.119071 41.908764
v 63.456703 -28.294498 41.908764
v 63.511948 -28.294498 30.547237
v 65.456680 -28.304817 41.918491
v 65.511925 -28.304817 30.556961
v 65.511925 -14.139709 30.556961
v 65.456680 -14.139709 41.918491
v 65.456680 -30.315136 41.918491
v 65.511925 -30.315136 30.556961
v 67.456657 -30.325455 41.928215
v 67.511902 -30.325455 30.566687
v 67.511902 -16.160347 30.566687
v 67.456657 -16.160347 41.928215
v 67.456657 -32.335773 41.928215
v 67.511902 -32.335773 30.566687
v 69.456635 -32.346096 41.937939
v 69.511879 -32.346096 30.576410
v 69.511879 -18.180986 30.576410
v 69.456635 -18.180986 41.937939
v 69.456635 -34.356411 41.937939
v 69.511879 -34.356411 30.576410
v 71.456612 -34.366730 41.947662
v 71.511856 -34.366730 30.586136
v 71.511856 -20.201624 30.586136
v 71.456612 -20.201624 41.947662
v 71.456612 -36.377052 41.947662
v 71.511856 -36.377052 30.586136
v 73.456589 -36.377052 41.957390
v 73.511833 -36.377052 30.595860
v 73.511833 -22.211943 30.595860
v 73.456589 -22.211943 41.957390
v 73.339714 -36.377052 65.993599
v 73.628708 -36.377052 6.559652
v 73.628708 -22.211943 6.559652
v 73.339714 -22.211943 65.993599
v 117.886154 -36.377052 66.210205
v 118.175148 -36.377052 6.776257
v 31.132143 13.951161 17.548697
v -31.301325 14.138923 17.245119
v -31.308517 14.138930 18.724380
v -1.460609 14.138910 52.954906
v -31.418179 -0.026198 41.277203
v 31.301325 13.635897 -17.245121
v -31.132143 13.845479 -17.548698
v -31.125498 13.627540 -18.915430
v 31.307970 13.635889 -18.611853
v 73.628708 -14.559386 6.559652
v 73.339714 -14.559386 65.993599
v 118.175148 -14.559386 6.776257
v 117.886154 -14.559386 66.210205
v 16.446228 -0.026198 53.041981
v 7.679637 -0.026198 52.999355
v 16.445559 14.767705 53.041977
v 7.680097 14.764264 52.999359
v 16.446228 -0.026198 57.662243
v 7.679637 -0.026198 57.619617
v 16.445559 14.767705 57.662239
v 7.680097 14.764264 57.619621
v -31.360504 -0.026198 29.416077
v -31.418184 14.788814 41.278278
v -31.359972 14.704046 29.306675
v -34.132374 -0.026198 41.264004
v -34.074699 -0.026198 29.402880
v -34.132378 14.788814 41.265079
v -34.074165 14.704046 29.293478
vn -1.0000 -0.0000 -0.0049
vn 1.0000 -0.0000 0.0049
vn -0.0049 -0.0000 1.0000
vn 0.0049 -0.0000 -1.0000
vn 0.0001 -1.0000 -0.0000
vn -0.0000 1.0000 -0.0000
vn -0.0000 -1.0000 -0.0000
vn -0.7089 -0.7053 -0.0034
vn 0.0052 1.0000 -0.0000
vn -0.7107 -0.7035 -0.0035
vn -0.0049 0.0074 1.0000
vn 1.0000 -0.0000 -0.0000
vn -1.0000 -0.0000 -0.0000
vn 0.0004 -1.0000 -0.0000
vn 0.0049 0.0001 -1.0000
vn -0.0000 -1.0000 0.0071
vn -0.0000 -0.0000 -1.0000
vn 0.9989 -0.0051 -0.0460
vn -0.9999 -0.0008 -0.0124
vn -0.9988 0.0045 -0.0481
vn 0.9993 -0.0035 0.0385
vn -0.0416 0.9991 -0.0000
vn -0.9989 0.0468 -0.0000
vn -0.0038 -0.3233 0.9463
vt 0.282999 0.544508
vt 0.168495 0.509951
vt 0.168495 0.545616
vt 0.802384 0.080464
vt 0.761418 0.080464
vt 0.732134 0.190405
vt 0.634770 0.515365
vt 0.599063 0.477673
vt 0.599063 0.515365
vt 0.186080 0.030707
vt 0.160534 0.031934
vt 0.243558 0.000799
vt 0.168227 0.260964
vt 0.282909 0.229960
vt 0.282909 0.259979
vt 0.534713 0.189403
vt 0.464406 0.080846
vt 0.493714 0.080846
vt 0.534440 0.080783
vt 0.732229 0.000472
vt 0.732229 0.080783
vt 0.600553 0.237025
vt 0.732179 0.191025
vt 0.534740 0.237025
vt -0.001004 0.441855
vt 0.098151 0.305799
vt -0.001004 0.305799
vt 0.149707 0.928524
vt 0.000013 0.946645
vt 0.000013 0.928524
vt 0.160419 0.964921
vt 0.000003 0.982606
vt 0.000003 0.964921
vt 0.000112 0.982595
vt 0.190284 1.000147
vt 0.000112 1.000147
vt 0.000040 0.946742
vt 0.149277 0.964979
vt 0.000040 0.964979
vt 0.302043 0.924873
vt 0.190043 0.943873
vt 0.190043 0.924873
vt 0.282790 0.628852
vt 0.282790 0.662078
vt 0.168575 0.763834
vt 0.378251 0.962964
vt 0.190251 0.980964
vt 0.190251 0.962964
vt 0.302692 0.962895
vt 0.190192 0.943895
vt 0.302692 0.943895
vt 0.378263 1.000051
vt 0.190263 0.981051
vt 0.378263 0.981051
vt 0.802194 0.190219
vt 0.934508 0.080296
vt 0.999647 0.080296
vt 0.160534 0.168924
vt 0.191668 0.193832
vt 0.212424 0.193832
vt 0.436279 0.956957
vt 0.378279 0.938957
vt 0.378279 0.956957
vt 0.620884 0.370551
vt 0.644828 0.413629
vt 0.644960 0.389268
vt 0.403381 0.081749
vt 0.432440 0.168924
vt 0.347339 0.114958
vt 0.243558 0.168924
vt 0.285071 0.081748
vt 0.347339 0.081748
vt 0.728007 0.370551
vt 0.684175 0.413631
vt 0.761364 0.454208
vt 0.432428 0.402291
vt 0.539550 0.370551
vt 0.432428 0.453869
vt 0.098265 0.168924
vt 0.000711 0.141941
vt 0.000711 0.168924
vt 0.318348 0.374000
vt 0.371987 0.510254
vt 0.371987 0.374000
vt 0.436279 0.920957
vt 0.436279 0.938957
vt 0.494265 1.000048
vt 0.378265 0.978048
vt 0.378265 1.000048
vt 0.378265 0.957048
vt 0.494265 0.978048
vt 0.619473 0.541206
vt 0.577286 0.551822
vt 0.648100 0.541206
vt 0.563355 0.515365
vt 0.527648 0.477673
vt 0.527648 0.515365
vt 0.182612 0.849217
vt 0.013950 0.841988
vt 0.014553 0.835965
vt 0.615712 0.862469
vt 0.448254 0.881744
vt 0.447652 0.875721
vt 0.705267 0.999787
vt 0.800845 0.943565
vt 0.800845 0.999787
vt 1.000103 0.357056
vt 0.801627 0.308255
vt 0.801627 0.357056
vt 0.999755 0.999565
vt 0.802725 0.963048
vt 0.802529 0.998473
vt 0.423558 0.875721
vt 0.038647 0.835965
vt 0.206104 0.851626
vt 1.000168 0.274325
vt 0.801650 0.308552
vt 0.801650 0.274325
vt 1.000493 0.963196
vt 0.801943 0.928420
vt 0.802097 0.964055
vt 0.399463 0.875721
vt 0.591617 0.862469
vt 0.062742 0.835965
vt 0.230199 0.851626
vt 0.206707 0.849217
vt 1.000168 0.308552
vt 1.000338 0.927561
vt 0.801789 0.892785
vt 0.375368 0.875721
vt 0.567522 0.862469
vt 0.086836 0.835965
vt 0.254293 0.851626
vt 0.230801 0.849217
vt 1.000030 0.856290
vt 0.801634 0.857149
vt 0.351274 0.875721
vt 0.543428 0.862469
vt 0.110931 0.835965
vt 0.278388 0.851626
vt 0.254896 0.849217
vt 0.801480 0.821514
vt 0.327179 0.875721
vt 0.519333 0.862469
vt 0.135025 0.835965
vt 0.302483 0.851626
vt 0.278990 0.849217
vt 0.999875 0.820655
vt 0.801326 0.785879
vt 0.303085 0.875721
vt 0.495239 0.862469
vt 0.159120 0.835965
vt 0.326577 0.851626
vt 0.303085 0.849217
vt 0.999567 0.749385
vt 0.801171 0.750244
vt 0.278990 0.875721
vt 0.471144 0.862469
vt 0.183215 0.835965
vt 0.350672 0.851626
vt 0.327179 0.849217
vt 0.801017 0.714609
vt 0.254896 0.875721
vt 0.447050 0.862469
vt 0.207309 0.835965
vt 0.374766 0.851626
vt 0.351274 0.849217
vt 0.999412 0.713750
vt 0.800863 0.678973
vt 0.230801 0.875721
vt 0.422955 0.862469
vt 0.231404 0.835965
vt 0.398861 0.851626
vt 0.375368 0.849217
vt 0.999258 0.678114
vt 0.800709 0.643338
vt 0.206707 0.875721
vt 0.398861 0.862469
vt 0.255498 0.835965
vt 0.422955 0.851626
vt 0.399463 0.849217
vt 0.998949 0.606844
vt 0.800554 0.607703
vt 0.182612 0.875721
vt 0.374766 0.862469
vt 0.279593 0.835965
vt 0.447050 0.851626
vt 0.423558 0.849217
vt 0.800400 0.572067
vt 0.158518 0.875721
vt 0.350672 0.862469
vt 0.303687 0.835965
vt 0.471747 0.851626
vt 0.447652 0.849217
vt 0.998795 0.571208
vt 0.800246 0.536432
vt 0.134423 0.875721
vt 0.326577 0.862469
vt 0.327782 0.835965
vt 0.495841 0.851626
vt 0.471747 0.849217
vt 0.998641 0.535573
vt 0.800092 0.500797
vt 0.110329 0.875721
vt 0.302483 0.862469
vt 0.351876 0.835965
vt 0.519936 0.851626
vt 0.495841 0.849217
vt 0.998487 0.499938
vt 0.799933 0.464271
vt 0.086234 0.875721
vt 0.278388 0.862469
vt 0.375971 0.835965
vt 0.544030 0.851626
vt 0.519936 0.849217
vt 0.998329 0.463412
vt 0.799779 0.428635
vt 0.062140 0.875721
vt 0.254293 0.862469
vt 0.400065 0.835965
vt 0.568125 0.851626
vt 0.544030 0.849217
vt 0.998174 0.427776
vt 0.799625 0.393000
vt 0.038045 0.875721
vt 0.230199 0.862469
vt 0.424160 0.835965
vt 0.592219 0.851626
vt 0.568125 0.849217
vt 0.998620 0.392596
vt 0.799546 0.356839
vt 0.799546 0.392596
vt 0.013950 0.875721
vt 0.206104 0.862469
vt 0.448254 0.835965
vt 0.616314 0.851626
vt 0.592219 0.849217
vt 0.800690 0.890215
vt 0.705419 0.943143
vt 0.705419 0.890215
vt 0.648100 0.521522
vt 0.619473 0.521522
vt 0.605913 0.521522
vt 0.577286 0.541206
vt 0.605913 0.541206
vt 0.800260 0.646970
vt 0.649135 0.613749
vt 0.649135 0.552147
vt 0.648346 0.809524
vt 0.577623 0.647482
vt 0.577623 0.809524
vt 0.508490 0.591475
vt 0.434768 0.553056
vt 0.508490 0.648584
vt 0.098265 0.112883
vt 0.000711 0.081748
vt 0.000711 0.112883
vt 0.160534 0.193832
vt 0.191668 0.229117
vt 0.098265 0.141941
vt 0.098265 0.081748
vt 0.318348 0.305873
vt 0.371987 0.340281
vt 0.371987 0.305873
vt 0.243558 0.193832
vt 0.212424 0.229117
vt 0.243558 0.229117
vt 0.563355 0.477673
vt 0.634867 0.454039
vt 0.318348 0.340281
vt 0.282974 0.305873
vt 0.282974 0.510254
vt 0.186346 0.081748
vt 0.098151 0.509883
vt -0.001004 0.474839
vt -0.001004 0.509883
vt 0.098151 0.474839
vt 0.168400 0.509883
vt 0.168400 0.305799
vt 0.732179 0.237025
vt 0.600553 0.301376
vt 0.732179 0.301376
vt 0.534740 0.301376
vt 0.568644 0.237025
vt 0.577397 0.586129
vt 0.508699 0.552535
vt 0.577397 0.648423
vt 0.732106 0.080864
vt 0.534724 0.189625
vt 0.732106 0.189625
vt 0.282942 0.510153
vt 0.168293 0.305869
vt 0.168293 0.510153
vt 0.160534 0.081748
vt 0.243558 0.081748
vt 0.620884 0.454039
vt 0.649150 0.552352
vt 0.576409 0.647633
vt 0.649150 0.647633
vt 0.684282 0.389266
vt 0.215471 0.030528
vt 0.215469 0.081748
vt 0.432440 0.109094
vt 0.432440 0.139430
vt 0.634770 0.370551
vt 0.567323 0.344762
vt 0.525664 0.370551
vt 0.168495 0.595510
vt 0.282999 0.595510
vt 0.282999 0.509951
vt 0.802384 0.190405
vt 0.732134 0.080464
vt 0.634770 0.477673
vt 0.160534 0.000799
vt 0.282909 0.305911
vt 0.168227 0.305911
vt 0.168227 0.229960
vt 0.534713 0.080846
vt 0.464406 0.189403
vt 0.534440 0.000472
vt 0.534740 0.191025
vt 0.098151 0.441855
vt 0.149707 0.946645
vt 0.160419 0.982606
vt 0.190284 0.982595
vt 0.149277 0.946742
vt 0.302043 0.943873
vt 0.168575 0.730607
vt 0.168575 0.595626
vt 0.282790 0.595626
vt 0.282790 0.797060
vt 0.168575 0.797060
vt 0.378251 0.980964
vt 0.190192 0.962895
vt 0.190263 1.000051
vt 0.999647 0.190219
vt 0.802194 0.080296
vt 0.967077 0.080296
vt 0.684364 0.370551
vt 0.620884 0.453967
vt 0.646673 0.453967
vt 0.683998 0.453967
vt 0.374322 0.081748
vt 0.432440 0.081749
vt 0.347339 0.168924
vt 0.347339 0.135715
vt 0.799056 0.454208
vt 0.799422 0.370551
vt 0.755779 0.370551
vt 0.721689 0.454208
vt 0.432428 0.370551
vt 0.539550 0.453869
vt 0.318348 0.510254
vt 0.378279 0.920957
vt 0.494265 0.957048
vt 0.648100 0.551822
vt 0.182010 0.855843
vt 0.616314 0.868492
vt 0.705267 0.943565
vt 1.000103 0.308255
vt 0.999951 0.964139
vt 0.424160 0.877528
vt 0.400065 0.877528
vt 1.000184 0.891926
vt 0.375971 0.877528
vt 0.351876 0.877528
vt 0.327782 0.877528
vt 0.999721 0.785020
vt 0.303687 0.877528
vt 0.279593 0.877528
vt 0.255498 0.877528
vt 0.231404 0.877528
vt 0.999104 0.642479
vt 0.207309 0.877528
vt 0.183215 0.877528
vt 0.158518 0.877528
vt 0.134423 0.877528
vt 0.110329 0.877528
vt 0.086234 0.877528
vt 0.062140 0.877528
vt 0.998020 0.392141
vt 0.038045 0.877528
vt 0.998620 0.356839
vt 0.013950 0.877528
vt 0.182010 0.862469
vt 0.616314 0.849217
vt 0.800690 0.943143
vt 0.577286 0.521522
vt 0.800260 0.552147
vt 0.649135 0.646970
vt 0.648346 0.647482
vt 0.508490 0.553056
vt 0.434768 0.648584
vt 0.508490 0.610165
vt 0.160534 0.229117
vt 0.527745 0.454039
vt 0.568644 0.301376
vt 0.577397 0.552535
vt 0.508699 0.648423
vt 0.534724 0.080864
vt 0.282942 0.305869
vt 0.539550 0.454039
vt 0.576409 0.552352
vt 0.634770 0.307071
vt 0.593112 0.307071
vt 0.593112 0.344762
vt 0.567323 0.307071
vt 0.525664 0.307071
s 0
usemtl Material
f 182/1/1 18/2/1 187/3/1
f 11/4/1 190/5/1 5/6/1
f 2/7/1 63/8/1 60/9/1
f 205/10/2 184/11/2 8/12/2
f 188/13/2 22/14/2 183/15/2
f 3/16/2 24/17/2 189/18/2
f 1/19/3 7/20/3 3/21/3
f 33/22/4 24/23/4 190/24/4
f 26/25/3 188/26/3 16/27/3
f 32/28/5 28/29/5 33/30/5
f 33/31/2 26/32/2 31/33/2
f 27/34/1 32/35/1 30/36/1
f 26/37/6 30/38/6 31/39/6
f 35/40/6 37/41/6 34/42/6
f 37/43/6 36/44/6 27/45/6
f 38/46/1 36/47/1 35/48/1
f 40/49/7 38/50/7 9/51/7
f 37/52/2 9/53/2 34/54/2
f 3/55/6 31/56/6 11/57/6
f 48/58/1 56/59/1 57/60/1
f 53/61/6 51/62/6 52/63/6
f 43/64/4 197/65/4 198/66/4
f 34/67/6 4/68/6 50/69/6
f 8/70/4 185/71/4 42/72/4
f 52/73/6 195/74/6 61/75/6
f 59/76/3 47/77/3 12/78/3
f 49/79/3 35/80/3 45/81/3
f 39/82/4 13/83/4 36/84/4
f 57/85/7 55/62/7 54/86/7
f 52/87/4 57/88/4 54/89/4
f 53/90/3 56/91/3 50/88/3
f 175/92/2 191/93/2 179/94/2
f 61/95/1 59/96/1 12/97/1
f 64/98/4 63/99/4 67/100/4
f 66/101/3 61/102/3 65/103/3
f 67/104/7 62/105/7 66/106/7
f 64/107/2 69/108/2 65/109/2
f 66/110/8 73/111/8 67/112/8
f 71/113/3 66/101/3 65/103/3
f 73/114/4 68/115/4 64/98/4
f 68/116/9 71/117/9 69/118/9
f 70/107/2 75/108/2 71/109/2
f 72/119/10 79/120/10 73/121/10
f 77/122/3 72/123/3 71/113/3
f 79/124/4 74/125/4 70/126/4
f 75/118/9 76/127/9 77/117/9
f 76/107/2 81/108/2 77/109/2
f 78/128/10 85/129/10 79/120/10
f 83/130/3 78/131/3 77/122/3
f 85/132/4 80/133/4 76/134/4
f 81/118/9 82/127/9 83/117/9
f 82/107/2 87/108/2 83/109/2
f 85/129/10 90/135/10 91/136/10
f 89/137/3 84/138/3 83/130/3
f 91/139/4 86/140/4 82/141/4
f 86/116/9 89/117/9 87/118/9
f 88/107/2 93/108/2 89/109/2
f 90/135/10 97/142/10 91/136/10
f 95/143/3 90/144/3 89/137/3
f 97/145/4 92/146/4 88/147/4
f 92/116/9 95/117/9 93/118/9
f 94/107/2 99/108/2 95/109/2
f 96/148/10 103/149/10 97/142/10
f 101/150/3 96/151/3 95/143/3
f 103/152/4 98/153/4 94/154/4
f 99/118/9 100/127/9 101/117/9
f 100/107/2 105/108/2 101/109/2
f 103/149/10 108/155/10 109/156/10
f 107/157/3 102/158/3 101/150/3
f 109/159/4 104/160/4 100/161/4
f 104/116/9 107/117/9 105/118/9
f 106/107/2 111/108/2 107/109/2
f 108/155/10 115/162/10 109/156/10
f 113/163/3 108/164/3 107/157/3
f 115/165/4 110/166/4 106/167/4
f 110/116/9 113/117/9 111/118/9
f 112/107/2 117/108/2 113/109/2
f 114/168/10 121/169/10 115/162/10
f 119/170/3 114/171/3 113/163/3
f 121/172/4 116/173/4 112/174/4
f 116/116/9 119/117/9 117/118/9
f 118/107/2 123/108/2 119/109/2
f 120/175/10 127/176/10 121/169/10
f 125/177/3 120/178/3 119/170/3
f 127/179/4 122/180/4 118/181/4
f 123/118/9 124/127/9 125/117/9
f 124/107/2 129/108/2 125/109/2
f 127/176/10 132/182/10 133/183/10
f 131/184/3 126/185/3 125/177/3
f 133/186/4 128/187/4 124/188/4
f 128/116/9 131/117/9 129/118/9
f 130/107/2 135/108/2 131/109/2
f 132/182/10 139/189/10 133/183/10
f 137/190/3 132/191/3 131/184/3
f 139/192/4 134/193/4 130/194/4
f 134/116/9 137/117/9 135/118/9
f 136/107/2 141/108/2 137/109/2
f 138/195/10 145/196/10 139/189/10
f 143/197/3 138/198/3 137/190/3
f 145/199/4 140/200/4 136/201/4
f 140/116/9 143/117/9 141/118/9
f 142/107/2 147/108/2 143/109/2
f 144/202/10 151/203/10 145/196/10
f 149/204/3 144/205/3 143/197/3
f 151/206/4 146/207/4 142/208/4
f 147/118/9 148/127/9 149/117/9
f 148/107/2 153/108/2 149/109/2
f 150/209/10 157/210/10 151/203/10
f 155/211/3 150/212/3 149/204/3
f 157/213/4 152/214/4 148/215/4
f 152/116/9 155/117/9 153/118/9
f 154/107/2 159/108/2 155/109/2
f 156/216/10 163/217/10 157/210/10
f 161/218/3 156/219/3 155/211/3
f 163/220/4 158/221/4 154/222/4
f 159/118/9 160/127/9 161/117/9
f 160/107/2 165/108/2 161/109/2
f 162/223/10 169/224/10 163/217/10
f 167/225/3 162/226/3 161/218/3
f 169/227/4 164/228/4 160/229/4
f 164/116/9 167/117/9 165/118/9
f 166/107/2 171/108/2 167/109/2
f 168/230/8 175/231/8 169/232/8
f 173/233/3 168/234/3 167/225/3
f 175/235/4 170/236/4 166/237/4
f 170/117/6 173/116/6 171/127/6
f 65/238/6 60/239/6 64/240/6
f 175/92/2 176/241/2 172/242/2
f 173/243/2 178/244/2 174/245/2
f 193/246/3 178/247/3 177/248/3
f 194/249/1 181/250/1 180/251/1
f 172/252/6 180/253/6 177/254/6
f 9/255/3 14/256/3 34/257/3
f 49/258/1 50/259/1 56/59/1
f 38/260/3 48/58/3 184/261/3
f 183/262/4 37/263/4 15/264/4
f 185/265/1 51/266/1 42/267/1
f 62/268/1 6/269/1 59/96/1
f 40/270/4 22/271/4 21/272/4
f 205/10/11 207/273/11 203/273/11
f 187/274/3 27/275/3 10/276/3
f 29/277/3 18/278/3 25/279/3
f 189/280/4 31/281/4 17/282/4
f 11/283/4 32/284/4 190/24/4
f 179/285/4 194/286/4 176/287/4
f 19/288/7 7/289/7 5/290/7
f 21/291/7 25/292/7 18/293/7
f 23/70/7 44/294/7 8/295/7
f 47/296/7 6/77/7 43/64/7
f 191/297/7 194/298/7 192/299/7
f 202/66/4 199/74/4 200/300/4
f 198/66/12 200/300/12 196/300/12
f 195/74/13 201/65/13 197/65/13
f 197/65/14 202/66/14 198/66/14
f 195/74/6 200/300/6 199/74/6
f 207/273/2 208/301/2 206/302/2
f 186/302/15 208/301/15 204/301/15
f 203/303/6 206/304/6 186/304/6
f 205/10/16 208/301/16 209/10/16
f 43/305/2 55/306/2 47/307/2
f 187/3/1 10/308/1 13/309/1
f 182/1/1 21/310/1 18/2/1
f 187/3/1 13/309/1 182/1/1
f 5/6/1 1/311/1 11/4/1
f 190/5/1 19/312/1 5/6/1
f 2/7/1 58/313/1 63/8/1
f 8/12/2 4/295/2 186/302/2
f 8/12/2 186/302/2 204/301/2
f 184/11/2 23/314/2 8/12/2
f 203/273/2 14/294/2 184/11/2
f 8/12/2 204/301/2 205/10/2
f 205/10/2 203/273/2 184/11/2
f 183/15/2 15/315/2 16/316/2
f 188/13/2 25/317/2 22/14/2
f 183/15/2 16/316/2 188/13/2
f 189/18/2 17/318/2 3/16/2
f 3/16/2 7/319/2 24/17/2
f 1/19/3 5/320/3 7/20/3
f 190/24/17 32/284/17 33/22/17
f 33/22/4 189/280/4 24/23/4
f 24/23/4 19/321/4 190/24/4
f 26/25/3 28/322/3 188/26/3
f 32/28/5 29/323/5 28/29/5
f 33/31/18 28/324/18 26/32/18
f 27/34/19 29/325/19 32/35/19
f 26/37/6 27/326/6 30/38/6
f 35/40/6 36/327/6 37/41/6
f 26/328/6 16/329/6 15/330/6
f 26/328/6 15/330/6 37/43/6
f 13/331/6 10/332/6 27/45/6
f 27/45/6 26/328/6 37/43/6
f 36/44/6 13/331/6 27/45/6
f 38/46/20 39/333/20 36/47/20
f 40/49/7 39/334/7 38/50/7
f 37/52/21 40/335/21 9/53/21
f 11/57/6 1/336/6 3/55/6
f 3/55/6 17/337/6 31/56/6
f 31/56/7 30/338/7 11/57/7
f 185/265/1 44/70/1 48/58/1
f 48/58/1 49/258/1 56/59/1
f 57/60/1 185/265/1 48/58/1
f 53/61/6 50/86/6 51/62/6
f 196/300/4 41/339/4 43/64/4
f 43/64/4 6/340/4 58/341/4
f 58/341/4 2/342/4 195/74/4
f 58/341/4 195/74/4 197/65/4
f 198/66/4 196/300/4 43/64/4
f 43/64/4 58/341/4 197/65/4
f 45/72/6 35/343/6 34/67/6
f 34/67/6 14/344/6 203/303/6
f 203/303/6 186/304/6 4/68/6
f 4/68/6 42/345/6 51/346/6
f 50/69/6 45/72/6 34/67/6
f 4/68/6 51/346/6 50/69/6
f 34/67/6 203/303/6 4/68/6
f 42/72/4 4/345/4 8/70/4
f 8/70/4 44/295/4 185/71/4
f 61/75/6 12/347/6 46/348/6
f 46/348/22 53/349/22 52/73/22
f 52/73/6 41/339/6 196/300/6
f 195/74/6 2/342/6 60/350/6
f 52/73/6 196/300/6 195/74/6
f 61/75/6 46/348/6 52/73/6
f 195/74/6 60/350/6 61/75/6
f 59/76/3 20/351/3 47/77/3
f 47/77/3 46/352/3 12/78/3
f 49/79/3 38/260/3 35/80/3
f 39/82/4 182/353/4 13/83/4
f 57/85/7 56/354/7 55/62/7
f 52/87/4 51/91/4 57/88/4
f 53/90/3 55/355/3 56/91/3
f 174/245/2 178/244/2 191/93/2
f 191/93/2 192/356/2 179/94/2
f 175/92/2 174/245/2 191/93/2
f 61/95/1 62/268/1 59/96/1
f 64/98/4 60/357/4 63/99/4
f 66/101/3 62/358/3 61/102/3
f 67/104/7 63/359/7 62/105/7
f 64/107/2 68/360/2 69/108/2
f 66/110/8 72/361/8 73/111/8
f 65/103/3 69/362/3 71/113/3
f 71/113/3 72/123/3 66/101/3
f 64/98/4 67/100/4 73/114/4
f 73/114/4 70/126/4 68/115/4
f 68/116/9 70/127/9 71/117/9
f 70/107/2 74/360/2 75/108/2
f 72/119/10 78/128/10 79/120/10
f 71/113/3 75/363/3 77/122/3
f 77/122/3 78/131/3 72/123/3
f 70/126/4 73/114/4 79/124/4
f 79/124/4 76/134/4 74/125/4
f 75/118/9 74/116/9 76/127/9
f 76/107/2 80/360/2 81/108/2
f 78/128/10 84/364/10 85/129/10
f 77/122/3 81/365/3 83/130/3
f 83/130/3 84/138/3 78/131/3
f 76/134/4 79/124/4 85/132/4
f 85/132/4 82/141/4 80/133/4
f 81/118/9 80/116/9 82/127/9
f 82/107/2 86/360/2 87/108/2
f 85/129/10 84/364/10 90/135/10
f 83/130/3 87/366/3 89/137/3
f 89/137/3 90/144/3 84/138/3
f 82/141/4 85/132/4 91/139/4
f 91/139/4 88/147/4 86/140/4
f 86/116/9 88/127/9 89/117/9
f 88/107/2 92/360/2 93/108/2
f 90/135/10 96/148/10 97/142/10
f 89/137/3 93/367/3 95/143/3
f 95/143/3 96/151/3 90/144/3
f 88/147/4 91/139/4 97/145/4
f 97/145/4 94/154/4 92/146/4
f 92/116/9 94/127/9 95/117/9
f 94/107/2 98/360/2 99/108/2
f 96/148/10 102/368/10 103/149/10
f 95/143/3 99/369/3 101/150/3
f 101/150/3 102/158/3 96/151/3
f 94/154/4 97/145/4 103/152/4
f 103/152/4 100/161/4 98/153/4
f 99/118/9 98/116/9 100/127/9
f 100/107/2 104/360/2 105/108/2
f 103/149/10 102/368/10 108/155/10
f 101/150/3 105/370/3 107/157/3
f 107/157/3 108/164/3 102/158/3
f 100/161/4 103/152/4 109/159/4
f 109/159/4 106/167/4 104/160/4
f 104/116/9 106/127/9 107/117/9
f 106/107/2 110/360/2 111/108/2
f 108/155/10 114/168/10 115/162/10
f 107/157/3 111/371/3 113/163/3
f 113/163/3 114/171/3 108/164/3
f 106/167/4 109/159/4 115/165/4
f 115/165/4 112/174/4 110/166/4
f 110/116/9 112/127/9 113/117/9
f 112/107/2 116/360/2 117/108/2
f 114/168/10 120/175/10 121/169/10
f 113/163/3 117/372/3 119/170/3
f 119/170/3 120/178/3 114/171/3
f 112/174/4 115/165/4 121/172/4
f 121/172/4 118/181/4 116/173/4
f 116/116/9 118/127/9 119/117/9
f 118/107/2 122/360/2 123/108/2
f 120/175/10 126/373/10 127/176/10
f 119/170/3 123/374/3 125/177/3
f 125/177/3 126/185/3 120/178/3
f 118/181/4 121/172/4 127/179/4
f 127/179/4 124/188/4 122/180/4
f 123/118/9 122/116/9 124/127/9
f 124/107/2 128/360/2 129/108/2
f 127/176/10 126/373/10 132/182/10
f 125/177/3 129/375/3 131/184/3
f 131/184/3 132/191/3 126/185/3
f 124/188/4 127/179/4 133/186/4
f 133/186/4 130/194/4 128/187/4
f 128/116/9 130/127/9 131/117/9
f 130/107/2 134/360/2 135/108/2
f 132/182/10 138/195/10 139/189/10
f 131/184/3 135/376/3 137/190/3
f 137/190/3 138/198/3 132/191/3
f 130/194/4 133/186/4 139/192/4
f 139/192/4 136/201/4 134/193/4
f 134/116/9 136/127/9 137/117/9
f 136/107/2 140/360/2 141/108/2
f 138/195/10 144/202/10 145/196/10
f 137/190/3 141/377/3 143/197/3
f 143/197/3 144/205/3 138/198/3
f 136/201/4 139/192/4 145/199/4
f 145/199/4 142/208/4 140/200/4
f 140/116/9 142/127/9 143/117/9
f 142/107/2 146/360/2 147/108/2
f 144/202/10 150/209/10 151/203/10
f 143/197/3 147/378/3 149/204/3
f 149/204/3 150/212/3 144/205/3
f 142/208/4 145/199/4 151/206/4
f 151/206/4 148/215/4 146/207/4
f 147/118/9 146/116/9 148/127/9
f 148/107/2 152/360/2 153/108/2
f 150/209/10 156/216/10 157/210/10
f 149/204/3 153/379/3 155/211/3
f 155/211/3 156/219/3 150/212/3
f 148/215/4 151/206/4 157/213/4
f 157/213/4 154/222/4 152/214/4
f 152/116/9 154/127/9 155/117/9
f 154/107/2 158/360/2 159/108/2
f 156/216/10 162/223/10 163/217/10
f 155/211/3 159/380/3 161/218/3
f 161/218/3 162/226/3 156/219/3
f 154/222/4 157/213/4 163/220/4
f 163/220/4 160/229/4 158/221/4
f 159/118/9 158/116/9 160/127/9
f 160/107/2 164/360/2 165/108/2
f 162/223/10 168/381/10 169/224/10
f 161/218/3 165/382/3 167/225/3
f 167/225/3 168/234/3 162/226/3
f 160/229/4 163/220/4 169/227/4
f 169/227/4 166/237/4 164/228/4
f 164/116/9 166/127/9 167/117/9
f 166/107/2 170/360/2 171/108/2
f 168/230/8 174/383/8 175/231/8
f 167/225/3 171/384/3 173/233/3
f 173/233/3 174/385/3 168/234/3
f 166/237/4 169/227/4 175/235/4
f 175/235/4 172/386/4 170/236/4
f 170/117/6 172/118/6 173/116/6
f 65/238/6 61/387/6 60/239/6
f 175/92/2 179/94/2 176/241/2
f 173/243/2 177/388/2 178/244/2
f 177/248/3 181/389/3 193/246/3
f 193/246/3 191/390/3 178/247/3
f 194/249/1 193/391/1 181/250/1
f 172/252/6 176/392/6 180/253/6
f 180/253/6 181/393/6 177/254/6
f 177/254/23 173/394/23 172/252/23
f 9/255/3 184/261/3 14/256/3
f 49/258/1 45/395/1 50/259/1
f 38/260/3 49/79/3 48/58/3
f 48/58/3 23/294/3 184/261/3
f 184/261/24 9/255/24 38/260/24
f 183/262/4 40/270/4 37/263/4
f 185/265/1 57/60/1 51/266/1
f 63/8/1 58/313/1 6/269/1
f 6/269/1 20/396/1 59/96/1
f 62/268/1 63/8/1 6/269/1
f 21/272/4 182/353/4 39/82/4
f 40/270/4 183/262/4 22/271/4
f 21/272/4 39/82/4 40/270/4
f 205/10/11 209/10/11 207/273/11
f 187/274/3 29/277/3 27/275/3
f 25/279/3 188/26/3 28/322/3
f 29/277/3 187/274/3 18/278/3
f 25/279/3 28/322/3 29/277/3
f 189/280/4 33/22/4 31/281/4
f 11/283/4 30/397/4 32/284/4
f 179/285/4 192/398/4 194/286/4
f 194/286/4 180/399/4 176/287/4
f 19/288/7 24/400/7 7/289/7
f 21/291/7 22/401/7 25/292/7
f 23/70/7 48/58/7 44/294/7
f 47/296/7 20/402/7 6/77/7
f 191/297/7 193/403/7 194/298/7
f 202/66/4 201/65/4 199/74/4
f 198/66/12 202/66/12 200/300/12
f 195/74/13 199/74/13 201/65/13
f 197/65/14 201/65/14 202/66/14
f 195/74/6 196/300/6 200/300/6
f 207/273/2 209/10/2 208/301/2
f 186/302/15 206/302/15 208/301/15
f 203/303/6 207/303/6 206/304/6
f 205/10/16 204/301/16 208/301/16
f 43/305/2 41/404/2 52/405/2
f 43/305/2 52/405/2 54/406/2
f 53/407/2 46/408/2 47/307/2
f 43/305/2 54/406/2 55/306/2
f 55/306/2 53/407/2 47/307/2
