# Blender 5.1.1
# www.blender.org
mtllib Box_2.mtl
o Box_2
v -1.195985 -0.050427 1.195985
v -1.195985 5.268895 1.195985
v -1.195985 -0.050427 -1.195985
v -1.195985 5.268895 -1.195985
v 1.195985 -0.050427 1.195985
v 1.195985 5.268895 1.195985
v 1.195985 -0.050427 -1.195985
v 1.195985 5.268895 -1.195985
vn -1.0000 -0.0000 -0.0000
vn -0.0000 -0.0000 -1.0000
vn 1.0000 -0.0000 -0.0000
vn -0.0000 -0.0000 1.0000
vn -0.0000 -1.0000 -0.0000
vn -0.0000 1.0000 -0.0000
vt 0.500000 0.032810
vt 0.253906 0.687420
vt 0.253906 0.032810
vt 0.007812 0.687420
vt 0.007812 0.032810
vt 0.992188 0.032810
vt 0.746094 0.687420
vt 0.746094 0.032810
vt 0.500000 0.687420
vt 0.362481 0.710207
vt 0.112481 0.960207
vt 0.112481 0.710207
vt 0.862481 0.710207
vt 0.612481 0.960207
vt 0.612481 0.710207
vt 0.992188 0.687420
vt 0.362481 0.960207
vt 0.862481 0.960207
s 0
usemtl Material.010
f 2/1/1 3/2/1 1/3/1
f 4/3/2 7/4/2 3/5/2
f 8/6/3 5/7/3 7/8/3
f 6/8/4 1/9/4 5/1/4
f 7/10/5 1/11/5 3/12/5
f 4/13/6 6/14/6 8/15/6
f 2/1/1 4/9/1 3/2/1
f 4/3/2 8/2/2 7/4/2
f 8/6/3 6/16/3 5/7/3
f 6/8/4 2/7/4 1/9/4
f 7/10/5 5/17/5 1/11/5
f 4/13/6 2/18/6 6/14/6
