# Blender 5.1.1
# www.blender.org
mtllib Box_3.mtl
o Box_3
v -2.789161 -0.025387 1.748082
v -2.789161 0.902430 1.748082
v -2.789161 -0.025387 -1.748082
v -2.789161 0.902430 -1.748082
v 2.789161 -0.025387 1.748082
v 2.789161 0.902430 1.748082
v 2.789161 -0.025387 -1.748082
v 2.789161 0.902430 -1.748082
vn -1.0000 -0.0000 -0.0000
vn -0.0000 -0.0000 -1.0000
vn 1.0000 -0.0000 -0.0000
vn -0.0000 -0.0000 1.0000
vn -0.0000 -1.0000 -0.0000
vn -0.0000 1.0000 -0.0000
vt 0.497003 0.092783
vt 0.113434 -0.001161
vt 0.497003 -0.001161
vt 0.113434 0.092783
vt 0.011643 0.657604
vt 0.011643 0.092783
vt 0.113434 0.657604
vt 0.497003 0.751547
vt 0.113434 0.751547
vt 0.497003 0.657604
vt 0.598795 0.092783
vt 0.598795 0.657604
vt 1.000000 0.621569
vt 0.610437 -0.000000
vt 1.000000 -0.000000
vt 0.610437 0.621569
s 0
usemtl Material.011
f 2/1/1 3/2/1 1/3/1
f 4/4/2 7/5/2 3/6/2
f 8/7/3 5/8/3 7/9/3
f 6/10/4 1/11/4 5/12/4
f 7/13/5 1/14/5 3/15/5
f 4/4/6 6/10/6 8/7/6
f 2/1/1 4/4/1 3/2/1
f 4/4/2 8/7/2 7/5/2
f 8/7/3 6/10/3 5/8/3
f 6/10/4 2/1/4 1/11/4
f 7/13/5 5/16/5 1/14/5
f 4/4/6 2/1/6 6/10/6
