# Blender 5.1.1
# www.blender.org
mtllib Box_4.mtl
o Box_4
v -1.529888 -0.090928 1.529888
v -1.529888 -0.090928 -1.529888
v 1.529888 -0.090928 1.529888
v 1.529888 -0.090928 -1.529888
v -1.529888 2.239809 1.529888
v -1.529888 2.239809 -1.529888
v 1.529888 2.239809 -1.529888
v 1.529888 2.239809 1.529888
v -1.660861 2.208603 1.660861
v -1.660861 3.000054 1.660861
v -1.660861 3.000054 -1.660861
v 1.660861 3.000054 -1.660861
v 1.660861 3.000054 1.660861
v -1.660861 2.208603 -1.660861
v 1.660861 2.208603 -1.660861
v 1.660861 2.208603 1.660861
vn -0.2318 -0.9728 -0.0000
vn 0.2318 -0.9728 -0.0000
vn -0.0000 -1.0000 -0.0000
vn -0.0000 -0.0000 1.0000
vn 1.0000 -0.0000 -0.0000
vn -0.0000 -0.0000 -1.0000
vn -1.0000 -0.0000 -0.0000
vn -0.0000 -0.9728 0.2318
vn -0.0000 -0.9728 -0.2318
vn -0.0000 1.0000 -0.0000
vt 0.945354 0.066511
vt 0.957720 0.362426
vt 0.945346 0.350060
vt 0.661797 0.350052
vt 0.649431 0.054137
vt 0.661805 0.066503
vt 0.409185 0.333737
vt 0.178463 0.564459
vt 0.178463 0.333737
vt 0.409185 0.732994
vt 0.409185 0.564459
vt 0.577720 0.333737
vt 0.178463 0.165202
vt 0.009929 0.564459
vt 0.894380 0.896092
vt 0.966915 0.603667
vt 0.966915 0.896092
vt 0.894380 0.603667
vt 0.601955 0.531132
vt 0.894380 0.531132
vt 0.601955 0.603667
vt 0.529420 0.896092
vt 0.529420 0.603667
vt 0.601955 0.896092
vt 0.894380 0.968627
vt 0.601955 0.968627
vt 0.957720 0.054137
vt 0.649431 0.362426
vt 0.178463 0.732994
vt 0.577720 0.564459
vt 0.409185 0.165202
vt 0.009929 0.333737
s 0
usemtl Material.012
f 7/1/1 16/2/1 8/3/1
f 5/4/2 14/5/2 6/6/2
f 4/7/3 1/8/3 2/9/3
f 8/10/4 1/8/4 3/11/4
f 7/12/5 3/11/5 4/7/5
f 6/13/6 4/7/6 2/9/6
f 5/14/7 2/9/7 1/8/7
f 10/15/7 14/16/7 9/17/7
f 11/18/6 15/19/6 14/20/6
f 12/21/5 16/22/5 15/23/5
f 13/24/4 9/25/4 16/26/4
f 6/6/8 15/27/8 7/1/8
f 5/4/9 16/2/9 9/28/9
f 10/15/10 12/21/10 11/18/10
f 7/1/1 15/27/1 16/2/1
f 5/4/2 9/28/2 14/5/2
f 4/7/3 3/11/3 1/8/3
f 8/10/4 5/29/4 1/8/4
f 7/12/5 8/30/5 3/11/5
f 6/13/6 7/31/6 4/7/6
f 5/14/7 6/32/7 2/9/7
f 10/15/7 11/18/7 14/16/7
f 11/18/6 12/21/6 15/19/6
f 12/21/5 13/24/5 16/22/5
f 13/24/4 10/15/4 9/25/4
f 6/6/8 14/5/8 15/27/8
f 5/4/9 8/3/9 16/2/9
f 10/15/10 13/24/10 12/21/10
