# Blender 5.1.1
# www.blender.org
mtllib break_Chair.mtl
o Chair_2
v -1.245971 2.730817 0.798992
v -1.366235 3.183844 1.366235
v -1.245497 2.739014 -0.839929
v -1.366235 3.183844 -1.366235
v -1.116747 2.739014 -0.839929
v -0.996008 2.970404 -1.366235
v -1.116273 2.730816 0.798992
v -0.996008 2.970404 1.366235
v -1.366235 2.980734 -1.366235
v -1.366235 2.980734 1.366235
v -0.996008 2.767295 1.366235
v -0.996008 2.767295 -1.366235
v -1.245497 2.559091 -0.839929
v -1.245971 2.567288 0.798992
v -1.116273 2.567288 0.798992
v -1.116747 2.559091 -0.839929
v -1.046866 2.796615 0.798992
v -1.315377 2.951414 0.798992
v -1.046866 2.455450 0.798992
v -1.315377 2.454655 0.798992
v 0.000000 2.970404 -1.366235
v 0.000000 2.970404 1.366235
v 0.000000 2.767295 -1.366235
v 0.000000 2.767295 1.366235
v -1.046866 2.796615 -0.839929
v -1.315377 2.951414 -0.839929
v -1.046866 2.455450 -0.839929
v -1.315377 2.454655 -0.839929
v -1.181122 2.730859 0.798992
v -1.181122 2.567246 0.798992
v -1.079001 2.649052 0.798993
v -1.283243 2.649053 0.798993
v -1.181122 2.739048 -0.839929
v -1.181122 2.559057 -0.839929
v -1.079000 2.649052 -0.839929
v -1.283243 2.649052 -0.839929
v -1.181122 2.730859 1.121565
v -1.245971 2.730817 1.121565
v -1.181122 2.567246 1.121565
v -1.245971 2.567288 1.121565
v -1.079001 2.649052 1.121565
v -1.116273 2.567288 1.121565
v -1.283243 2.649053 1.121565
v -1.116273 2.730816 1.121565
v -1.181122 2.510971 1.416732
v -1.245971 2.510949 1.416697
v -1.181122 2.424240 1.277998
v -1.245971 2.424263 1.278034
v -1.079001 2.467605 1.347365
v -1.116273 2.424263 1.278034
v -1.283243 2.467606 1.347366
v -1.116273 2.510948 1.416696
v -1.181120 0.052961 1.580589
v -1.245969 0.052959 1.580547
v -1.181120 0.048028 1.417050
v -1.245969 0.048029 1.417092
v -1.078999 0.050494 1.498819
v -1.116271 0.048029 1.417092
v -1.283242 0.050494 1.498820
v -1.116271 0.052959 1.580546
v -1.181120 0.001262 1.498819
v -1.105556 0.025878 1.498819
v -1.256684 0.025878 1.498820
v -1.229105 0.027702 1.559293
v -1.133135 0.024054 1.438346
v -1.133135 0.027702 1.559292
v -1.229105 0.024054 1.438346
v -1.181122 2.739048 -1.268480
v -1.245497 2.739014 -1.268480
v -1.181122 2.559057 -1.268480
v -1.245497 2.559091 -1.268480
v -1.079000 2.649052 -1.268480
v -1.116747 2.739014 -1.268480
v -1.283243 2.649052 -1.268480
v -1.116747 2.559091 -1.268480
v -1.181122 2.571417 -1.683573
v -1.245497 2.571389 -1.683552
v -1.181122 2.427216 -1.575854
v -1.245497 2.427244 -1.575875
v -1.079000 2.499317 -1.629713
v -1.116747 2.571389 -1.683552
v -1.283243 2.499317 -1.629713
v -1.116747 2.427244 -1.575875
v -1.181122 1.269467 -2.092712
v -1.245497 1.269457 -2.092679
v -1.181122 1.219500 -1.919795
v -1.245497 1.219510 -1.919828
v -1.079000 1.244483 -2.006253
v -1.116747 1.269457 -2.092679
v -1.283243 1.244483 -2.006253
v -1.116747 1.219510 -1.919828
v -1.181122 0.826855 -2.123390
v -1.245497 0.826854 -2.123355
v -1.181122 0.818523 -1.943591
v -1.245497 0.818524 -1.943625
v -1.079000 0.822689 -2.033490
v -1.116747 0.826854 -2.123355
v -1.283243 0.822689 -2.033490
v -1.116747 0.818524 -1.943625
v -1.181122 0.072532 -2.128006
v -1.245497 0.072532 -2.127972
v -1.181122 0.072532 -1.948207
v -1.245497 0.072532 -1.948242
v -1.079001 0.072532 -2.038107
v -1.116748 0.072532 -2.127972
v -1.283244 0.072532 -2.038107
v -1.116748 0.072532 -1.948242
v -1.181123 0.001419 -2.038107
v -1.106591 0.036976 -2.038107
v -1.255654 0.036976 -2.038107
v -1.228106 0.036976 -2.103694
v -1.134140 0.036976 -1.972520
v -1.134140 0.036976 -2.103694
v -1.228106 0.036976 -1.972520
v 0.000000 2.767295 -0.839929
v -0.826668 2.676829 -0.839929
v 0.000000 2.767295 0.798992
v -0.667179 2.676829 -0.839929
v -0.667179 2.545917 -0.839929
v -0.826668 2.545917 -0.839929
v -0.996008 2.767295 -0.839929
v -0.497839 2.767295 -0.839929
v -0.996008 2.767295 0.798992
v -0.497839 2.767295 0.798992
v -0.996008 2.455450 -0.839929
v -0.497839 2.455452 -0.839929
v -0.497839 2.455452 0.798992
v -0.995810 2.455450 0.798992
v -1.318773 3.327377 -1.382942
v -1.318773 5.722147 -1.382942
v -1.318773 3.327377 -1.624469
v -1.318773 5.723182 -1.624469
v -1.069058 3.387431 -1.777027
v -1.069058 5.782395 -1.777027
v -1.069058 3.387431 -1.535500
v -1.069058 5.782395 -1.535500
v 0.000000 5.965849 -1.793166
v 0.000000 5.985188 -1.528746
v 0.000000 3.428628 -1.793166
v 0.000000 3.447967 -1.528746
v -0.826669 2.676829 -1.542358
v -0.667179 2.676829 -1.542358
v -0.826669 2.545917 -1.542358
v -0.667179 2.545917 -1.542358
v -0.826669 2.714888 -1.597313
v -0.667179 2.714888 -1.597313
v -0.826669 2.622319 -1.689883
v -0.667179 2.622319 -1.689882
v -0.826669 3.424590 -1.626379
v -0.667179 3.424590 -1.626379
v -0.826669 3.424590 -1.757292
v -0.667179 3.424590 -1.757291
v -1.436238 3.113090 1.366235
v -1.436238 3.113090 -1.366235
v -0.996008 2.868850 1.437116
v -0.996008 2.868850 -1.438334
v 0.000000 2.868850 -1.438334
v 0.000000 2.868850 1.437116
v -1.379256 3.327377 -1.463384
v -1.379256 5.722665 -1.463384
v -1.069058 5.782395 -1.656263
v -1.069058 3.387431 -1.656263
v 0.000000 3.472041 -1.656263
v 0.000000 6.009263 -1.656263
v 1.245971 2.730817 0.798992
v 1.366235 3.183844 1.366235
v 1.245497 2.739014 -0.839929
v 1.366235 3.183844 -1.366235
v 1.116747 2.739014 -0.839929
v 0.996008 2.970404 -1.366235
v 1.116273 2.730816 0.798992
v 0.996008 2.970404 1.366235
v 1.366235 2.980734 -1.366235
v 1.366235 2.980734 1.366235
v 0.996008 2.767295 1.366235
v 0.996008 2.767295 -1.366235
v 1.245497 2.559091 -0.839929
v 1.245971 2.567288 0.798992
v 1.116273 2.567288 0.798992
v 1.116747 2.559091 -0.839929
v 1.046866 2.796615 0.798992
v 1.315377 2.951414 0.798992
v 1.046866 2.455450 0.798992
v 1.315377 2.454655 0.798992
v 1.046866 2.796615 -0.839929
v 1.315377 2.951414 -0.839929
v 1.046866 2.455450 -0.839929
v 1.315377 2.454655 -0.839929
v 1.181122 2.730859 0.798992
v 1.181122 2.567246 0.798992
v 1.079001 2.649052 0.798993
v 1.283243 2.649053 0.798993
v 1.181122 2.739048 -0.839929
v 1.181122 2.559057 -0.839929
v 1.079000 2.649052 -0.839929
v 1.283243 2.649052 -0.839929
v 1.181122 2.730859 1.121565
v 1.245971 2.730817 1.121565
v 1.181122 2.567246 1.121565
v 1.245971 2.567288 1.121565
v 1.079001 2.649052 1.121565
v 1.116273 2.567288 1.121565
v 1.283243 2.649053 1.121565
v 1.116273 2.730816 1.121565
v 1.181122 2.510971 1.416732
v 1.245971 2.510949 1.416697
v 1.181122 2.424240 1.277998
v 1.245971 2.424263 1.278034
v 1.079001 2.467605 1.347365
v 1.116273 2.424263 1.278034
v 1.283243 2.467606 1.347366
v 1.116273 2.510948 1.416696
v 1.181120 0.052961 1.580589
v 1.245969 0.052959 1.580547
v 1.181120 0.048028 1.417050
v 1.245969 0.048029 1.417092
v 1.078999 0.050494 1.498819
v 1.116271 0.048029 1.417092
v 1.283242 0.050494 1.498820
v 1.116271 0.052959 1.580546
v 1.181120 0.001262 1.498819
v 1.105556 0.025878 1.498819
v 1.256684 0.025878 1.498820
v 1.229105 0.027702 1.559293
v 1.133135 0.024054 1.438346
v 1.133135 0.027702 1.559292
v 1.229105 0.024054 1.438346
v 1.181122 2.739048 -1.268480
v 1.245497 2.739014 -1.268480
v 1.181122 2.559057 -1.268480
v 1.245497 2.559091 -1.268480
v 1.079000 2.649052 -1.268480
v 1.116747 2.739014 -1.268480
v 1.283243 2.649052 -1.268480
v 1.116747 2.559091 -1.268480
v 1.181122 2.571417 -1.683573
v 1.245497 2.571389 -1.683552
v 1.181122 2.427216 -1.575854
v 1.245497 2.427244 -1.575875
v 1.079000 2.499317 -1.629713
v 1.116747 2.571389 -1.683552
v 1.283243 2.499317 -1.629713
v 1.116747 2.427244 -1.575875
v 1.181122 1.269467 -2.092712
v 1.245497 1.269457 -2.092679
v 1.181122 1.219500 -1.919795
v 1.245497 1.219510 -1.919828
v 1.079000 1.244483 -2.006253
v 1.116747 1.269457 -2.092679
v 1.283243 1.244483 -2.006253
v 1.116747 1.219510 -1.919828
v 1.181122 0.826855 -2.123390
v 1.245497 0.826854 -2.123355
v 1.181122 0.818523 -1.943591
v 1.245497 0.818524 -1.943625
v 1.079000 0.822689 -2.033490
v 1.116747 0.826854 -2.123355
v 1.283243 0.822689 -2.033490
v 1.116747 0.818524 -1.943625
v 1.181122 0.072532 -2.128006
v 1.245497 0.072532 -2.127972
v 1.181122 0.072532 -1.948207
v 1.245497 0.072532 -1.948242
v 1.079001 0.072532 -2.038107
v 1.116748 0.072532 -2.127972
v 1.283244 0.072532 -2.038107
v 1.116748 0.072532 -1.948242
v 1.181123 0.001419 -2.038107
v 1.106591 0.036976 -2.038107
v 1.255654 0.036976 -2.038107
v 1.228106 0.036976 -2.103694
v 1.134140 0.036976 -1.972520
v 1.134140 0.036976 -2.103694
v 1.228106 0.036976 -1.972520
v 0.826668 2.676829 -0.839929
v 0.667179 2.676829 -0.839929
v 0.667179 2.545917 -0.839929
v 0.826668 2.545917 -0.839929
v 0.996008 2.767295 -0.839929
v 0.497839 2.767295 -0.839929
v 0.996008 2.767295 0.798992
v 0.497839 2.767295 0.798992
v 0.996008 2.455450 -0.839929
v 0.497839 2.455452 -0.839929
v 0.497839 2.455452 0.798992
v 0.995810 2.455450 0.798992
v 1.318773 3.327377 -1.382942
v 1.318773 5.722147 -1.382942
v 1.318773 3.327377 -1.624469
v 1.318773 5.723182 -1.624469
v 1.069058 3.387431 -1.777027
v 1.069058 5.782395 -1.777027
v 1.069058 3.387431 -1.535500
v 1.069058 5.782395 -1.535500
v 0.826669 2.676829 -1.542358
v 0.667179 2.676829 -1.542358
v 0.826669 2.545917 -1.542358
v 0.667179 2.545917 -1.542358
v 0.826669 2.714888 -1.597313
v 0.667179 2.714888 -1.597313
v 0.826669 2.622319 -1.689883
v 0.667179 2.622319 -1.689882
v 0.826669 3.424590 -1.626379
v 0.667179 3.424590 -1.626379
v 0.826669 3.424590 -1.757292
v 0.667179 3.424590 -1.757291
v 1.436238 3.113090 1.366235
v 1.436238 3.113090 -1.366235
v 0.996008 2.868850 1.437116
v 0.996008 2.868850 -1.438334
v 1.379256 3.327377 -1.463384
v 1.379256 5.722665 -1.463384
v 1.069058 5.782395 -1.656263
v 1.069058 3.387431 -1.656263
vn -0.7109 0.7033 -0.0000
vn -0.0000 -1.0000 -0.0000
vn -0.0000 -0.5789 -0.8154
vn 0.1844 0.5690 -0.8014
vn 0.4995 0.8663 -0.0000
vn 0.1824 0.5627 0.8063
vn -0.4995 -0.8663 -0.0000
vn 0.0030 -1.0000 -0.0000
vn -1.0000 -0.0000 -0.0000
vn -0.0000 -0.0000 1.0000
vn -0.0000 -0.5723 0.8200
vn -0.0000 1.0000 -0.0000
vn -0.0000 -0.0000 -1.0000
vn -0.9099 -0.4148 -0.0000
vn 0.9221 -0.3869 -0.0000
vn 0.9006 0.3389 0.2723
vn -0.9099 0.4148 -0.0000
vn 0.0007 -1.0000 -0.0000
vn -0.0007 -1.0000 -0.0000
vn 0.9099 0.4148 -0.0000
vn 0.9099 -0.4148 -0.0000
vn 0.0007 1.0000 -0.0000
vn -0.0006 1.0000 -0.0000
vn 0.0007 -0.0584 -0.9983
vn 0.0006 0.8019 0.5974
vn 0.9039 -0.3157 -0.2886
vn -0.0005 0.8019 0.5974
vn -0.8632 -0.3935 -0.3162
vn 0.0006 -0.7381 -0.6747
vn -0.8694 0.3963 0.2952
vn -0.0005 -0.7381 -0.6747
vn -0.3078 -0.9449 -0.1119
vn -0.8882 0.0306 0.4584
vn -0.0006 -0.0584 -0.9983
vn 0.9098 0.0260 0.4142
vn 0.0007 0.0665 0.9978
vn 0.9099 -0.0242 -0.4142
vn -0.0006 0.0665 0.9978
vn -0.8878 -0.0288 -0.4593
vn 0.3054 -0.9374 0.1675
vn -0.6451 -0.6960 0.3152
vn 0.6533 -0.7048 -0.2767
vn -0.0000 -0.6439 0.7651
vn -0.0005 -0.6647 -0.7471
vn -0.0000 -0.9357 -0.3527
vn -0.0000 -0.9163 0.4006
vn 0.3078 -0.9449 -0.1119
vn -0.3054 -0.9374 0.1675
vn 0.6451 -0.6960 0.3152
vn -0.6533 -0.7048 -0.2767
vn -0.9181 -0.3642 0.1562
vn -0.9221 0.3869 -0.0000
vn 0.0005 1.0000 -0.0000
vn -0.0005 -1.0000 -0.0000
vn -0.9221 -0.3869 -0.0000
vn 0.0005 -1.0000 -0.0000
vn 0.9221 0.3869 -0.0000
vn -0.0005 1.0000 -0.0000
vn 0.8882 0.1377 -0.4383
vn 0.0005 -0.9190 0.3942
vn -0.9177 0.3670 -0.1521
vn -0.0005 -0.9190 0.3942
vn 0.9105 -0.3820 0.1584
vn 0.0005 0.9272 -0.3745
vn 0.9111 0.3823 -0.1544
vn -0.0005 0.9272 -0.3745
vn 0.9188 -0.0254 0.3939
vn -0.0005 0.2998 -0.9540
vn -0.9221 -0.1060 0.3721
vn 0.0004 -0.2739 0.9618
vn -0.9221 0.1112 -0.3706
vn -0.0005 -0.2739 0.9618
vn 0.8864 -0.1330 0.4434
vn 0.0004 0.2998 -0.9540
vn -0.9220 0.0024 -0.3873
vn 0.0005 0.0691 -0.9976
vn 0.9189 0.0273 -0.3935
vn -0.0005 0.0691 -0.9976
vn -0.9221 -0.0229 0.3863
vn 0.0005 -0.0592 0.9982
vn -0.9221 0.0249 -0.3862
vn -0.0005 -0.0592 0.9982
vn 0.4237 -0.8881 0.1780
vn -0.0005 -0.0062 1.0000
vn 0.9220 -0.0024 0.3872
vn 0.0005 0.0061 -1.0000
vn 0.9220 0.0024 -0.3872
vn -0.0005 0.0061 -1.0000
vn -0.9220 -0.0024 0.3873
vn 0.0005 -0.0062 1.0000
vn 0.0004 -0.5648 0.8252
vn -0.4237 -0.8881 -0.1780
vn -0.0000 -0.5639 -0.8258
vn -0.7498 -0.5818 0.3150
vn 0.4237 -0.8881 -0.1780
vn -0.0000 -0.8791 0.4766
vn 0.7498 -0.5818 -0.3150
vn -0.4237 -0.8881 0.1780
vn -0.0000 -0.8791 -0.4766
vn -0.7498 -0.5818 -0.3150
vn 0.7498 -0.5818 0.3150
vn 1.0000 -0.0000 -0.0000
vn -0.9362 -0.0000 -0.3515
vn 0.0775 -0.9797 -0.1850
vn -0.0151 -0.0000 -0.9999
vn -0.5213 -0.0000 -0.8534
vn 0.1614 -0.9794 -0.1214
vn -0.1891 0.9820 -0.0000
vn 0.5213 -0.0000 0.8534
vn -0.0063 -0.0000 1.0000
vn -0.2041 0.9619 0.1816
vn -0.0000 0.8221 0.5693
vn -0.0000 -0.8880 -0.4599
vn -0.0000 -0.0837 -0.9965
vn -0.0000 0.0409 0.9992
vn -0.0000 0.5723 0.8200
vn -0.3133 -0.5435 0.7787
vn -0.3166 -0.5491 -0.7735
vn -0.0000 0.5789 -0.8154
vn -0.8840 -0.4675 -0.0000
vn -0.1691 0.9856 -0.0000
vn -0.2307 0.9730 -0.0000
vn 0.2438 -0.9655 0.0916
vn 0.0385 -0.9993 -0.0000
vn -0.7993 -0.0000 0.6010
vn 0.7109 0.7033 -0.0000
vn -0.4995 0.8663 -0.0000
vn -0.1824 0.5627 0.8063
vn 0.4995 -0.8663 -0.0000
vn -0.0030 -1.0000 -0.0000
vn -0.0007 1.0000 -0.0000
vn 0.0006 1.0000 -0.0000
vn 0.0005 0.8019 0.5974
vn 0.8632 -0.3935 -0.3162
vn 0.8694 0.3963 0.2952
vn 0.0005 -0.7381 -0.6747
vn 0.8882 0.0306 0.4584
vn 0.0006 -0.0584 -0.9983
vn 0.0006 0.0665 0.9978
vn 0.8878 -0.0288 -0.4593
vn -0.0005 -0.6451 0.7641
vn 0.0005 -0.6647 -0.7471
vn -0.8882 0.1377 -0.4383
vn -0.9105 -0.3820 0.1584
vn -0.9111 0.3823 -0.1544
vn -0.9188 -0.0254 0.3939
vn -0.0004 -0.2739 0.9618
vn -0.8864 -0.1330 0.4434
vn -0.0004 0.2998 -0.9540
vn -0.9189 0.0273 -0.3935
vn -0.9220 -0.0024 0.3872
vn -0.9220 0.0024 -0.3872
vn -0.0000 -0.5644 0.8255
vn 0.0004 -0.5648 -0.8252
vn 0.9362 -0.0000 -0.3515
vn -0.0775 -0.9797 -0.1850
vn 0.0151 -0.0000 -0.9999
vn 0.5213 -0.0000 -0.8534
vn -0.1901 -0.9818 -0.0000
vn 0.1891 0.9820 -0.0000
vn -0.5213 -0.0000 0.8534
vn 0.0063 -0.0000 1.0000
vn 0.1864 0.9825 -0.0000
vn 0.3133 -0.5435 0.7787
vn 0.2242 -0.1186 -0.9673
vn 0.8840 -0.4675 -0.0000
vn 0.1691 0.9856 -0.0000
vn 0.2307 0.9730 -0.0000
vn -0.2338 -0.9723 -0.0000
vn -0.0752 -0.9505 0.3014
vn 0.7993 -0.0000 0.6010
vn -0.0006 0.8019 0.5974
vn -0.9039 -0.3157 -0.2886
vn -0.9006 0.3389 0.2723
vn -0.0006 -0.7381 -0.6747
vn -0.9098 0.0259 0.4142
vn -0.0007 -0.0584 -0.9983
vn -0.9099 -0.0242 -0.4142
vn -0.0000 -0.9995 0.0320
vn -0.0000 -0.6634 -0.7483
vn 0.0005 -0.6636 -0.7481
vn 0.9221 0.1112 -0.3706
vn 0.9181 -0.3642 0.1562
vn 0.9177 0.3670 -0.1521
vn 0.9221 -0.0229 0.3863
vn 0.0005 -0.2739 0.9618
vn 0.9221 -0.1060 0.3721
vn 0.0005 0.2998 -0.9540
vn 0.9221 0.0249 -0.3862
vn 0.9220 -0.0024 0.3873
vn 0.9220 0.0024 -0.3873
vn -0.0004 -0.5640 0.8257
vn -0.0000 -0.5639 0.8259
vn -0.0000 -0.2077 -0.9782
vn 0.0565 -0.9984 -0.0000
vn 0.1901 -0.9818 -0.0000
vn -0.1592 0.9792 0.1260
vn -0.1864 0.9825 -0.0000
vn -0.2207 -0.1167 0.9683
vn -0.2242 -0.1186 -0.9673
vn -0.1983 0.9343 -0.2963
vn -0.2403 0.9668 -0.0871
vn 0.2338 -0.9723 -0.0000
vn 0.0752 -0.9505 0.3014
vn -0.1844 0.5690 -0.8014
vn 0.9098 0.0259 0.4142
vn -0.9098 0.0260 0.4142
vn -0.0007 0.0665 0.9978
vn 0.0005 -0.6441 0.7650
vn -0.0005 -0.6636 -0.7481
vn 0.0004 -0.5640 0.8257
vn -0.0004 -0.5641 -0.8257
vn -0.0565 -0.9984 -0.0000
vn -0.1614 -0.9794 -0.1214
vn 0.1592 0.9792 0.1260
vn 0.2041 0.9619 0.1816
vn 0.2207 -0.1167 0.9683
vn 0.3166 -0.5491 -0.7735
vn 0.1983 0.9343 -0.2963
vn 0.2403 0.9668 -0.0871
vn -0.2438 -0.9655 0.0916
vn -0.0385 -0.9993 -0.0000
vt 0.831101 0.246670
vt 0.841429 0.133434
vt 0.844066 0.252650
vt 0.973723 0.125056
vt 0.929594 0.140673
vt 0.907970 0.109850
vt 0.925416 0.070004
vt 0.860916 0.100717
vt 0.842853 0.053901
vt 0.790892 0.106985
vt 0.828348 0.138981
vt 0.786301 0.275157
vt 0.856212 0.287001
vt 0.878860 0.232412
vt 0.868861 0.128889
vt 0.877555 0.152782
vt 0.920306 0.246873
vt 0.928707 0.250174
vt 0.903170 0.284217
vt 0.921245 0.143919
vt 0.870417 0.257788
vt 0.826836 0.468015
vt 0.901501 0.488397
vt 0.829553 0.477502
vt 0.792099 0.604051
vt 0.935689 0.596476
vt 0.935777 0.532098
vt 0.959926 0.523890
vt 0.918534 0.503782
vt 0.905667 0.480811
vt 0.934694 0.508235
vt 0.919730 0.527192
vt 0.841638 0.331468
vt 0.745890 0.089417
vt 0.792224 0.534977
vt 0.767382 0.530248
vt 0.812330 0.494752
vt 0.794656 0.505895
vt 0.810675 0.521510
vt 0.102929 0.047416
vt 0.095528 0.087475
vt 0.088930 0.056810
vt 0.260877 0.916685
vt 0.281723 0.929486
vt 0.264884 0.942101
vt 0.124563 0.058953
vt 0.150444 0.115440
vt 0.130880 0.117486
vt 0.082659 0.023959
vt 0.098416 0.020463
vt 0.108352 0.081804
vt 0.104328 0.088948
vt 0.106666 0.080896
vt 0.106162 0.078720
vt 0.108271 0.027238
vt 0.109575 0.056381
vt 0.120510 0.088700
vt 0.109272 0.023153
vt 0.123461 0.029818
vt 0.110369 0.019722
vt 0.126291 0.027815
vt 0.098797 0.121674
vt 0.091741 0.958510
vt 0.073265 0.958279
vt 0.167198 0.109668
vt 0.114845 0.128543
vt 0.129189 0.025801
vt 0.053989 0.121611
vt 0.035438 0.121611
vt 0.080772 0.138886
vt 0.060865 0.970981
vt 0.074632 0.970521
vt 0.096916 0.980278
vt 0.035438 0.950630
vt 0.057520 0.958008
vt 0.134056 0.961770
vt 0.106801 0.952352
vt 0.160438 0.942492
vt 0.184530 0.114137
vt 0.053989 0.950630
vt 0.114999 0.970328
vt 0.134430 0.972172
vt 0.054359 0.973715
vt 0.093109 0.969373
vt 0.184530 0.958446
vt 0.151184 0.972790
vt 0.251165 0.899234
vt 0.240647 0.866123
vt 0.248381 0.854920
vt 0.241622 0.967599
vt 0.239308 0.930168
vt 0.256831 0.940601
vt 0.283955 0.969253
vt 0.301199 0.954767
vt 0.286747 0.971476
vt 0.258321 0.914768
vt 0.258873 0.898629
vt 0.259947 0.914597
vt 0.266764 0.899399
vt 0.297954 0.954313
vt 0.304524 0.955142
vt 0.289395 0.973406
vt 0.277456 0.867277
vt 0.284005 0.447525
vt 0.287161 0.896617
vt 0.264683 0.853490
vt 0.232241 0.897138
vt 0.256248 0.845200
vt 0.302684 0.893753
vt 0.311807 0.895948
vt 0.263360 0.441975
vt 0.269991 0.300092
vt 0.275143 0.447870
vt 0.292909 0.446805
vt 0.302720 0.456510
vt 0.236279 0.450451
vt 0.244402 0.436870
vt 0.223974 0.448199
vt 0.252238 0.424408
vt 0.240454 0.300371
vt 0.234010 0.043835
vt 0.238926 0.043929
vt 0.280512 0.300897
vt 0.274963 0.301412
vt 0.286071 0.300788
vt 0.249643 0.298619
vt 0.260737 0.298536
vt 0.235508 0.301729
vt 0.255191 0.298916
vt 0.258485 0.032012
vt 0.254353 0.032579
vt 0.254193 0.019722
vt 0.243824 0.044071
vt 0.249249 0.043670
vt 0.259811 0.043346
vt 0.271217 0.043175
vt 0.265703 0.043179
vt 0.276723 0.042461
vt 0.254660 0.043984
vt 0.248976 0.032030
vt 0.245479 0.030832
vt 0.242327 0.028892
vt 0.262325 0.030892
vt 0.266554 0.028512
vt 0.950430 0.258650
vt 0.950395 0.131405
vt 0.922207 0.319754
vt 0.940291 0.391054
vt 0.826963 0.450973
vt 0.783417 0.390443
vt 0.896578 0.461170
vt 0.826249 0.466167
vt 0.754200 0.770871
vt 0.806832 0.737575
vt 0.810844 0.773640
vt 0.766398 0.514954
vt 0.959926 0.508035
vt 0.906440 0.479108
vt 0.785806 0.471552
vt 0.790622 0.435939
vt 0.808148 0.462806
vt 0.808911 0.451581
vt 0.440500 0.840129
vt 0.420144 0.027438
vt 0.440500 0.019722
vt 0.925490 0.871749
vt 0.868546 0.858053
vt 0.930058 0.862309
vt 0.351250 0.062633
vt 0.410286 0.870986
vt 0.356407 0.934336
vt 0.425014 0.850555
vt 0.405418 0.048159
vt 0.842035 0.866966
vt 0.867975 0.864185
vt 0.843817 0.871749
vt 0.823346 0.923779
vt 0.849299 0.926236
vt 0.849732 0.932357
vt 0.534190 0.912238
vt 0.549855 0.109994
vt 0.551312 0.922539
vt 0.534190 0.089396
vt 0.479943 0.891439
vt 0.479943 0.019722
vt 0.937277 0.918926
vt 0.944547 0.926502
vt 0.863535 0.737044
vt 0.843724 0.749760
vt 0.824188 0.777949
vt 0.881188 0.766118
vt 0.867763 0.793844
vt 0.746611 0.769388
vt 0.751028 0.738325
vt 0.881188 0.634739
vt 0.865776 0.750847
vt 0.761315 0.718784
vt 0.764637 0.725227
vt 0.808102 0.727110
vt 0.868968 0.650809
vt 0.871122 0.654055
vt 0.869507 0.652819
vt 0.745890 0.301780
vt 0.933000 0.938225
vt 0.849876 0.938484
vt 0.825647 0.932186
vt 0.844112 0.858527
vt 0.924052 0.847014
vt 0.868316 0.851920
vt 0.566011 0.933246
vt 0.942748 0.523882
vt 0.914508 0.507701
vt 0.799933 0.542341
vt 0.810831 0.491203
vt 0.223974 0.956142
vt 0.973105 0.265731
vt 0.744503 0.735564
vt 0.928340 0.540328
vt 0.920724 0.499788
vt 0.784569 0.527552
vt 0.816357 0.498890
vt 0.824941 0.918926
vt 0.579493 0.110403
s 0
usemtl Material.004
f 2/1/1 154/2/1 153/3/1
f 115/4/2 121/5/2 12/6/2
f 23/7/3 156/8/3 157/9/3
f 154/2/4 6/10/4 156/8/4
f 4/11/5 8/12/5 6/10/5
f 8/12/6 153/3/6 155/13/6
f 18/14/7 9/15/7 26/16/7
f 17/17/7 123/18/7 11/19/7
f 26/16/7 12/6/7 25/20/7
f 17/17/7 10/21/7 18/14/7
f 27/22/8 20/23/8 28/24/8
f 26/25/9 20/23/9 18/26/9
f 29/27/10 17/28/10 18/26/10
f 30/29/10 20/23/10 19/30/10
f 31/31/10 19/30/10 17/28/10
f 32/32/10 18/26/10 20/23/10
f 11/19/11 158/33/11 155/13/11
f 8/12/12 21/34/12 6/10/12
f 33/35/13 26/25/13 25/36/13
f 34/37/13 27/22/13 28/24/13
f 35/38/13 25/36/13 27/22/13
f 36/39/13 28/24/13 26/25/13
f 32/40/14 40/41/14 43/42/14
f 16/43/15 72/44/15 35/45/15
f 41/46/16 52/47/16 49/48/16
f 32/40/17 38/49/17 1/50/17
f 15/51/18 39/52/18 30/53/18
f 30/53/19 40/41/19 14/54/19
f 7/55/20 41/46/20 31/56/20
f 31/56/21 42/57/21 15/51/21
f 29/58/22 44/59/22 7/55/22
f 1/60/23 37/61/23 29/58/23
f 47/62/24 58/63/24 55/64/24
f 44/59/25 45/65/25 52/47/25
f 42/57/26 49/48/26 50/66/26
f 38/67/27 45/65/27 37/61/27
f 40/41/28 51/68/28 43/42/28
f 39/52/29 50/66/29 47/62/29
f 43/42/30 46/69/30 38/49/30
f 39/52/31 48/70/31 40/41/31
f 63/71/32 67/72/32 61/73/32
f 51/68/33 54/74/33 46/69/33
f 47/62/34 56/75/34 48/70/34
f 49/48/35 60/76/35 57/77/35
f 52/47/36 53/78/36 60/76/36
f 50/66/37 57/77/37 58/63/37
f 46/79/38 53/78/38 45/65/38
f 48/70/39 59/80/39 51/68/39
f 62/81/40 66/82/40 61/73/40
f 64/83/41 59/80/41 63/71/41
f 58/63/42 62/81/42 65/84/42
f 60/76/43 54/85/43 64/86/43
f 56/75/44 55/64/44 65/84/44
f 61/73/45 67/72/45 65/84/45
f 61/73/46 66/82/46 64/86/46
f 61/73/47 65/84/47 62/81/47
f 61/73/48 64/83/48 63/71/48
f 57/77/49 66/82/49 62/81/49
f 56/75/50 63/71/50 59/80/50
f 71/87/51 82/88/51 79/89/51
f 3/90/52 74/91/52 36/92/52
f 5/93/53 68/94/53 33/95/53
f 13/96/54 70/97/54 34/98/54
f 13/96/55 74/91/55 71/87/55
f 34/98/56 75/99/56 16/43/56
f 5/93/57 72/44/57 73/100/57
f 33/95/58 69/101/58 3/102/58
f 80/103/59 89/104/59 81/105/59
f 70/97/60 83/106/60 75/99/60
f 74/91/61 77/107/61 82/88/61
f 70/97/62 79/89/62 78/108/62
f 75/99/63 80/103/63 72/44/63
f 73/100/64 76/109/64 68/94/64
f 72/44/65 81/105/65 73/100/65
f 69/101/66 76/109/66 77/110/66
f 91/111/67 96/112/67 88/113/67
f 77/110/68 84/114/68 85/115/68
f 79/89/69 90/116/69 87/117/69
f 78/108/70 91/111/70 83/106/70
f 82/88/71 85/118/71 90/116/71
f 78/108/72 87/117/72 86/119/72
f 83/106/73 88/113/73 80/103/73
f 81/105/74 84/114/74 76/109/74
f 98/120/75 101/121/75 106/122/75
f 89/104/76 92/123/76 84/114/76
f 88/113/77 97/124/77 89/104/77
f 85/115/78 92/123/78 93/125/78
f 87/117/79 98/120/79 95/126/79
f 86/119/80 99/127/80 91/111/80
f 90/116/81 93/128/81 98/120/81
f 86/119/82 95/126/82 94/129/82
f 109/130/83 112/131/83 108/132/83
f 94/129/84 103/133/84 102/134/84
f 99/127/85 104/135/85 96/112/85
f 97/124/86 100/136/86 92/123/86
f 96/112/87 105/137/87 97/124/87
f 93/125/88 100/136/88 101/138/88
f 95/126/89 106/122/89 103/133/89
f 94/129/90 107/139/90 99/127/90
f 114/140/91 107/139/91 102/134/91
f 110/141/92 111/142/92 108/132/92
f 101/138/93 105/137/93 113/143/93
f 114/140/94 106/122/94 110/141/94
f 113/143/95 109/130/95 108/132/95
f 114/140/96 108/132/96 112/131/96
f 104/135/97 113/143/97 105/137/97
f 108/132/98 114/140/98 110/141/98
f 108/132/99 111/144/99 113/143/99
f 106/122/100 111/142/100 110/141/100
f 104/135/101 112/131/101 109/130/101
f 115/4/2 124/145/2 122/146/2
f 121/5/7 25/20/7 12/6/7
f 124/145/2 24/147/2 11/19/2
f 124/148/102 126/149/102 122/150/102
f 127/151/2 19/30/2 125/152/2
f 119/153/102 142/154/102 118/155/102
f 121/156/13 27/22/13 25/36/13
f 123/157/10 19/30/10 128/158/10
f 116/159/13 122/150/13 118/160/13
f 120/161/13 126/149/13 125/152/13
f 118/160/13 126/149/13 119/162/13
f 120/161/13 121/156/13 116/159/13
f 128/158/10 124/148/10 123/157/10
f 160/163/103 131/164/103 159/165/103
f 140/166/104 162/167/104 163/168/104
f 139/169/105 134/170/105 137/171/105
f 132/172/106 133/173/106 131/164/106
f 159/174/107 135/175/107 129/176/107
f 160/177/108 136/178/108 161/179/108
f 135/180/109 130/181/109 129/182/109
f 136/183/110 140/184/110 138/185/110
f 161/179/111 138/186/111 164/187/111
f 142/154/112 145/188/112 141/189/112
f 118/155/12 141/189/12 116/190/12
f 116/190/9 143/191/9 120/192/9
f 120/193/2 144/194/2 119/153/2
f 145/188/9 151/195/9 147/196/9
f 141/189/9 147/196/9 143/191/9
f 144/194/113 147/197/113 148/198/113
f 142/154/102 148/198/102 146/199/102
f 152/200/12 149/201/12 150/202/12
f 147/197/114 152/200/114 148/198/114
f 146/199/102 152/200/102 150/202/102
f 146/199/115 149/201/115 145/188/115
f 155/13/116 22/203/116 8/12/116
f 155/13/117 10/21/117 11/19/117
f 9/15/118 156/8/118 12/6/118
f 157/9/119 6/10/119 21/34/119
f 153/3/120 9/15/120 10/21/120
f 161/179/121 137/204/121 134/205/121
f 132/206/122 161/179/122 134/205/122
f 131/207/123 162/167/123 159/174/123
f 139/208/124 162/167/124 133/209/124
f 130/181/125 159/210/125 129/182/125
f 308/2/126 166/1/126 307/3/126
f 176/6/2 280/146/2 115/4/2
f 310/8/3 23/7/3 157/9/3
f 308/2/13 170/10/13 168/11/13
f 172/12/127 168/11/127 170/10/127
f 307/3/128 172/12/128 309/13/128
f 173/15/129 182/14/129 186/16/129
f 181/17/129 175/19/129 281/18/129
f 176/6/129 186/16/129 185/20/129
f 174/21/129 181/17/129 182/14/129
f 184/23/130 187/22/130 188/24/130
f 184/23/102 186/25/102 182/26/102
f 182/26/10 171/211/10 189/27/10
f 183/30/10 178/212/10 190/29/10
f 181/28/10 183/30/10 191/31/10
f 184/23/10 182/26/10 192/32/10
f 158/33/11 175/19/11 309/13/11
f 21/34/12 172/12/12 170/10/12
f 185/36/13 167/213/13 193/35/13
f 188/24/13 180/214/13 194/37/13
f 187/22/13 185/36/13 195/38/13
f 186/25/13 188/24/13 196/39/13
f 192/40/21 200/41/21 178/54/21
f 232/44/55 180/43/55 195/45/55
f 201/46/30 212/47/30 204/59/30
f 198/49/20 192/40/20 165/50/20
f 199/52/19 179/51/19 190/53/19
f 200/41/18 190/53/18 178/54/18
f 201/46/17 171/55/17 191/56/17
f 202/57/14 191/56/14 179/51/14
f 204/59/131 189/58/131 171/55/131
f 197/61/132 165/60/132 189/58/132
f 207/62/34 218/63/34 210/66/34
f 204/59/27 205/65/27 197/61/27
f 202/57/28 209/48/28 201/46/28
f 205/65/133 198/67/133 197/61/133
f 211/68/134 200/41/134 203/42/134
f 199/52/31 210/66/31 202/57/31
f 206/69/135 203/42/135 198/49/135
f 208/70/136 199/52/136 200/41/136
f 223/71/47 221/73/47 227/72/47
f 214/74/137 211/68/137 206/69/137
f 216/75/138 207/62/138 208/70/138
f 209/48/33 220/76/33 212/47/33
f 212/47/38 213/78/38 205/65/38
f 210/66/39 217/77/39 209/48/39
f 213/78/139 206/79/139 205/65/139
f 219/80/140 208/70/140 211/68/140
f 222/81/48 221/73/48 226/82/48
f 224/83/49 219/80/49 214/74/49
f 222/81/50 218/63/50 225/84/50
f 224/86/141 213/78/141 220/76/141
f 225/84/142 215/64/142 216/75/142
f 221/73/45 225/84/45 227/72/45
f 221/73/46 224/86/46 226/82/46
f 221/73/32 222/81/32 225/84/32
f 221/73/40 223/71/40 224/83/40
f 217/77/41 226/82/41 220/76/41
f 223/71/42 216/75/42 219/80/42
f 231/87/63 242/88/63 234/91/63
f 234/91/57 167/90/57 196/92/57
f 228/94/58 169/93/58 193/95/58
f 230/97/56 177/96/56 194/98/56
f 177/96/15 234/91/15 196/92/15
f 235/99/54 194/98/54 180/43/54
f 169/93/52 232/44/52 195/45/52
f 229/101/53 193/95/53 167/102/53
f 249/104/143 240/103/143 241/105/143
f 243/106/62 230/97/62 235/99/62
f 234/91/65 237/107/65 229/215/65
f 230/97/60 239/89/60 231/87/60
f 240/103/144 235/99/144 232/44/144
f 236/109/66 233/100/66 228/94/66
f 241/105/145 232/44/145 233/100/145
f 229/101/64 236/109/64 228/94/64
f 256/112/146 251/111/146 248/113/146
f 237/110/74 244/114/74 236/109/74
f 239/89/73 250/116/73 242/88/73
f 251/111/147 238/108/147 243/106/147
f 242/88/59 245/118/59 237/107/59
f 238/108/70 247/117/70 239/89/70
f 248/113/148 243/106/148 240/103/148
f 244/114/149 241/105/149 236/109/149
f 258/120/87 261/121/87 253/128/87
f 252/123/78 249/104/78 244/114/78
f 257/124/150 248/113/150 249/104/150
f 245/115/76 252/123/76 244/114/76
f 247/117/67 258/120/67 250/116/67
f 259/127/82 246/119/82 251/111/82
f 250/116/77 253/128/77 245/118/77
f 246/119/80 255/126/80 247/117/80
f 269/130/98 268/132/98 272/131/98
f 254/129/90 263/133/90 255/126/90
f 264/135/151 259/127/151 256/112/151
f 260/136/88 257/124/88 252/123/88
f 265/137/152 256/112/152 257/124/152
f 253/125/86 260/136/86 252/123/86
f 255/126/85 266/122/85 258/120/85
f 267/139/84 254/129/84 259/127/84
f 262/134/153 272/131/153 274/140/153
f 270/141/95 268/132/95 271/142/95
f 273/143/154 260/136/154 261/138/154
f 274/140/101 266/122/101 263/133/101
f 273/143/92 268/132/92 269/130/92
f 274/140/96 272/131/96 268/132/96
f 273/143/100 264/135/100 265/137/100
f 268/132/83 270/141/83 274/140/83
f 268/132/99 273/143/99 271/144/99
f 266/122/97 271/142/97 261/121/97
f 264/135/94 272/131/94 267/139/94
f 282/145/2 115/4/2 280/146/2
f 279/5/129 176/6/129 185/20/129
f 175/19/2 117/216/2 282/145/2
f 284/149/9 282/148/9 280/150/9
f 283/152/2 183/30/2 285/151/2
f 296/154/9 277/153/9 276/155/9
f 279/156/13 187/22/13 283/152/13
f 183/30/10 281/157/10 286/158/10
f 280/150/13 275/159/13 276/160/13
f 278/161/13 284/149/13 277/162/13
f 284/149/13 276/160/13 277/162/13
f 279/156/13 278/161/13 275/159/13
f 282/148/10 286/158/10 281/157/10
f 289/164/155 312/163/155 311/165/155
f 314/167/156 140/166/156 163/168/156
f 292/170/157 139/169/157 137/171/157
f 291/173/158 290/172/158 289/164/158
f 311/174/159 293/175/159 314/167/159
f 294/178/160 312/177/160 313/179/160
f 293/180/161 288/181/161 294/183/161
f 294/183/162 140/184/162 293/180/162
f 313/179/163 138/186/163 294/178/163
f 299/188/112 296/154/112 295/189/112
f 295/189/12 276/155/12 275/190/12
f 297/191/102 275/190/102 278/192/102
f 298/194/2 278/193/2 277/153/2
f 305/195/102 299/188/102 301/196/102
f 301/196/102 295/189/102 297/191/102
f 298/194/113 301/197/113 297/217/113
f 296/154/9 302/198/9 298/194/9
f 306/200/12 303/201/12 305/195/12
f 306/200/114 301/197/114 302/198/114
f 300/199/9 306/200/9 302/198/9
f 303/201/115 300/199/115 299/188/115
f 22/203/116 309/13/116 172/12/116
f 174/21/164 309/13/164 175/19/164
f 173/15/165 310/8/165 308/2/165
f 170/10/119 157/9/119 21/34/119
f 173/15/166 307/3/166 174/21/166
f 137/204/167 313/179/167 292/205/167
f 313/179/168 290/206/168 292/205/168
f 289/207/169 314/167/169 291/209/169
f 139/208/170 314/167/170 163/168/170
f 311/210/171 288/181/171 287/182/171
f 2/1/1 4/11/1 154/2/1
f 12/6/2 23/7/2 115/4/2
f 115/4/12 122/146/12 121/5/12
f 23/7/3 12/6/3 156/8/3
f 154/2/13 4/11/13 6/10/13
f 4/11/5 2/1/5 8/12/5
f 8/12/10 2/1/10 153/3/10
f 18/14/7 10/21/7 9/15/7
f 26/16/7 9/15/7 12/6/7
f 17/17/7 11/19/7 10/21/7
f 27/22/8 19/30/8 20/23/8
f 26/25/9 28/24/9 20/23/9
f 18/26/10 1/218/10 29/27/10
f 29/27/10 7/211/10 17/28/10
f 19/30/10 15/219/10 30/29/10
f 30/29/10 14/212/10 20/23/10
f 17/28/10 7/211/10 31/31/10
f 31/31/10 15/219/10 19/30/10
f 20/23/10 14/212/10 32/32/10
f 32/32/10 1/218/10 18/26/10
f 11/19/11 24/147/11 158/33/11
f 8/12/12 22/203/12 21/34/12
f 25/36/13 5/220/13 33/35/13
f 33/35/13 3/213/13 26/25/13
f 28/24/13 13/221/13 34/37/13
f 34/37/13 16/214/13 27/22/13
f 27/22/13 16/214/13 35/38/13
f 35/38/13 5/220/13 25/36/13
f 26/25/13 3/213/13 36/39/13
f 36/39/13 13/221/13 28/24/13
f 32/40/14 14/54/14 40/41/14
f 16/43/15 75/99/15 72/44/15
f 41/46/135 44/59/135 52/47/135
f 32/40/17 43/42/17 38/49/17
f 15/51/18 42/57/18 39/52/18
f 30/53/19 39/52/19 40/41/19
f 7/55/20 44/59/20 41/46/20
f 31/56/21 41/46/21 42/57/21
f 29/58/22 37/61/22 44/59/22
f 1/60/23 38/67/23 37/61/23
f 47/62/138 50/66/138 58/63/138
f 44/59/133 37/61/133 45/65/133
f 42/57/134 41/46/134 49/48/134
f 38/67/172 46/79/172 45/65/172
f 40/41/173 48/70/173 51/68/173
f 39/52/136 42/57/136 50/66/136
f 43/42/174 51/68/174 46/69/174
f 39/52/175 47/62/175 48/70/175
f 51/68/176 59/80/176 54/74/176
f 47/62/177 55/64/177 56/75/177
f 49/48/137 52/47/137 60/76/137
f 52/47/139 45/65/139 53/78/139
f 50/66/140 49/48/140 57/77/140
f 46/79/38 54/85/38 53/78/38
f 48/70/178 56/75/178 59/80/178
f 64/83/41 54/74/41 59/80/41
f 58/63/42 57/77/42 62/81/42
f 64/86/43 66/82/43 60/76/43
f 60/76/179 53/78/179 54/85/179
f 65/84/180 67/72/180 56/75/180
f 55/64/181 58/63/181 65/84/181
f 57/77/49 60/76/49 66/82/49
f 56/75/50 67/72/50 63/71/50
f 71/87/144 74/91/144 82/88/144
f 3/90/52 69/215/52 74/91/52
f 5/93/53 73/100/53 68/94/53
f 13/96/54 71/87/54 70/97/54
f 13/96/55 36/92/55 74/91/55
f 34/98/56 70/97/56 75/99/56
f 5/93/57 35/45/57 72/44/57
f 33/95/58 68/94/58 69/101/58
f 80/103/182 88/113/182 89/104/182
f 70/97/60 78/108/60 83/106/60
f 74/91/145 69/215/145 77/107/145
f 70/97/62 71/87/62 79/89/62
f 75/99/183 83/106/183 80/103/183
f 73/100/64 81/105/64 76/109/64
f 72/44/184 80/103/184 81/105/184
f 69/101/66 68/94/66 76/109/66
f 91/111/185 99/127/185 96/112/185
f 77/110/149 76/109/149 84/114/149
f 79/89/148 82/88/148 90/116/148
f 78/108/186 86/119/186 91/111/186
f 82/88/143 77/107/143 85/118/143
f 78/108/147 79/89/147 87/117/147
f 83/106/187 91/111/187 88/113/187
f 81/105/188 89/104/188 84/114/188
f 98/120/152 93/128/152 101/121/152
f 89/104/76 97/124/76 92/123/76
f 88/113/189 96/112/189 97/124/189
f 85/115/78 84/114/78 92/123/78
f 87/117/146 90/116/146 98/120/146
f 86/119/80 94/129/80 99/127/80
f 90/116/150 85/118/150 93/128/150
f 86/119/82 87/117/82 95/126/82
f 94/129/84 95/126/84 103/133/84
f 99/127/190 107/139/190 104/135/190
f 97/124/86 105/137/86 100/136/86
f 96/112/191 104/135/191 105/137/191
f 93/125/88 92/123/88 100/136/88
f 95/126/151 98/120/151 106/122/151
f 94/129/90 102/134/90 107/139/90
f 102/134/192 103/133/192 114/140/192
f 114/140/193 112/131/193 107/139/193
f 113/143/93 111/144/93 101/138/93
f 101/138/2 100/136/2 105/137/2
f 114/140/94 103/133/94 106/122/94
f 104/135/97 109/130/97 113/143/97
f 106/122/100 101/121/100 111/142/100
f 104/135/101 107/139/101 112/131/101
f 115/4/2 117/216/2 124/145/2
f 11/19/2 123/18/2 124/145/2
f 124/145/2 117/216/2 24/147/2
f 124/148/102 127/151/102 126/149/102
f 125/152/2 126/149/2 127/151/2
f 127/151/194 128/158/194 19/30/194
f 19/30/2 27/22/2 125/152/2
f 119/153/102 144/194/102 142/154/102
f 121/156/13 125/152/13 27/22/13
f 123/157/10 17/28/10 19/30/10
f 116/159/13 121/156/13 122/150/13
f 120/161/13 119/162/13 126/149/13
f 118/160/13 122/150/13 126/149/13
f 120/161/13 125/152/13 121/156/13
f 128/158/10 127/151/10 124/148/10
f 160/163/103 132/172/103 131/164/103
f 140/166/195 135/175/195 162/167/195
f 139/169/105 133/173/105 134/170/105
f 132/172/106 134/170/106 133/173/106
f 159/174/196 162/167/196 135/175/196
f 160/177/197 130/222/197 136/178/197
f 135/180/109 136/183/109 130/181/109
f 136/183/110 135/180/110 140/184/110
f 161/179/198 136/178/198 138/186/198
f 142/154/112 146/199/112 145/188/112
f 118/155/12 142/154/12 141/189/12
f 116/190/9 141/189/9 143/191/9
f 120/193/2 143/217/2 144/194/2
f 145/188/9 149/201/9 151/195/9
f 141/189/9 145/188/9 147/196/9
f 144/194/113 143/217/113 147/197/113
f 142/154/102 144/194/102 148/198/102
f 152/200/12 151/195/12 149/201/12
f 147/197/114 151/195/114 152/200/114
f 146/199/102 148/198/102 152/200/102
f 146/199/115 150/202/115 149/201/115
f 155/13/116 158/33/116 22/203/116
f 155/13/199 153/3/199 10/21/199
f 9/15/200 154/2/200 156/8/200
f 157/9/119 156/8/119 6/10/119
f 153/3/120 154/2/120 9/15/120
f 161/179/201 164/187/201 137/204/201
f 132/206/202 160/177/202 161/179/202
f 131/207/203 133/209/203 162/167/203
f 139/208/204 163/168/204 162/167/204
f 130/181/125 160/223/125 159/210/125
f 308/2/126 168/11/126 166/1/126
f 115/4/2 23/7/2 176/6/2
f 176/6/2 279/5/2 280/146/2
f 310/8/3 176/6/3 23/7/3
f 308/2/205 310/8/205 170/10/205
f 172/12/127 166/1/127 168/11/127
f 307/3/10 166/1/10 172/12/10
f 173/15/129 174/21/129 182/14/129
f 176/6/129 173/15/129 186/16/129
f 174/21/129 175/19/129 181/17/129
f 184/23/130 183/30/130 187/22/130
f 184/23/102 188/24/102 186/25/102
f 189/27/10 165/218/10 182/26/10
f 182/26/10 181/28/10 171/211/10
f 190/29/10 179/219/10 183/30/10
f 183/30/10 184/23/10 178/212/10
f 191/31/10 171/211/10 181/28/10
f 183/30/10 179/219/10 191/31/10
f 192/32/10 178/212/10 184/23/10
f 182/26/10 165/218/10 192/32/10
f 158/33/11 24/147/11 175/19/11
f 21/34/12 22/203/12 172/12/12
f 193/35/13 169/220/13 185/36/13
f 185/36/13 186/25/13 167/213/13
f 194/37/13 177/221/13 188/24/13
f 188/24/13 187/22/13 180/214/13
f 195/38/13 180/214/13 187/22/13
f 185/36/13 169/220/13 195/38/13
f 196/39/13 167/213/13 186/25/13
f 188/24/13 177/221/13 196/39/13
f 192/40/21 203/42/21 200/41/21
f 232/44/55 235/99/55 180/43/55
f 201/46/174 209/48/174 212/47/174
f 198/49/20 203/42/20 192/40/20
f 199/52/19 202/57/19 179/51/19
f 200/41/18 199/52/18 190/53/18
f 201/46/17 204/59/17 171/55/17
f 202/57/14 201/46/14 191/56/14
f 204/59/131 197/61/131 189/58/131
f 197/61/132 198/67/132 165/60/132
f 207/62/177 215/64/177 218/63/177
f 204/59/172 212/47/172 205/65/172
f 202/57/173 210/66/173 209/48/173
f 205/65/25 206/79/25 198/67/25
f 211/68/26 208/70/26 200/41/26
f 199/52/175 207/62/175 210/66/175
f 206/69/16 211/68/16 203/42/16
f 208/70/29 207/62/29 199/52/29
f 214/74/206 219/80/206 211/68/206
f 216/75/24 215/64/24 207/62/24
f 209/48/207 217/77/207 220/76/207
f 212/47/208 220/76/208 213/78/208
f 210/66/178 218/63/178 217/77/178
f 213/78/139 214/85/139 206/79/139
f 219/80/37 216/75/37 208/70/37
f 224/83/49 223/71/49 219/80/49
f 222/81/50 217/77/50 218/63/50
f 220/76/43 226/82/43 224/86/43
f 224/86/209 214/85/209 213/78/209
f 216/75/180 227/72/180 225/84/180
f 225/84/210 218/63/210 215/64/210
f 217/77/41 222/81/41 226/82/41
f 223/71/42 227/72/42 216/75/42
f 231/87/183 239/89/183 242/88/183
f 234/91/57 229/215/57 167/90/57
f 228/94/58 233/100/58 169/93/58
f 230/97/56 231/87/56 177/96/56
f 177/96/15 231/87/15 234/91/15
f 235/99/54 230/97/54 194/98/54
f 169/93/52 233/100/52 232/44/52
f 229/101/53 228/94/53 193/95/53
f 249/104/71 248/113/71 240/103/71
f 243/106/62 238/108/62 230/97/62
f 234/91/184 242/88/184 237/107/184
f 230/97/60 238/108/60 239/89/60
f 240/103/51 243/106/51 235/99/51
f 236/109/66 241/105/66 233/100/66
f 241/105/61 240/103/61 232/44/61
f 229/101/64 237/110/64 236/109/64
f 256/112/79 259/127/79 251/111/79
f 237/110/188 245/115/188 244/114/188
f 239/89/187 247/117/187 250/116/187
f 251/111/72 246/119/72 238/108/72
f 242/88/182 250/116/182 245/118/182
f 238/108/186 246/119/186 247/117/186
f 248/113/69 251/111/69 243/106/69
f 244/114/68 249/104/68 241/105/68
f 258/120/191 266/122/191 261/121/191
f 252/123/78 257/124/78 249/104/78
f 257/124/81 256/112/81 248/113/81
f 245/115/76 253/125/76 252/123/76
f 247/117/185 255/126/185 258/120/185
f 259/127/82 254/129/82 246/119/82
f 250/116/189 258/120/189 253/128/189
f 246/119/80 254/129/80 255/126/80
f 254/129/90 262/134/90 263/133/90
f 264/135/89 267/139/89 259/127/89
f 260/136/88 265/137/88 257/124/88
f 265/137/75 264/135/75 256/112/75
f 253/125/86 261/138/86 260/136/86
f 255/126/190 263/133/190 266/122/190
f 267/139/84 262/134/84 254/129/84
f 274/140/211 263/133/211 262/134/211
f 262/134/192 267/139/192 272/131/192
f 261/138/93 271/144/93 273/143/93
f 273/143/212 265/137/212 260/136/212
f 274/140/101 270/141/101 266/122/101
f 273/143/100 269/130/100 264/135/100
f 266/122/97 270/141/97 271/142/97
f 264/135/94 269/130/94 272/131/94
f 282/145/2 117/216/2 115/4/2
f 282/145/2 281/18/2 175/19/2
f 175/19/2 24/147/2 117/216/2
f 284/149/9 285/151/9 282/148/9
f 285/151/2 284/149/2 283/152/2
f 283/152/2 187/22/2 183/30/2
f 183/30/13 286/158/13 285/151/13
f 296/154/9 298/194/9 277/153/9
f 279/156/13 185/36/13 187/22/13
f 183/30/10 181/28/10 281/157/10
f 280/150/13 279/156/13 275/159/13
f 278/161/13 283/152/13 284/149/13
f 284/149/13 280/150/13 276/160/13
f 279/156/13 283/152/13 278/161/13
f 282/148/10 285/151/10 286/158/10
f 289/164/155 290/172/155 312/163/155
f 314/167/213 293/175/213 140/166/213
f 292/170/157 291/173/157 139/169/157
f 291/173/158 292/170/158 290/172/158
f 311/174/214 287/176/214 293/175/214
f 294/178/215 288/222/215 312/177/215
f 293/180/161 287/182/161 288/181/161
f 294/183/162 138/185/162 140/184/162
f 313/179/216 164/187/216 138/186/216
f 299/188/112 300/199/112 296/154/112
f 295/189/12 296/154/12 276/155/12
f 297/191/102 295/189/102 275/190/102
f 298/194/2 297/217/2 278/193/2
f 305/195/102 303/201/102 299/188/102
f 301/196/102 299/188/102 295/189/102
f 298/194/113 302/198/113 301/197/113
f 296/154/9 300/199/9 302/198/9
f 306/200/12 304/202/12 303/201/12
f 306/200/114 305/195/114 301/197/114
f 300/199/9 304/202/9 306/200/9
f 303/201/115 304/202/115 300/199/115
f 22/203/116 158/33/116 309/13/116
f 174/21/217 307/3/217 309/13/217
f 173/15/218 176/6/218 310/8/218
f 170/10/119 310/8/119 157/9/119
f 173/15/166 308/2/166 307/3/166
f 137/204/219 164/187/219 313/179/219
f 313/179/220 312/177/220 290/206/220
f 289/207/221 311/174/221 314/167/221
f 139/208/222 291/209/222 314/167/222
f 311/210/171 312/223/171 288/181/171
