# Blender 5.1.1
# www.blender.org
mtllib Break_Long_Table.mtl
o Table_Long
v 4.344952 4.635878 -1.765790
v 5.159206 4.635878 0.000000
v 0.000000 4.635878 -2.109650
v -5.159206 4.635878 0.000000
v 0.000000 4.635878 2.109650
v 0.000000 4.635878 0.000000
v 4.344952 0.038696 -1.765790
v -5.159206 5.111956 2.001952
v -4.895830 5.111956 2.109650
v -5.123920 5.111956 2.055801
v -5.027518 5.111956 2.095221
v -4.895830 5.111956 -2.109650
v -5.159206 5.111956 -2.001952
v -5.027518 5.111956 -2.095221
v -5.123920 5.111956 -2.055801
v 4.895830 5.111956 2.109650
v 5.159206 5.111956 2.001952
v 5.027518 5.111956 2.095221
v 5.123920 5.111956 2.055801
v 5.159206 5.111956 -2.001952
v 4.895830 5.111956 -2.109650
v 5.123920 5.111956 -2.055801
v 5.027518 5.111956 -2.095221
v 5.159206 4.635878 2.001952
v 4.895830 4.635878 2.109650
v 5.059250 4.635878 2.010010
v 5.123920 4.635878 2.055801
v 5.027518 4.635878 2.095221
v 4.895830 4.635878 -2.109650
v 5.159206 4.635878 -2.001952
v 5.059250 4.635878 -2.010010
v 5.027518 4.635878 -2.095221
v 5.123920 4.635878 -2.055801
v -5.159206 4.635878 -2.001952
v -4.895830 4.635878 -2.109650
v -5.059250 4.635878 -2.010010
v -5.123920 4.635878 -2.055801
v -5.027518 4.635878 -2.095221
v -4.895830 4.635878 2.109650
v -5.159206 4.635878 2.001952
v -5.059250 4.635878 2.010010
v -5.027518 4.635878 2.095221
v -5.123920 4.635878 2.055801
v -4.814255 4.635878 1.712967
v -4.685074 4.635878 1.765790
v -4.863282 4.635878 1.814661
v -4.776419 4.635878 1.750318
v -4.685074 4.635878 -1.765790
v -4.814255 4.635878 -1.712967
v -4.863282 4.635878 -1.814661
v -4.776419 4.635878 -1.750318
v 4.685074 4.635878 1.765790
v 4.814255 4.635878 1.712967
v 4.863282 4.635878 1.814661
v 4.776419 4.635878 1.750318
v 4.814255 4.635878 -1.712967
v 4.685074 4.635878 -1.765790
v 4.863282 4.635878 -1.814661
v 4.776419 4.635878 -1.750318
v -4.814255 4.635878 -1.396683
v -4.685074 4.635878 -1.343860
v -4.827740 4.635878 -1.291325
v -4.776419 4.635878 -1.359331
v 4.814255 4.635878 1.396683
v 4.685074 4.635878 1.343860
v 4.827740 4.635878 1.291325
v 4.776419 4.635878 1.359331
v 4.344952 4.635878 1.712967
v 4.474133 4.635878 1.765790
v 4.218124 4.635878 1.775827
v 4.382788 4.635878 1.750318
v 4.474133 4.635878 1.343860
v 4.344952 4.635878 1.396683
v 4.241923 4.635878 1.311994
v 4.382788 4.635878 1.359331
v -4.474133 4.635878 1.765790
v -4.344952 4.635878 1.712967
v -4.218124 4.635878 1.775827
v -4.382788 4.635878 1.750318
v 4.685074 4.635878 -1.343860
v 4.814255 4.635878 -1.396683
v 4.827740 4.635878 -1.291325
v 4.776419 4.635878 -1.359331
v 4.344952 4.635878 -1.396683
v 4.474133 4.635878 -1.343860
v 4.241923 4.635878 -1.311994
v 4.382788 4.635878 -1.359331
v -4.344952 4.635878 -1.712967
v -4.474133 4.635878 -1.765790
v -4.218124 4.635878 -1.775827
v -4.382788 4.635878 -1.750318
v -4.474133 4.635878 -1.343860
v -4.344952 4.635878 -1.396683
v -4.241923 4.635878 -1.311994
v -4.382788 4.635878 -1.359331
v -4.685074 4.635878 1.343860
v -4.814255 4.635878 1.396683
v -4.827740 4.635878 1.291325
v -4.776419 4.635878 1.359331
v -4.344952 4.635878 1.396683
v -4.474133 4.635878 1.343860
v -4.241923 4.635878 1.311994
v -4.382788 4.635878 1.359331
v 4.474133 0.038696 1.765790
v 4.344952 0.038696 1.712967
v 4.382788 0.038696 1.750318
v 4.814255 0.038696 1.712967
v 4.685074 0.038696 1.765790
v 4.776419 0.038696 1.750318
v 4.685074 0.038696 1.343860
v 4.814255 0.038696 1.396683
v 4.776419 0.038696 1.359331
v 4.344952 0.038696 1.396683
v 4.474133 0.038696 1.343860
v 4.382788 0.038696 1.359331
v 4.814255 0.038696 -1.396683
v 4.685074 0.038696 -1.343860
v 4.776419 0.038696 -1.359331
v 4.685074 0.038696 -1.765790
v 4.814255 0.038696 -1.712967
v 4.776419 0.038696 -1.750318
v 4.474133 0.038696 -1.343860
v 4.344952 0.038696 -1.396683
v 4.382788 0.038696 -1.359331
v -4.474133 0.038696 -1.765790
v -4.344952 0.038696 -1.712967
v -4.382788 0.038696 -1.750318
v -4.814255 0.038696 -1.712967
v -4.685074 0.038696 -1.765790
v -4.776419 0.038696 -1.750318
v -4.685074 0.044657 -1.343860
v -4.814255 0.038696 -1.396683
v -4.776420 0.040442 -1.359331
v -4.474133 0.044657 -1.343860
v -4.344952 0.038696 -1.396683
v -4.382787 0.040442 -1.359331
v -4.814255 0.038696 1.396683
v -4.685074 0.038696 1.343860
v -4.776419 0.038696 1.359331
v -4.685074 0.038696 1.765790
v -4.814255 0.038696 1.712967
v -4.776419 0.038696 1.750318
v -4.344952 0.038696 1.712967
v -4.474133 0.038696 1.765790
v -4.382788 0.038696 1.750318
v -4.474133 0.038696 1.343860
v -4.344952 0.038696 1.396683
v -4.382788 0.038696 1.359331
vn -0.0000 -1.0000 -0.0000
vn -0.1089 -0.0000 0.9941
vn -0.3785 -0.0000 0.9256
vn -0.8364 -0.0000 0.5481
vn -0.1089 -0.0000 -0.9941
vn -0.3785 -0.0000 -0.9256
vn -0.8364 -0.0000 -0.5481
vn 0.8364 -0.0000 -0.5481
vn 0.3785 -0.0000 -0.9256
vn 0.1089 -0.0000 -0.9941
vn 0.1089 -0.0000 0.9941
vn 0.3785 -0.0000 0.9256
vn 0.8364 -0.0000 0.5481
vn -1.0000 -0.0000 -0.0000
vn -0.0000 1.0000 -0.0000
vn -0.0000 -0.0000 1.0000
vn -0.0000 -0.0000 -1.0000
vn 1.0000 -0.0000 -0.0000
vn -0.0000 -0.9648 0.2628
vn -0.0000 -0.9989 0.0467
vn 0.7025 -0.0000 -0.7117
vn 0.1670 -0.0000 -0.9860
vn -0.7025 -0.0000 -0.7117
vn -0.1670 -0.0000 -0.9860
vn 0.1670 -0.0000 0.9860
vn 0.7025 -0.0000 0.7117
vn -0.7025 -0.0000 0.7117
vn -0.1670 -0.0000 0.9860
vn 0.7025 -0.0000 -0.7116
vn -0.7025 -0.0000 0.7116
vn 0.7025 -0.0000 0.7116
vn -0.7025 -0.0000 -0.7116
vt 0.588243 0.904902
vt 0.587589 0.904729
vt 0.588145 0.904414
vt 0.587109 0.904259
vt 0.586934 0.903616
vt 0.638234 0.903616
vt 0.638059 0.904259
vt 0.637022 0.904414
vt 0.637579 0.904729
vt 0.636925 0.904902
vt 0.636925 0.854544
vt 0.637579 0.854716
vt 0.637022 0.855031
vt 0.638059 0.855186
vt 0.638234 0.855829
vt 0.586934 0.855829
vt 0.587109 0.855186
vt 0.588145 0.855031
vt 0.587589 0.854716
vt 0.588243 0.854544
vt 0.916363 0.854544
vt 0.917041 0.904902
vt 0.916363 0.904902
vt 0.760454 0.932352
vt 0.761132 0.982710
vt 0.760454 0.982710
vt 0.789096 0.932352
vt 0.789773 0.982710
vt 0.789096 0.982710
vt 0.818415 0.982710
vt 0.817737 0.932352
vt 0.818415 0.932352
vt 0.847057 0.982710
vt 0.846379 0.932352
vt 0.847057 0.932352
vt 0.875699 0.982710
vt 0.875021 0.932352
vt 0.875699 0.932352
vt 0.904341 0.982710
vt 0.903663 0.932352
vt 0.904341 0.932352
vt 0.932983 0.982710
vt 0.932305 0.932352
vt 0.932983 0.932352
vt 0.945683 0.904902
vt 0.945005 0.854544
vt 0.945683 0.854544
vt 0.961625 0.982710
vt 0.960947 0.932352
vt 0.961625 0.932352
vt 0.974325 0.904902
vt 0.973647 0.854544
vt 0.974325 0.854544
vt 0.990267 0.982710
vt 0.989589 0.932352
vt 0.990267 0.932352
vt 0.732490 0.854544
vt 0.708149 0.904902
vt 0.683808 0.904902
vt 0.810444 0.904902
vt 0.760454 0.903616
vt 0.761763 0.854544
vt 0.839718 0.854544
vt 0.888399 0.904902
vt 0.864059 0.904902
vt 0.586934 0.932352
vt 0.635615 0.982710
vt 0.611274 0.982710
vt 0.683808 0.932352
vt 0.732490 0.982710
vt 0.708149 0.982710
vt 0.591757 0.856227
vt 0.591303 0.856412
vt 0.590521 0.855988
vt 0.591115 0.856858
vt 0.634053 0.856858
vt 0.633865 0.856412
vt 0.634647 0.855988
vt 0.633411 0.856227
vt 0.591115 0.902588
vt 0.591303 0.903033
vt 0.590521 0.903457
vt 0.591757 0.903218
vt 0.633411 0.903218
vt 0.633865 0.903033
vt 0.634647 0.903457
vt 0.634053 0.902588
vt 0.629565 0.856227
vt 0.629111 0.856412
vt 0.628284 0.856161
vt 0.628923 0.856858
vt 0.595602 0.903218
vt 0.596057 0.903033
vt 0.596883 0.903284
vt 0.596245 0.902588
vt 0.591757 0.900928
vt 0.591303 0.901112
vt 0.590993 0.900309
vt 0.591115 0.901558
vt 0.596245 0.901558
vt 0.596057 0.901112
vt 0.596632 0.900425
vt 0.595602 0.900928
vt 0.591115 0.857887
vt 0.591303 0.858333
vt 0.590993 0.859137
vt 0.591757 0.858518
vt 0.628923 0.902588
vt 0.629111 0.903033
vt 0.628284 0.903284
vt 0.629565 0.903218
vt 0.629565 0.900928
vt 0.629111 0.901112
vt 0.628536 0.900425
vt 0.628923 0.901558
vt 0.633411 0.858518
vt 0.633865 0.858333
vt 0.634175 0.859137
vt 0.634053 0.857887
vt 0.628923 0.857887
vt 0.629111 0.858333
vt 0.628536 0.859020
vt 0.629565 0.858518
vt 0.596245 0.856858
vt 0.596057 0.856412
vt 0.596883 0.856161
vt 0.595602 0.856227
vt 0.595602 0.858518
vt 0.596057 0.858333
vt 0.596632 0.859020
vt 0.596245 0.857887
vt 0.469414 0.509837
vt 0.469906 0.511312
vt 0.469414 0.510867
vt 0.440959 0.509576
vt 0.441450 0.511682
vt 0.440959 0.511497
vt 0.573165 0.486275
vt 0.572674 0.000000
vt 0.573165 0.000000
vt 0.459343 0.486275
vt 0.458851 0.000000
vt 0.459343 0.000000
vt 0.686496 0.000000
vt 0.686988 0.486275
vt 0.686496 0.486275
vt 0.085367 0.513725
vt 0.085858 1.000000
vt 0.085367 1.000000
vt 0.256592 0.999369
vt 0.256101 0.513725
vt 0.256592 0.513725
vt 0.715444 0.486090
vt 0.714952 0.000000
vt 0.715444 0.000000
vt 0.601129 0.000000
vt 0.601621 0.486275
vt 0.601129 0.486275
vt 0.629585 0.000000
vt 0.630077 0.486275
vt 0.629585 0.486275
vt 0.743899 0.486275
vt 0.743408 0.000000
vt 0.743899 0.000000
vt 0.114314 1.000000
vt 0.113823 0.513725
vt 0.114314 0.513725
vt 0.142278 0.513725
vt 0.142770 1.000000
vt 0.142278 1.000000
vt 0.771863 0.000000
vt 0.772355 0.486275
vt 0.771863 0.486275
vt 0.171225 1.000000
vt 0.170734 0.513725
vt 0.171225 0.513725
vt 0.800811 0.486275
vt 0.800319 0.000000
vt 0.800811 0.000000
vt 0.487307 0.000000
vt 0.487798 0.486275
vt 0.487307 0.486275
vt 0.658041 0.000000
vt 0.658532 0.486275
vt 0.658041 0.486275
vt 0.199681 0.513725
vt 0.199189 0.999815
vt 0.199189 0.513725
vt 0.228137 0.513725
vt 0.227645 0.999369
vt 0.227645 0.513725
vt 0.828775 0.000000
vt 0.829266 0.486275
vt 0.828775 0.486275
vt 0.857230 0.000000
vt 0.857722 0.486275
vt 0.857230 0.486275
vt 0.886177 0.486275
vt 0.885686 0.000000
vt 0.886177 0.000000
vt 0.914633 0.486275
vt 0.914141 0.000000
vt 0.914633 0.000000
vt 0.942597 0.000000
vt 0.943089 0.486275
vt 0.942597 0.486275
vt 0.971053 0.000000
vt 0.971544 0.486275
vt 0.971053 0.486275
vt 0.515762 0.000000
vt 0.516254 0.486275
vt 0.515762 0.486275
vt 0.544218 0.000000
vt 0.544710 0.486275
vt 0.544218 0.486275
vt 0.999508 0.000000
vt 1.000000 0.486275
vt 0.999508 0.486275
vt 0.000000 0.513725
vt 0.000492 1.000000
vt 0.000000 1.000000
vt 0.028456 0.513725
vt 0.028947 1.000000
vt 0.028456 1.000000
vt 0.056911 0.513725
vt 0.057403 1.000000
vt 0.056911 1.000000
vt 0.036297 0.000000
vt 0.032452 0.486275
vt 0.032452 0.000000
vt 0.285823 0.000000
vt 0.284774 0.486275
vt 0.284774 0.000000
vt 0.314836 0.000000
vt 0.313787 0.486275
vt 0.313787 0.000000
vt 0.068107 0.000000
vt 0.064261 0.486275
vt 0.064261 0.000000
vt 0.343849 0.000000
vt 0.342800 0.486275
vt 0.342800 0.000000
vt 0.099917 0.000000
vt 0.096071 0.486275
vt 0.096071 0.000000
vt 0.131726 0.000000
vt 0.127881 0.486275
vt 0.127881 0.000000
vt 0.638234 0.879723
vt 0.256810 0.000000
vt 0.255119 0.486275
vt 0.255119 0.000000
vt 0.285823 0.513725
vt 0.284774 0.999370
vt 0.284774 0.513725
vt 0.612584 0.854544
vt 0.372861 0.000000
vt 0.371813 0.486275
vt 0.371813 0.000000
vt 0.612584 0.904902
vt 0.163536 0.000000
vt 0.159690 0.486275
vt 0.159690 0.000000
vt 0.612584 0.879723
vt 0.195345 0.000000
vt 0.191500 0.486275
vt 0.191500 0.000000
vt 0.586934 0.879723
vt 0.401874 0.000000
vt 0.400825 0.486275
vt 0.400825 0.000000
vt 0.004488 0.000000
vt 0.000000 0.486275
vt 0.000000 0.000000
vt 0.227155 0.000000
vt 0.223309 0.486275
vt 0.223309 0.000000
vt 0.430887 0.000000
vt 0.429838 0.486275
vt 0.429838 0.000000
vt 0.314429 0.514427
vt 0.313975 0.509576
vt 0.316120 0.510022
vt 0.344084 0.513797
vt 0.345775 0.509391
vt 0.346418 0.510022
vt 0.411304 0.513797
vt 0.410661 0.513166
vt 0.412995 0.509391
vt 0.375024 0.514427
vt 0.374570 0.509576
vt 0.376715 0.510022
vt 0.917041 0.854544
vt 0.761132 0.932352
vt 0.789773 0.932352
vt 0.817737 0.982710
vt 0.846379 0.982710
vt 0.875021 0.982710
vt 0.903663 0.982710
vt 0.932305 0.982710
vt 0.945005 0.904902
vt 0.960947 0.982710
vt 0.973647 0.904902
vt 0.989589 0.982710
vt 0.683808 0.854544
vt 0.732490 0.904902
vt 0.810444 0.854544
vt 0.811099 0.854716
vt 0.811578 0.855186
vt 0.811754 0.855829
vt 0.811754 0.903616
vt 0.811578 0.904259
vt 0.811099 0.904729
vt 0.761763 0.904902
vt 0.761108 0.904729
vt 0.760629 0.904259
vt 0.760454 0.855829
vt 0.760629 0.855186
vt 0.761108 0.854716
vt 0.839718 0.904902
vt 0.888399 0.854544
vt 0.586934 0.982710
vt 0.635615 0.932352
vt 0.683808 0.982710
vt 0.732490 0.932352
vt 0.469906 0.509391
vt 0.441450 0.509391
vt 0.572674 0.486275
vt 0.458851 0.486275
vt 0.686988 0.000000
vt 0.085858 0.513725
vt 0.256101 0.999815
vt 0.714952 0.486275
vt 0.601621 0.000000
vt 0.630077 0.000000
vt 0.743408 0.486275
vt 0.113823 1.000000
vt 0.142770 0.513725
vt 0.772355 0.000000
vt 0.170734 1.000000
vt 0.800319 0.486275
vt 0.487798 0.000000
vt 0.658532 0.000000
vt 0.199681 1.000000
vt 0.228137 0.999815
vt 0.829266 0.000000
vt 0.857722 0.000000
vt 0.885686 0.486275
vt 0.914141 0.486275
vt 0.943089 0.000000
vt 0.971544 0.000000
vt 0.516254 0.000000
vt 0.544710 0.000000
vt 1.000000 0.000000
vt 0.000492 0.513725
vt 0.028947 0.513725
vt 0.057403 0.513725
vt 0.036297 0.486275
vt 0.285823 0.486275
vt 0.314836 0.486275
vt 0.068107 0.486275
vt 0.343849 0.486275
vt 0.099917 0.486275
vt 0.131726 0.486275
vt 0.634053 0.900928
vt 0.256810 0.486275
vt 0.285823 0.999370
vt 0.372861 0.486275
vt 0.163536 0.486275
vt 0.195345 0.486275
vt 0.401874 0.486275
vt 0.004488 0.486275
vt 0.227155 0.486275
vt 0.430887 0.486275
vt 0.316120 0.513797
vt 0.315932 0.514242
vt 0.315478 0.514427
vt 0.313975 0.514242
vt 0.313787 0.513797
vt 0.313787 0.510022
vt 0.314429 0.509391
vt 0.315478 0.509391
vt 0.315932 0.509576
vt 0.346418 0.514427
vt 0.344727 0.514427
vt 0.344272 0.514242
vt 0.344084 0.510022
vt 0.344272 0.509576
vt 0.344727 0.509391
vt 0.346229 0.509576
vt 0.412995 0.513166
vt 0.412807 0.513612
vt 0.412352 0.513797
vt 0.410850 0.513612
vt 0.410661 0.509391
vt 0.376715 0.513797
vt 0.376527 0.514242
vt 0.376073 0.514427
vt 0.374570 0.514242
vt 0.374382 0.513797
vt 0.374382 0.510022
vt 0.375024 0.509391
vt 0.376073 0.509391
vt 0.376527 0.509576
s 0
usemtl Material.002
f 24/1/1 27/2/1 26/3/1
f 27/2/1 28/4/1 26/3/1
f 28/4/1 25/5/1 26/3/1
f 29/6/1 32/7/1 31/8/1
f 32/7/1 33/9/1 31/8/1
f 33/9/1 30/10/1 31/8/1
f 34/11/1 37/12/1 36/13/1
f 37/12/1 38/14/1 36/13/1
f 38/14/1 35/15/1 36/13/1
f 39/16/1 42/17/1 41/18/1
f 42/17/1 43/19/1 41/18/1
f 43/19/1 40/20/1 41/18/1
f 9/21/2 42/22/2 39/23/2
f 11/24/3 43/25/3 42/26/3
f 10/27/4 40/28/4 43/29/4
f 35/30/5 14/31/5 12/32/5
f 38/33/6 15/34/6 14/35/6
f 37/36/7 13/37/7 15/38/7
f 30/39/8 22/40/8 20/41/8
f 33/42/9 23/43/9 22/44/9
f 32/45/10 21/46/10 23/47/10
f 25/48/11 18/49/11 16/50/11
f 28/51/12 19/52/12 18/53/12
f 27/54/13 17/55/13 19/56/13
f 13/57/14 4/58/14 40/59/14
f 13/60/15 9/61/15 17/62/15
f 16/63/16 39/64/16 5/65/16
f 12/66/17 29/67/17 3/68/17
f 20/69/18 24/70/18 2/71/18
f 44/72/1 47/73/1 46/74/1
f 47/73/1 45/75/1 46/74/1
f 48/76/1 51/77/1 50/78/1
f 51/77/1 49/79/1 50/78/1
f 52/80/1 55/81/1 54/82/1
f 55/81/1 53/83/1 54/82/1
f 56/84/1 59/85/1 58/86/1
f 59/85/1 57/87/1 58/86/1
f 60/88/1 63/89/1 62/90/1
f 63/89/1 61/91/1 62/90/1
f 64/92/1 67/93/1 66/94/1
f 67/93/1 65/95/1 66/94/1
f 68/96/1 71/97/1 70/98/1
f 71/97/1 69/99/1 70/98/1
f 72/100/1 75/101/1 74/102/1
f 75/101/1 73/103/1 74/102/1
f 76/104/1 79/105/1 78/106/1
f 79/105/1 77/107/1 78/106/1
f 80/108/1 83/109/1 82/110/1
f 83/109/1 81/111/1 82/110/1
f 84/112/1 87/113/1 86/114/1
f 87/113/1 85/115/1 86/114/1
f 88/116/1 91/117/1 90/118/1
f 91/117/1 89/119/1 90/118/1
f 92/120/1 95/121/1 94/122/1
f 95/121/1 93/123/1 94/122/1
f 96/124/1 99/125/1 98/126/1
f 99/125/1 97/127/1 98/126/1
f 100/128/1 103/129/1 102/130/1
f 103/129/1 101/131/1 102/130/1
f 131/132/19 136/133/19 134/134/19
f 133/135/20 135/136/20 136/137/20
f 111/138/21 67/139/21 64/140/21
f 112/141/22 65/142/22 67/143/22
f 73/144/23 115/145/23 113/146/23
f 75/147/24 114/148/24 115/149/24
f 134/150/25 95/151/25 92/152/25
f 136/153/26 93/154/26 95/155/26
f 89/156/22 127/157/22 125/158/22
f 91/159/21 126/160/21 127/161/21
f 123/162/27 87/163/27 84/164/27
f 124/165/28 85/166/28 87/167/28
f 81/168/26 118/169/26 116/170/26
f 83/171/25 117/172/25 118/173/25
f 144/174/25 79/175/25 76/176/25
f 145/177/26 77/178/26 79/179/26
f 101/180/22 148/181/22 146/182/22
f 103/183/21 147/184/21 148/185/21
f 60/186/27 133/187/27 63/188/27
f 63/189/28 131/190/28 61/191/28
f 97/192/23 139/193/23 137/194/23
f 99/195/24 138/196/24 139/197/24
f 105/198/27 71/199/27 68/200/27
f 106/201/28 69/202/28 71/203/28
f 53/204/26 109/205/26 107/206/26
f 55/207/25 108/208/25 109/209/25
f 57/210/22 121/211/22 119/212/22
f 59/213/29 120/214/29 121/215/29
f 49/216/23 130/217/23 128/218/23
f 51/219/24 129/220/24 130/221/24
f 45/222/28 142/223/28 140/224/28
f 47/225/30 141/226/30 142/227/30
f 97/127/1 46/74/1 40/20/1
f 97/228/14 141/229/14 44/230/14
f 45/75/1 78/106/1 39/16/1
f 45/231/16 144/232/16 76/233/16
f 89/119/1 50/78/1 35/15/1
f 89/234/17 129/235/17 48/236/17
f 49/79/1 62/90/1 34/11/1
f 49/237/14 132/238/14 60/239/14
f 69/99/1 54/82/1 25/5/1
f 69/240/16 108/241/16 52/242/16
f 53/83/1 66/94/1 24/1/1
f 53/243/18 111/244/18 64/245/18
f 81/111/1 58/86/1 30/10/1
f 81/246/18 120/247/18 56/248/18
f 57/87/1 3/249/1 31/8/1
f 57/250/17 7/251/17 1/252/17
f 61/253/16 134/254/16 92/255/16
f 61/91/1 94/122/1 4/256/1
f 65/257/17 114/258/17 72/259/17
f 65/95/1 74/102/1 2/260/1
f 73/261/14 105/262/14 68/263/14
f 73/103/1 70/98/1 6/264/1
f 77/265/18 147/266/18 100/267/18
f 77/107/1 102/130/1 5/268/1
f 85/269/16 117/270/16 80/271/16
f 85/115/1 82/110/1 6/264/1
f 1/272/14 123/273/14 84/274/14
f 84/112/1 6/264/1 3/249/1
f 93/275/18 126/276/18 88/277/18
f 93/123/1 90/118/1 6/264/1
f 101/278/17 138/279/17 96/280/17
f 101/131/1 98/126/1 6/264/1
f 110/281/1 109/282/1 105/283/1
f 120/284/1 122/285/1 123/286/1
f 125/287/1 126/288/1 132/289/1
f 146/290/1 145/291/1 141/292/1
f 9/21/2 11/293/2 42/22/2
f 11/24/3 10/294/3 43/25/3
f 10/27/4 8/295/4 40/28/4
f 35/30/5 38/296/5 14/31/5
f 38/33/6 37/297/6 15/34/6
f 37/36/7 34/298/7 13/37/7
f 30/39/8 33/299/8 22/40/8
f 33/42/9 32/300/9 23/43/9
f 32/45/10 29/301/10 21/46/10
f 25/48/11 28/302/11 18/49/11
f 28/51/12 27/303/12 19/52/12
f 27/54/13 24/304/13 17/55/13
f 40/59/14 8/305/14 13/57/14
f 13/57/14 34/306/14 4/58/14
f 17/62/15 20/307/15 22/308/15
f 22/308/15 23/309/15 21/310/15
f 21/310/15 12/311/15 14/312/15
f 14/312/15 15/313/15 13/60/15
f 13/60/15 8/314/15 10/315/15
f 10/315/15 11/316/15 9/61/15
f 9/61/15 16/317/15 18/318/15
f 18/318/15 19/319/15 17/62/15
f 17/62/15 22/308/15 21/310/15
f 21/310/15 14/312/15 13/60/15
f 13/60/15 10/315/15 9/61/15
f 9/61/15 18/318/15 17/62/15
f 17/62/15 21/310/15 13/60/15
f 5/65/16 25/320/16 16/63/16
f 16/63/16 9/321/16 39/64/16
f 3/68/17 35/322/17 12/66/17
f 12/66/17 21/323/17 29/67/17
f 2/71/18 30/324/18 20/69/18
f 20/69/18 17/325/18 24/70/18
f 131/132/19 133/326/19 136/133/19
f 133/135/20 132/327/20 135/136/20
f 111/138/29 112/328/29 67/139/29
f 112/141/22 110/329/22 65/142/22
f 73/144/23 75/330/23 115/145/23
f 75/147/24 72/331/24 114/148/24
f 134/150/25 136/332/25 95/151/25
f 136/153/31 135/333/31 93/154/31
f 89/156/22 91/334/22 127/157/22
f 91/159/21 88/335/21 126/160/21
f 123/162/27 124/336/27 87/163/27
f 124/165/28 122/337/28 85/166/28
f 81/168/31 83/338/31 118/169/31
f 83/171/25 80/339/25 117/172/25
f 144/174/25 145/340/25 79/175/25
f 145/177/26 143/341/26 77/178/26
f 101/180/22 103/342/22 148/181/22
f 103/183/21 100/343/21 147/184/21
f 60/186/30 132/344/30 133/187/30
f 63/189/28 133/345/28 131/190/28
f 97/192/32 99/346/32 139/193/32
f 99/195/24 96/347/24 138/196/24
f 105/198/27 106/348/27 71/199/27
f 106/201/28 104/349/28 69/202/28
f 53/204/31 55/350/31 109/205/31
f 55/207/25 52/351/25 108/208/25
f 57/210/22 59/352/22 121/211/22
f 59/213/21 56/353/21 120/214/21
f 49/216/32 51/354/32 130/217/32
f 51/219/24 48/355/24 129/220/24
f 45/222/28 47/356/28 142/223/28
f 47/225/27 44/357/27 141/226/27
f 4/256/1 98/126/1 97/127/1
f 97/127/1 44/72/1 46/74/1
f 46/74/1 41/18/1 40/20/1
f 40/20/1 4/256/1 97/127/1
f 97/228/14 137/358/14 141/229/14
f 41/18/1 46/74/1 45/75/1
f 45/75/1 76/104/1 78/106/1
f 78/106/1 5/268/1 39/16/1
f 39/16/1 41/18/1 45/75/1
f 45/231/16 140/359/16 144/232/16
f 3/249/1 90/118/1 89/119/1
f 89/119/1 48/76/1 50/78/1
f 50/78/1 36/13/1 35/15/1
f 35/15/1 3/249/1 89/119/1
f 89/234/17 125/360/17 129/235/17
f 36/13/1 50/78/1 49/79/1
f 49/79/1 60/88/1 62/90/1
f 62/90/1 4/256/1 34/11/1
f 34/11/1 36/13/1 49/79/1
f 49/237/14 128/361/14 132/238/14
f 5/268/1 70/98/1 69/99/1
f 69/99/1 52/80/1 54/82/1
f 54/82/1 26/3/1 25/5/1
f 25/5/1 5/268/1 69/99/1
f 69/240/16 104/362/16 108/241/16
f 26/3/1 54/82/1 53/83/1
f 53/83/1 64/92/1 66/94/1
f 66/94/1 2/260/1 24/1/1
f 24/1/1 26/3/1 53/83/1
f 53/243/18 107/363/18 111/244/18
f 2/260/1 82/110/1 81/111/1
f 81/111/1 56/84/1 58/86/1
f 58/86/1 31/8/1 30/10/1
f 30/10/1 2/260/1 81/111/1
f 81/246/18 116/364/18 120/247/18
f 31/8/1 58/86/1 57/87/1
f 57/87/1 1/365/1 3/249/1
f 3/249/1 29/6/1 31/8/1
f 57/250/17 119/366/17 7/251/17
f 61/253/16 131/367/16 134/254/16
f 4/256/1 62/90/1 61/91/1
f 61/91/1 92/120/1 94/122/1
f 94/122/1 6/264/1 4/256/1
f 65/257/17 110/368/17 114/258/17
f 2/260/1 66/94/1 65/95/1
f 65/95/1 72/100/1 74/102/1
f 74/102/1 6/264/1 2/260/1
f 73/261/14 113/369/14 105/262/14
f 6/264/1 74/102/1 73/103/1
f 73/103/1 68/96/1 70/98/1
f 70/98/1 5/268/1 6/264/1
f 77/265/18 143/370/18 147/266/18
f 5/268/1 78/106/1 77/107/1
f 77/107/1 100/128/1 102/130/1
f 102/130/1 6/264/1 5/268/1
f 85/269/16 122/371/16 117/270/16
f 6/264/1 86/114/1 85/115/1
f 85/115/1 80/108/1 82/110/1
f 82/110/1 2/260/1 6/264/1
f 1/272/14 7/372/14 123/273/14
f 3/249/1 1/365/1 84/112/1
f 84/112/1 86/114/1 6/264/1
f 93/275/18 135/373/18 126/276/18
f 6/264/1 94/122/1 93/123/1
f 93/123/1 88/116/1 90/118/1
f 90/118/1 3/249/1 6/264/1
f 101/278/17 146/374/17 138/279/17
f 6/264/1 102/130/1 101/131/1
f 101/131/1 96/124/1 98/126/1
f 98/126/1 4/256/1 6/264/1
f 105/283/1 113/375/1 115/376/1
f 115/376/1 114/377/1 110/281/1
f 110/281/1 112/378/1 111/379/1
f 111/379/1 107/380/1 109/282/1
f 109/282/1 108/381/1 104/382/1
f 104/382/1 106/383/1 105/283/1
f 105/283/1 115/376/1 110/281/1
f 110/281/1 111/379/1 109/282/1
f 109/282/1 104/382/1 105/283/1
f 123/286/1 7/384/1 119/385/1
f 119/385/1 121/386/1 120/284/1
f 120/284/1 116/387/1 118/388/1
f 118/388/1 117/389/1 122/285/1
f 122/285/1 124/390/1 123/286/1
f 123/286/1 119/385/1 120/284/1
f 120/284/1 118/388/1 122/285/1
f 132/289/1 128/391/1 130/392/1
f 130/392/1 129/393/1 125/287/1
f 125/287/1 127/394/1 126/288/1
f 126/288/1 135/395/1 132/289/1
f 132/289/1 130/392/1 125/287/1
f 141/292/1 137/396/1 139/397/1
f 139/397/1 138/398/1 146/290/1
f 146/290/1 148/399/1 147/400/1
f 147/400/1 143/401/1 145/291/1
f 145/291/1 144/402/1 140/403/1
f 140/403/1 142/404/1 141/292/1
f 141/292/1 139/397/1 146/290/1
f 146/290/1 147/400/1 145/291/1
f 145/291/1 140/403/1 141/292/1
