# Blender 5.1.1
# www.blender.org
mtllib Curtain.mtl
o Curtain
v 5.928562 0.511536 8.523970
v 2.609298 0.511536 8.495447
v -0.882106 0.511536 8.490229
v -3.285532 0.511535 10.547136
v -2.426512 0.511535 14.157902
v -3.285532 0.511535 16.779293
v -3.285532 21.852707 16.779293
v -2.426512 20.103308 14.157902
v -3.285532 20.154032 10.547135
v -0.882106 21.938801 8.490229
v 2.609300 20.154032 8.495447
v 5.928563 21.938801 8.523970
v -2.243534 0.511535 16.779293
v -1.384513 0.511535 14.157902
v -2.243534 0.511535 11.536510
v -0.882106 0.511536 9.532228
v 2.609300 0.511536 9.537447
v 5.928563 0.511536 9.565968
v 5.928562 21.938801 9.565968
v 2.609298 20.154032 9.537447
v -0.882106 21.938801 9.532228
v -2.243534 20.154032 11.536511
v -1.384513 20.103308 14.157902
v -2.243534 21.852707 16.779293
v -0.766326 23.187397 9.524307
v -0.766326 23.921356 9.524307
v -0.766326 23.187397 8.499731
v -0.766326 23.921356 8.499731
v 7.465113 23.187397 9.524307
v 7.465113 23.921356 9.524307
v 7.465113 23.187397 8.499731
v 7.465113 23.921356 8.499731
v -3.247007 23.187397 11.618093
v -2.222431 23.187397 11.618093
v -2.222431 23.921356 11.618093
v -3.247007 23.921356 11.618093
v -3.247007 23.187397 16.995224
v -2.222431 23.187397 16.995224
v -2.222431 23.921356 16.995224
v -3.247007 23.921356 16.995224
v -1.036083 22.239775 16.429615
v -1.135357 22.239775 16.189945
v -1.375028 22.239775 16.090668
v -1.614699 22.239775 16.189945
v -1.713974 22.239775 16.429615
v -1.614699 22.239775 16.669285
v -1.375028 22.239775 16.768560
v -1.135357 22.239775 16.669285
v -1.359748 21.243639 16.429615
v -1.440062 21.301991 16.189945
v -1.633960 21.442867 16.090668
v -1.827857 21.583740 16.189945
v -1.908173 21.642094 16.429615
v -1.827857 21.583740 16.669285
v -1.633960 21.442867 16.768560
v -1.440062 21.301991 16.669285
v -2.207110 20.627993 16.429615
v -2.237788 20.722410 16.189945
v -2.311851 20.950348 16.090668
v -2.385913 21.178289 16.189945
v -2.416591 21.272705 16.429615
v -2.385913 21.178289 16.669285
v -2.311851 20.950348 16.768560
v -2.237788 20.722410 16.669285
v -3.254511 20.627993 16.429615
v -3.223833 20.722410 16.189945
v -3.149771 20.950348 16.090668
v -3.075709 21.178289 16.189945
v -3.045031 21.272705 16.429615
v -3.075709 21.178289 16.669285
v -3.149771 20.950348 16.768560
v -3.223833 20.722410 16.669285
v -4.101875 21.243639 16.429615
v -4.021560 21.301991 16.189945
v -3.827662 21.442867 16.090668
v -3.633765 21.583740 16.189945
v -3.553450 21.642094 16.429615
v -3.633765 21.583740 16.669285
v -3.827662 21.442867 16.768560
v -4.021560 21.301991 16.669285
v -4.425538 22.239775 16.429615
v -4.326263 22.239775 16.189945
v -4.086594 22.239775 16.090668
v -3.846923 22.239775 16.189945
v -3.747648 22.239775 16.429615
v -3.846923 22.239775 16.669285
v -4.086594 22.239775 16.768560
v -4.326263 22.239775 16.669285
v -4.101875 23.235909 16.429615
v -4.021560 23.177559 16.189945
v -3.827662 23.036684 16.090668
v -3.633765 22.895809 16.189945
v -3.553450 22.837458 16.429615
v -3.633765 22.895809 16.669285
v -3.827662 23.036684 16.768560
v -4.021560 23.177559 16.669285
v -3.254511 23.851559 16.429615
v -3.223833 23.757145 16.189945
v -3.149771 23.529202 16.090668
v -3.075709 23.301262 16.189945
v -3.045031 23.206842 16.429615
v -3.075709 23.301262 16.669285
v -3.149771 23.529202 16.768560
v -3.223833 23.757145 16.669285
v -2.207110 23.851559 16.429615
v -2.237788 23.757145 16.189945
v -2.311851 23.529202 16.090668
v -2.385913 23.301262 16.189945
v -2.416591 23.206842 16.429615
v -2.385913 23.301262 16.669285
v -2.311851 23.529202 16.768560
v -2.237788 23.757145 16.669285
v -1.359748 23.235912 16.429615
v -1.440062 23.177563 16.189945
v -1.633960 23.036684 16.090668
v -1.827858 22.895813 16.189945
v -1.908173 22.837458 16.429615
v -1.827858 22.895813 16.669285
v -1.633960 23.036684 16.768560
v -1.440062 23.177563 16.669285
v 0.286861 22.252430 10.445580
v 0.386137 22.252430 10.205910
v 0.286862 22.252430 9.966238
v 0.047191 22.252430 9.866964
v -0.192480 22.252430 9.966239
v -0.291755 22.252430 10.205910
v -0.192480 22.252430 10.445580
v 0.047191 22.252430 10.544855
v 0.057996 21.256294 10.216715
v 0.170678 21.314646 9.990451
v 0.103770 21.455521 9.783146
v -0.103535 21.596397 9.716238
v -0.329800 21.654747 9.828919
v -0.442480 21.596397 10.055184
v -0.375572 21.455521 10.262487
v -0.168268 21.314646 10.329397
v -0.541180 20.640648 9.617538
v -0.393400 20.735065 9.426373
v -0.375571 20.963001 9.303804
v -0.498140 21.190945 9.321633
v -0.689305 21.285360 9.469414
v -0.837086 21.190945 9.660579
v -0.854914 20.963001 9.783147
v -0.732345 20.735065 9.765319
v -1.281804 20.640648 8.876915
v -1.090638 20.735065 8.729136
v -0.968071 20.963001 8.711306
v -0.985899 21.190945 8.833874
v -1.133679 21.285360 9.025040
v -1.324845 21.190945 9.172820
v -1.447413 20.963001 9.190648
v -1.429584 20.735065 9.068081
v -1.880981 21.256294 8.277739
v -1.654717 21.314646 8.165056
v -1.447412 21.455521 8.231964
v -1.380504 21.596397 8.439269
v -1.493186 21.654747 8.665533
v -1.719450 21.596397 8.778215
v -1.926754 21.455521 8.711307
v -1.993662 21.314646 8.504002
v -2.109846 22.252430 8.048874
v -1.870175 22.252430 7.949599
v -1.630504 22.252430 8.048872
v -1.531230 22.252430 8.288544
v -1.630505 22.252430 8.528214
v -1.870175 22.252430 8.627489
v -2.109846 22.252430 8.528214
v -2.209121 22.252430 8.288544
v -1.880981 23.248566 8.277739
v -1.654717 23.190214 8.165056
v -1.447412 23.049339 8.231964
v -1.380504 22.908463 8.439269
v -1.493186 22.850113 8.665533
v -1.719450 22.908463 8.778215
v -1.926754 23.049339 8.711307
v -1.993662 23.190214 8.504002
v -1.281804 23.864216 8.876915
v -1.090638 23.769798 8.729136
v -0.968071 23.541859 8.711306
v -0.985899 23.313915 8.833874
v -1.133679 23.219498 9.025040
v -1.324845 23.313915 9.172820
v -1.447413 23.541859 9.190648
v -1.429584 23.769798 9.068081
v -0.541180 23.864216 9.617538
v -0.393400 23.769798 9.426373
v -0.375571 23.541859 9.303804
v -0.498140 23.313915 9.321633
v -0.689305 23.219498 9.469414
v -0.837086 23.313915 9.660579
v -0.854914 23.541859 9.783147
v -0.732345 23.769798 9.765319
v 0.057996 23.248569 10.216715
v 0.170678 23.190216 9.990451
v 0.103770 23.049339 9.783146
v -0.103535 22.908466 9.716238
v -0.329800 22.850113 9.828919
v -0.442481 22.908466 10.055183
v -0.375572 23.049339 10.262487
v -0.168268 23.190216 10.329397
v 5.430101 22.252430 10.941955
v 5.669772 22.252430 10.842680
v 5.769048 22.252430 10.603009
v 5.669772 22.252430 10.363338
v 5.430101 22.252430 10.264063
v 5.190431 22.252430 10.363338
v 5.091155 22.252430 10.603009
v 5.190431 22.252430 10.842680
v 5.430101 21.256294 10.618290
v 5.669772 21.314646 10.537975
v 5.769048 21.455521 10.344078
v 5.669772 21.596397 10.150181
v 5.430101 21.654747 10.069864
v 5.190431 21.596397 10.150181
v 5.091155 21.455521 10.344078
v 5.190431 21.314646 10.537975
v 5.430101 20.640648 9.770927
v 5.669772 20.735065 9.740250
v 5.769048 20.963001 9.666187
v 5.669772 21.190945 9.592125
v 5.430100 21.285360 9.561447
v 5.190431 21.190945 9.592124
v 5.091155 20.963001 9.666187
v 5.190431 20.735065 9.740250
v 5.430101 20.640648 8.723526
v 5.669772 20.735065 8.754206
v 5.769048 20.963001 8.828266
v 5.669772 21.190945 8.902328
v 5.430101 21.285360 8.933007
v 5.190431 21.190945 8.902328
v 5.091155 20.963001 8.828266
v 5.190431 20.735065 8.754206
v 5.430101 21.256294 7.876163
v 5.669772 21.314646 7.956477
v 5.769048 21.455521 8.150375
v 5.669772 21.596397 8.344273
v 5.430101 21.654747 8.424588
v 5.190431 21.596397 8.344273
v 5.091155 21.455521 8.150375
v 5.190431 21.314646 7.956478
v 5.430101 22.252430 7.552500
v 5.669772 22.252430 7.651774
v 5.769048 22.252430 7.891444
v 5.669772 22.252430 8.131115
v 5.430101 22.252430 8.230390
v 5.190431 22.252430 8.131115
v 5.091156 22.252430 7.891444
v 5.190431 22.252430 7.651774
v 5.430101 23.248566 7.876163
v 5.669772 23.190214 7.956477
v 5.769048 23.049339 8.150375
v 5.669772 22.908463 8.344273
v 5.430101 22.850113 8.424588
v 5.190431 22.908463 8.344273
v 5.091155 23.049339 8.150375
v 5.190431 23.190214 7.956478
v 5.430101 23.864216 8.723526
v 5.669772 23.769798 8.754206
v 5.769048 23.541859 8.828266
v 5.669772 23.313915 8.902328
v 5.430101 23.219498 8.933007
v 5.190431 23.313915 8.902328
v 5.091155 23.541859 8.828266
v 5.190431 23.769798 8.754206
v 5.430101 23.864216 9.770927
v 5.669772 23.769798 9.740250
v 5.769048 23.541859 9.666187
v 5.669772 23.313915 9.592125
v 5.430100 23.219498 9.561447
v 5.190431 23.313915 9.592124
v 5.091155 23.541859 9.666187
v 5.190431 23.769798 9.740250
v 5.430101 23.248569 10.618290
v 5.669772 23.190216 10.537975
v 5.769048 23.049339 10.344078
v 5.669772 22.908466 10.150180
v 5.430101 22.850113 10.069864
v 5.190431 22.908466 10.150180
v 5.091155 23.049339 10.344078
v 5.190431 23.190216 10.537975
vn -0.4736 0.8808 -0.0000
vn 0.4552 0.8904 -0.0000
vn -0.7951 0.6065 -0.0000
vn -0.0000 0.9998 0.0193
vn -0.0000 0.8318 -0.5551
vn -0.0000 -1.0000 -0.0000
vn -0.0086 -0.0000 1.0000
vn -0.0015 -0.0000 1.0000
vn 0.8272 -0.0000 0.5619
vn 0.9503 -0.0000 -0.3114
vn 0.9503 -0.0000 0.3114
vn -0.0000 -0.0000 1.0000
vn -0.9503 -0.0000 -0.3114
vn -0.9728 -0.0000 0.2314
vn -0.6502 -0.0000 -0.7598
vn 0.0015 -0.0000 -1.0000
vn 0.0086 -0.0000 -1.0000
vn 1.0000 -0.0000 -0.0000
vn -0.7826 -0.0000 -0.6225
vn -0.0000 -0.0000 -1.0000
vn -0.0000 1.0000 -0.0000
vn 0.8210 -0.0000 0.5709
vn -1.0000 -0.0000 -0.0000
vn 0.8849 -0.2875 -0.3665
vn 0.3798 -0.1234 -0.9168
vn -0.3798 0.1234 -0.9168
vn -0.8849 0.2875 -0.3665
vn -0.8849 0.2875 0.3665
vn -0.3798 0.1234 0.9168
vn 0.3798 -0.1234 0.9168
vn 0.8849 -0.2875 0.3665
vn 0.5469 -0.7527 -0.3665
vn 0.2347 -0.3230 -0.9168
vn -0.2347 0.3230 -0.9168
vn -0.5469 0.7527 -0.3665
vn -0.5469 0.7527 0.3665
vn -0.2347 0.3230 0.9168
vn 0.2347 -0.3230 0.9168
vn 0.5469 -0.7527 0.3665
vn -0.0000 -0.9304 -0.3665
vn -0.0000 -0.3993 -0.9168
vn -0.0000 0.3993 -0.9168
vn -0.0000 0.9304 -0.3665
vn -0.0000 0.9304 0.3665
vn -0.0000 0.3993 0.9168
vn -0.0000 -0.3993 0.9168
vn -0.0000 -0.9304 0.3665
vn -0.5469 -0.7527 -0.3665
vn -0.2347 -0.3230 -0.9168
vn 0.2347 0.3230 -0.9168
vn 0.5469 0.7527 -0.3665
vn 0.5469 0.7527 0.3665
vn 0.2347 0.3230 0.9168
vn -0.2347 -0.3230 0.9168
vn -0.5469 -0.7527 0.3665
vn -0.8849 -0.2875 -0.3665
vn -0.3798 -0.1234 -0.9168
vn 0.3798 0.1234 -0.9168
vn 0.8849 0.2875 -0.3665
vn 0.8849 0.2875 0.3665
vn 0.3798 0.1234 0.9168
vn -0.3798 -0.1234 0.9168
vn -0.8849 -0.2875 0.3665
vn 0.9168 -0.1234 -0.3798
vn -0.3665 0.2875 -0.8849
vn -0.9168 0.1234 0.3798
vn 0.3665 -0.2875 0.8849
vn 0.6459 -0.7527 0.1275
vn 0.8142 -0.3230 -0.4823
vn 0.4823 0.3230 -0.8142
vn -0.1275 0.7527 -0.6459
vn -0.6459 0.7527 -0.1275
vn -0.8142 0.3230 0.4823
vn -0.4823 -0.3230 0.8143
vn 0.1275 -0.7527 0.6459
vn 0.2592 -0.9304 -0.2592
vn 0.6483 -0.3993 -0.6483
vn 0.6483 0.3993 -0.6483
vn 0.2592 0.9304 -0.2592
vn -0.2592 0.9304 0.2592
vn -0.6483 0.3993 0.6483
vn -0.6483 -0.3993 0.6483
vn -0.2592 -0.9304 0.2592
vn -0.1275 -0.7527 -0.6459
vn 0.4823 -0.3230 -0.8143
vn 0.8143 0.3230 -0.4823
vn 0.6459 0.7527 0.1275
vn 0.1275 0.7527 0.6459
vn -0.4823 0.3230 0.8142
vn -0.8142 -0.3230 0.4823
vn -0.6459 -0.7527 -0.1275
vn -0.3665 -0.2875 -0.8849
vn 0.9168 0.1234 -0.3798
vn 0.3665 0.2875 0.8849
vn -0.9168 -0.1234 0.3798
vn 0.4823 0.3230 -0.8143
vn -0.4823 -0.3230 0.8142
vn 0.9168 -0.1234 0.3798
vn 0.3665 0.2875 -0.8849
vn -0.9168 0.1234 -0.3798
vn -0.3665 -0.2875 0.8849
vn 0.3665 -0.7527 0.5469
vn 0.9168 -0.3230 0.2347
vn 0.9168 0.3230 -0.2347
vn 0.3665 0.7527 -0.5469
vn -0.3665 0.7527 -0.5469
vn -0.9168 0.3230 -0.2347
vn -0.9168 -0.3230 0.2347
vn -0.3665 -0.7527 0.5469
vn 0.3665 -0.9304 -0.0000
vn 0.9168 -0.3993 -0.0000
vn 0.9168 0.3993 -0.0000
vn 0.3665 0.9304 -0.0000
vn -0.3665 0.9304 -0.0000
vn -0.9168 0.3993 -0.0000
vn -0.9168 -0.3993 -0.0000
vn -0.3665 -0.9304 -0.0000
vn 0.3665 -0.7527 -0.5469
vn 0.9168 -0.3230 -0.2347
vn 0.9168 0.3230 0.2347
vn 0.3665 0.7527 0.5469
vn -0.3665 0.7527 0.5469
vn -0.9168 0.3230 0.2347
vn -0.9168 -0.3230 -0.2347
vn -0.3665 -0.7527 -0.5469
vn 0.3665 -0.2875 -0.8849
vn 0.9168 0.1234 0.3798
vn -0.3665 0.2875 0.8849
vn -0.9168 -0.1234 -0.3798
vn -0.3397 0.8698 0.3578
vn -0.0172 0.9997 0.0181
vn 0.8143 -0.3230 -0.4823
vn -0.8143 0.3230 0.4823
vn 0.8142 0.3230 -0.4823
vn -0.4823 0.3230 0.8143
vt 0.542809 0.107985
vt 0.648390 0.122813
vt 0.542809 0.122813
vt 0.648390 0.107985
vt 0.737241 0.122813
vt 0.737241 0.107985
vt 0.802708 0.122813
vt 0.878523 0.107985
vt 0.878523 0.122813
vt 0.932614 0.122813
vt 0.537819 0.050698
vt 0.643250 0.035907
vt 0.643250 0.050698
vt 0.732179 0.035907
vt 0.732179 0.050698
vt 0.797560 0.035907
vt 0.797560 0.050698
vt 0.873403 0.050698
vt 0.927372 0.035907
vt 0.927372 0.050698
vt 0.819728 0.379446
vt 0.719582 0.803757
vt 0.719582 0.379446
vt 0.651620 0.379446
vt 0.594066 0.803757
vt 0.594066 0.379446
vt 0.546398 0.803757
vt 0.546398 0.379446
vt 0.479054 0.379446
vt 0.453946 0.379446
vt 0.479054 0.803757
vt 0.453946 0.803757
vt 0.379248 0.380406
vt 0.313185 0.803919
vt 0.313185 0.380406
vt 0.264848 0.380406
vt 0.264848 0.803919
vt 0.207388 0.380406
vt 0.139286 0.803919
vt 0.139286 0.380406
vt 0.040218 0.380406
vt 0.819728 0.803757
vt 0.857699 0.379446
vt 0.857699 0.803757
vt 0.250922 0.033754
vt 0.335386 0.045630
vt 0.250922 0.045630
vt 0.046069 0.033754
vt 0.046007 0.045681
vt 0.032906 0.079258
vt 0.032906 0.045681
vt 0.046069 0.079220
vt 0.250922 0.091096
vt 0.046069 0.091096
vt 0.968316 0.935361
vt 0.759377 0.960631
vt 0.759377 0.935361
vt 0.046069 0.045629
vt 0.442247 0.079220
vt 0.335386 0.079220
vt 0.250922 0.079220
vt 0.335386 0.091096
vt 0.603440 0.960631
vt 0.603440 0.935360
vt 0.455465 0.079219
vt 0.442255 0.045647
vt 0.455465 0.045647
vt 0.394086 0.935360
vt 0.335386 0.033754
vt 0.442247 0.045630
vt 0.442247 0.091096
vt 0.918173 0.388723
vt 0.920239 0.395794
vt 0.918173 0.395794
vt 0.920239 0.388723
vt 0.925170 0.395794
vt 0.925170 0.388723
vt 0.930101 0.395794
vt 0.930101 0.388723
vt 0.932166 0.395794
vt 0.934231 0.388723
vt 0.934231 0.395794
vt 0.939163 0.388723
vt 0.939163 0.395794
vt 0.944094 0.388723
vt 0.944094 0.395794
vt 0.946159 0.388723
vt 0.946159 0.395794
vt 0.918173 0.370437
vt 0.920239 0.370437
vt 0.925170 0.370437
vt 0.930101 0.370437
vt 0.932166 0.388723
vt 0.934231 0.370437
vt 0.939163 0.370437
vt 0.944094 0.370437
vt 0.946159 0.370437
vt 0.920239 0.347852
vt 0.930101 0.347852
vt 0.932166 0.347852
vt 0.932166 0.370437
vt 0.934231 0.347852
vt 0.944094 0.347852
vt 0.918173 0.347852
vt 0.920239 0.329567
vt 0.925170 0.329567
vt 0.925170 0.347852
vt 0.930101 0.329567
vt 0.932166 0.329567
vt 0.934231 0.329567
vt 0.939163 0.347852
vt 0.939163 0.329567
vt 0.944094 0.329567
vt 0.946159 0.347852
vt 0.918173 0.329567
vt 0.920239 0.312960
vt 0.925170 0.312960
vt 0.930101 0.312960
vt 0.932166 0.312960
vt 0.934231 0.312960
vt 0.939163 0.312960
vt 0.944094 0.312960
vt 0.946159 0.329567
vt 0.918173 0.462022
vt 0.920239 0.469093
vt 0.918173 0.469093
vt 0.920239 0.462022
vt 0.925170 0.469093
vt 0.925170 0.462022
vt 0.930101 0.469093
vt 0.930101 0.462022
vt 0.932166 0.469093
vt 0.934231 0.462022
vt 0.934231 0.469093
vt 0.939163 0.462022
vt 0.939163 0.469093
vt 0.944094 0.462022
vt 0.944094 0.469093
vt 0.946159 0.462022
vt 0.946159 0.469093
vt 0.918173 0.443736
vt 0.920239 0.443736
vt 0.925170 0.443736
vt 0.930101 0.443736
vt 0.932166 0.462022
vt 0.934231 0.443736
vt 0.939163 0.443736
vt 0.944094 0.443736
vt 0.946159 0.443736
vt 0.918173 0.421151
vt 0.925170 0.421151
vt 0.930101 0.421151
vt 0.932166 0.443736
vt 0.934231 0.421151
vt 0.939163 0.421151
vt 0.944094 0.421151
vt 0.920239 0.402866
vt 0.920239 0.421151
vt 0.925170 0.402866
vt 0.930101 0.402866
vt 0.932166 0.402866
vt 0.932166 0.421151
vt 0.934231 0.402866
vt 0.939163 0.402866
vt 0.944094 0.402866
vt 0.946159 0.421151
vt 0.918173 0.402866
vt 0.946159 0.402866
vt 0.931552 0.837113
vt 0.930177 0.817617
vt 0.931552 0.817617
vt 0.931552 0.804057
vt 0.930177 0.804057
vt 0.931552 0.790497
vt 0.930177 0.790497
vt 0.931552 0.771000
vt 0.930177 0.771000
vt 0.931552 0.751504
vt 0.930177 0.737944
vt 0.931552 0.737944
vt 0.930177 0.724384
vt 0.931552 0.724384
vt 0.930177 0.704887
vt 0.931552 0.704887
vt 0.930177 0.837113
vt 0.926662 0.817617
vt 0.926662 0.804057
vt 0.926662 0.790497
vt 0.926662 0.771000
vt 0.930177 0.751504
vt 0.926662 0.737944
vt 0.926662 0.724384
vt 0.926662 0.704887
vt 0.926662 0.837113
vt 0.922325 0.817617
vt 0.922325 0.804057
vt 0.922325 0.790497
vt 0.922325 0.771000
vt 0.926662 0.751504
vt 0.922325 0.751504
vt 0.922325 0.724384
vt 0.922325 0.704887
vt 0.922325 0.837113
vt 0.918810 0.817617
vt 0.918810 0.804057
vt 0.918810 0.790497
vt 0.918810 0.771000
vt 0.918810 0.751504
vt 0.922325 0.737944
vt 0.918810 0.737944
vt 0.918810 0.704887
vt 0.918810 0.837113
vt 0.917434 0.817617
vt 0.917434 0.804057
vt 0.917434 0.790497
vt 0.917434 0.771000
vt 0.917434 0.751504
vt 0.917434 0.737944
vt 0.918810 0.724384
vt 0.917434 0.704887
vt 0.944295 0.837113
vt 0.945670 0.817617
vt 0.945670 0.837113
vt 0.944295 0.817617
vt 0.945670 0.804057
vt 0.944295 0.804057
vt 0.945670 0.790497
vt 0.944295 0.771000
vt 0.945670 0.771000
vt 0.944295 0.751504
vt 0.945670 0.751504
vt 0.944295 0.737944
vt 0.945670 0.737944
vt 0.944295 0.724384
vt 0.945670 0.724384
vt 0.945670 0.704887
vt 0.940780 0.837113
vt 0.940780 0.817617
vt 0.940780 0.804057
vt 0.944295 0.790497
vt 0.940780 0.771000
vt 0.940780 0.751504
vt 0.940780 0.737944
vt 0.940780 0.724384
vt 0.944295 0.704887
vt 0.936443 0.837113
vt 0.936443 0.817617
vt 0.936443 0.790497
vt 0.940780 0.790497
vt 0.936443 0.771000
vt 0.936443 0.751504
vt 0.936443 0.737944
vt 0.936443 0.724384
vt 0.940780 0.704887
vt 0.932928 0.837113
vt 0.932928 0.804057
vt 0.936443 0.804057
vt 0.932928 0.790497
vt 0.932928 0.771000
vt 0.932928 0.751504
vt 0.932928 0.737944
vt 0.932928 0.724384
vt 0.936443 0.704887
vt 0.932928 0.817617
vt 0.932928 0.704887
vt 0.934963 0.643808
vt 0.931690 0.620622
vt 0.934963 0.620622
vt 0.931690 0.610962
vt 0.934963 0.610962
vt 0.931690 0.601302
vt 0.934963 0.601302
vt 0.931690 0.578116
vt 0.934963 0.578116
vt 0.934963 0.554930
vt 0.931690 0.554930
vt 0.934963 0.545270
vt 0.931690 0.545270
vt 0.934963 0.535611
vt 0.931690 0.535611
vt 0.934963 0.512425
vt 0.931690 0.643808
vt 0.928982 0.620622
vt 0.928982 0.610962
vt 0.928982 0.601302
vt 0.928982 0.578116
vt 0.928982 0.554930
vt 0.928982 0.545270
vt 0.928982 0.535611
vt 0.931690 0.512425
vt 0.928982 0.643808
vt 0.926693 0.620622
vt 0.926693 0.601302
vt 0.926693 0.578116
vt 0.926693 0.554930
vt 0.926693 0.535611
vt 0.928982 0.512425
vt 0.923986 0.643808
vt 0.926693 0.643808
vt 0.923986 0.620622
vt 0.926693 0.610962
vt 0.923986 0.610962
vt 0.923986 0.601302
vt 0.923986 0.554930
vt 0.923986 0.545270
vt 0.926693 0.545270
vt 0.923986 0.535611
vt 0.923986 0.512425
vt 0.926693 0.512425
vt 0.920713 0.643808
vt 0.920713 0.620622
vt 0.920713 0.610962
vt 0.920713 0.601302
vt 0.923986 0.578116
vt 0.920713 0.554930
vt 0.920713 0.545270
vt 0.920713 0.535611
vt 0.920713 0.512425
vt 0.949213 0.643808
vt 0.945940 0.620622
vt 0.949213 0.620622
vt 0.945940 0.610962
vt 0.949213 0.610962
vt 0.945940 0.601302
vt 0.949213 0.601302
vt 0.945940 0.578116
vt 0.949213 0.578116
vt 0.949213 0.554930
vt 0.945940 0.554930
vt 0.949213 0.545270
vt 0.945940 0.545270
vt 0.949213 0.535611
vt 0.945940 0.535611
vt 0.949213 0.512425
vt 0.945940 0.643808
vt 0.943233 0.620622
vt 0.943233 0.610962
vt 0.943233 0.601302
vt 0.943233 0.578116
vt 0.943233 0.554930
vt 0.943233 0.545270
vt 0.943233 0.535611
vt 0.945940 0.512425
vt 0.940944 0.643808
vt 0.943233 0.643808
vt 0.940944 0.620622
vt 0.940944 0.610962
vt 0.940944 0.601302
vt 0.940944 0.578116
vt 0.940944 0.554930
vt 0.940944 0.545270
vt 0.940944 0.512425
vt 0.943233 0.512425
vt 0.938236 0.643808
vt 0.938236 0.620622
vt 0.938236 0.610962
vt 0.938236 0.601302
vt 0.938236 0.554930
vt 0.938236 0.545270
vt 0.938236 0.535611
vt 0.940944 0.535611
vt 0.938236 0.512425
vt 0.938236 0.578116
vt 0.802708 0.107985
vt 0.932614 0.107985
vt 0.537819 0.035907
vt 0.873403 0.035907
vt 0.651620 0.803757
vt 0.379248 0.803919
vt 0.207388 0.803919
vt 0.040218 0.803920
vt 0.046007 0.079258
vt 0.968316 0.960631
vt 0.442255 0.079219
vt 0.394086 0.960631
vt 0.442247 0.033754
vt 0.918173 0.312960
vt 0.946159 0.312960
vt 0.917434 0.837113
vt 0.917434 0.724384
vt 0.920713 0.578116
s 0
usemtl Material.014
f 12/1/1 20/2/1 19/3/1
f 11/4/2 21/5/2 20/2/2
f 10/6/3 22/7/3 21/5/3
f 22/7/4 8/8/4 23/9/4
f 8/8/5 24/10/5 23/9/5
f 1/11/6 17/12/6 2/13/6
f 2/13/6 16/14/6 3/15/6
f 3/15/6 15/16/6 4/17/6
f 15/16/6 5/18/6 4/17/6
f 5/18/6 13/19/6 6/20/6
f 18/21/7 20/22/7 17/23/7
f 20/22/8 16/24/8 17/23/8
f 16/24/9 22/25/9 15/26/9
f 15/26/10 23/27/10 14/28/10
f 23/27/11 13/29/11 14/28/11
f 6/30/12 24/31/12 7/32/12
f 6/33/13 8/34/13 5/35/13
f 8/34/14 4/36/14 5/35/14
f 9/37/15 3/38/15 4/36/15
f 3/38/16 11/39/16 2/40/16
f 11/39/17 1/41/17 2/40/17
f 19/42/18 1/43/18 12/44/18
f 27/45/19 36/46/19 28/47/19
f 28/47/20 31/48/20 27/45/20
f 32/49/18 29/50/18 31/51/18
f 30/52/12 25/53/12 29/54/12
f 31/55/6 25/56/6 27/57/6
f 28/47/21 30/52/21 32/58/21
f 36/46/21 39/59/21 35/60/21
f 26/61/22 34/62/22 25/53/22
f 28/47/21 35/60/21 26/61/21
f 27/57/6 34/63/6 33/64/6
f 39/65/12 37/66/12 38/67/12
f 34/63/6 37/68/6 33/64/6
f 33/69/23 40/70/23 36/46/23
f 35/71/18 38/60/18 34/59/18
f 49/72/24 42/73/24 41/74/24
f 50/75/25 43/76/25 42/73/25
f 51/77/26 44/78/26 43/76/26
f 52/79/27 45/80/27 44/78/27
f 45/80/28 54/81/28 46/82/28
f 46/82/29 55/83/29 47/84/29
f 47/84/30 56/85/30 48/86/30
f 48/86/31 49/87/31 41/88/31
f 57/89/32 50/75/32 49/72/32
f 58/90/33 51/77/33 50/75/33
f 59/91/34 52/79/34 51/77/34
f 60/92/35 53/93/35 52/79/35
f 53/93/36 62/94/36 54/81/36
f 54/81/37 63/95/37 55/83/37
f 55/83/38 64/96/38 56/85/38
f 56/85/39 57/97/39 49/87/39
f 57/89/40 66/98/40 58/90/40
f 66/98/41 59/91/41 58/90/41
f 59/91/42 68/99/42 60/92/42
f 60/92/43 69/100/43 61/101/43
f 69/100/44 62/94/44 61/101/44
f 70/102/45 63/95/45 62/94/45
f 63/95/46 72/103/46 64/96/46
f 72/103/47 57/97/47 64/96/47
f 65/104/48 74/105/48 66/98/48
f 66/98/49 75/106/49 67/107/49
f 67/107/50 76/108/50 68/99/50
f 68/99/51 77/109/51 69/100/51
f 77/109/52 70/102/52 69/100/52
f 78/110/53 71/111/53 70/102/53
f 79/112/54 72/103/54 71/111/54
f 80/113/55 65/114/55 72/103/55
f 73/115/56 82/116/56 74/105/56
f 74/105/57 83/117/57 75/106/57
f 75/106/58 84/118/58 76/108/58
f 76/108/59 85/119/59 77/109/59
f 85/119/60 78/110/60 77/109/60
f 86/120/61 79/112/61 78/110/61
f 87/121/62 80/113/62 79/112/62
f 88/122/63 73/123/63 80/113/63
f 89/124/27 82/125/27 81/126/27
f 90/127/26 83/128/26 82/125/26
f 91/129/25 84/130/25 83/128/25
f 92/131/24 85/132/24 84/130/24
f 85/132/31 94/133/31 86/134/31
f 86/134/30 95/135/30 87/136/30
f 87/136/29 96/137/29 88/138/29
f 88/138/28 89/139/28 81/140/28
f 97/141/35 90/127/35 89/124/35
f 98/142/34 91/129/34 90/127/34
f 99/143/33 92/131/33 91/129/33
f 100/144/32 93/145/32 92/131/32
f 93/145/39 102/146/39 94/133/39
f 94/133/38 103/147/38 95/135/38
f 95/135/37 104/148/37 96/137/37
f 96/137/36 97/149/36 89/139/36
f 105/150/43 98/142/43 97/141/43
f 98/142/42 107/151/42 99/143/42
f 107/151/41 100/144/41 99/143/41
f 108/152/40 101/153/40 100/144/40
f 101/153/47 110/154/47 102/146/47
f 110/154/46 103/147/46 102/146/46
f 111/155/45 104/148/45 103/147/45
f 112/156/44 97/149/44 104/148/44
f 105/150/51 114/157/51 106/158/51
f 106/158/50 115/159/50 107/151/50
f 107/151/49 116/160/49 108/152/49
f 108/152/48 117/161/48 109/162/48
f 117/161/55 110/154/55 109/162/55
f 118/163/54 111/155/54 110/154/54
f 119/164/53 112/156/53 111/155/53
f 120/165/52 105/166/52 112/156/52
f 113/167/59 42/73/59 114/157/59
f 114/157/58 43/76/58 115/159/58
f 115/159/57 44/78/57 116/160/57
f 116/160/56 45/80/56 117/161/56
f 45/80/63 118/163/63 117/161/63
f 46/82/62 119/164/62 118/163/62
f 47/84/61 120/165/61 119/164/61
f 48/86/60 113/168/60 120/165/60
f 121/169/31 130/170/31 122/171/31
f 130/170/64 123/172/64 122/171/64
f 131/173/58 124/174/58 123/172/58
f 132/175/65 125/176/65 124/174/65
f 133/177/27 126/178/27 125/176/27
f 126/178/66 135/179/66 127/180/66
f 127/180/62 136/181/62 128/182/62
f 128/182/67 129/183/67 121/184/67
f 129/185/68 138/186/68 130/170/68
f 138/186/69 131/173/69 130/170/69
f 139/187/70 132/175/70 131/173/70
f 140/188/71 133/177/71 132/175/71
f 141/189/72 134/190/72 133/177/72
f 134/190/73 143/191/73 135/179/73
f 135/179/74 144/192/74 136/181/74
f 136/181/75 137/193/75 129/183/75
f 137/194/76 146/195/76 138/186/76
f 138/186/77 147/196/77 139/187/77
f 147/196/78 140/188/78 139/187/78
f 148/197/79 141/189/79 140/188/79
f 149/198/80 142/199/80 141/189/80
f 150/200/81 143/191/81 142/199/81
f 143/191/82 152/201/82 144/192/82
f 144/192/83 145/202/83 137/193/83
f 145/203/84 154/204/84 146/195/84
f 146/195/85 155/205/85 147/196/85
f 147/196/86 156/206/86 148/197/86
f 156/206/87 149/198/87 148/197/87
f 157/207/88 150/200/88 149/198/88
f 158/208/89 151/209/89 150/200/89
f 159/210/90 152/201/90 151/209/90
f 152/201/91 153/211/91 145/202/91
f 153/212/92 162/213/92 154/204/92
f 154/204/25 163/214/25 155/205/25
f 155/205/93 164/215/93 156/206/93
f 164/215/60 157/207/60 156/206/60
f 165/216/94 158/208/94 157/207/94
f 166/217/29 159/210/29 158/208/29
f 167/218/95 160/219/95 159/210/95
f 160/219/56 161/220/56 153/211/56
f 169/221/65 162/222/65 161/223/65
f 170/224/58 163/225/58 162/222/58
f 171/226/64 164/227/64 163/225/64
f 164/227/31 173/228/31 165/229/31
f 165/229/67 174/230/67 166/231/67
f 166/231/62 175/232/62 167/233/62
f 167/233/66 176/234/66 168/235/66
f 176/234/27 161/236/27 168/235/27
f 177/237/71 170/224/71 169/221/71
f 178/238/96 171/226/96 170/224/96
f 179/239/69 172/240/69 171/226/69
f 172/240/68 181/241/68 173/228/68
f 173/228/75 182/242/75 174/230/75
f 174/230/97 183/243/97 175/232/97
f 175/232/73 184/244/73 176/234/73
f 184/244/72 169/245/72 176/234/72
f 185/246/79 178/238/79 177/237/79
f 186/247/78 179/239/78 178/238/78
f 179/239/77 188/248/77 180/249/77
f 180/249/76 189/250/76 181/241/76
f 181/241/83 190/251/83 182/242/83
f 182/242/82 191/252/82 183/243/82
f 191/252/81 184/244/81 183/243/81
f 192/253/80 177/254/80 184/244/80
f 193/255/87 186/247/87 185/246/87
f 186/247/86 195/256/86 187/257/86
f 187/257/85 196/258/85 188/248/85
f 188/248/84 197/259/84 189/250/84
f 189/250/91 198/260/91 190/251/91
f 198/260/90 191/252/90 190/251/90
f 199/261/89 192/253/89 191/252/89
f 200/262/88 185/263/88 192/253/88
f 121/169/60 194/264/60 193/255/60
f 194/264/93 123/172/93 195/256/93
f 195/256/25 124/174/25 196/258/25
f 196/258/92 125/176/92 197/259/92
f 197/259/56 126/178/56 198/260/56
f 126/178/95 199/261/95 198/260/95
f 127/180/29 200/262/29 199/261/29
f 128/182/94 193/265/94 200/262/94
f 201/266/67 210/267/67 202/268/67
f 202/268/98 211/269/98 203/270/98
f 203/270/93 212/271/93 204/272/93
f 204/272/99 213/273/99 205/274/99
f 213/273/65 206/275/65 205/274/65
f 214/276/100 207/277/100 206/275/100
f 215/278/95 208/279/95 207/277/95
f 216/280/101 201/281/101 208/279/101
f 209/282/102 218/283/102 210/267/102
f 210/267/103 219/284/103 211/269/103
f 211/269/104 220/285/104 212/271/104
f 212/271/105 221/286/105 213/273/105
f 221/286/106 214/276/106 213/273/106
f 222/287/107 215/278/107 214/276/107
f 223/288/108 216/280/108 215/278/108
f 224/289/109 209/290/109 216/280/109
f 217/291/110 226/292/110 218/283/110
f 226/292/111 219/284/111 218/283/111
f 219/284/112 228/293/112 220/285/112
f 220/285/113 229/294/113 221/286/113
f 221/286/114 230/295/114 222/287/114
f 230/295/115 223/288/115 222/287/115
f 223/288/116 232/296/116 224/289/116
f 232/296/117 217/297/117 224/289/117
f 233/298/118 226/292/118 225/299/118
f 234/300/119 227/301/119 226/292/119
f 235/302/120 228/293/120 227/301/120
f 236/303/121 229/294/121 228/293/121
f 229/294/122 238/304/122 230/295/122
f 230/295/123 239/305/123 231/306/123
f 231/306/124 240/307/124 232/296/124
f 232/296/125 233/308/125 225/309/125
f 241/310/126 234/300/126 233/298/126
f 242/311/64 235/302/64 234/300/64
f 243/312/127 236/303/127 235/302/127
f 244/313/94 237/314/94 236/303/94
f 237/314/128 246/315/128 238/304/128
f 238/304/66 247/316/66 239/305/66
f 239/305/129 248/317/129 240/307/129
f 240/307/92 241/318/92 233/308/92
f 241/319/99 250/320/99 242/321/99
f 242/321/93 251/322/93 243/323/93
f 243/323/98 252/324/98 244/325/98
f 244/325/67 253/326/67 245/327/67
f 253/326/101 246/328/101 245/327/101
f 254/329/95 247/330/95 246/328/95
f 255/331/100 248/332/100 247/330/100
f 256/333/65 241/334/65 248/332/65
f 249/335/105 258/336/105 250/320/105
f 250/320/104 259/337/104 251/322/104
f 251/322/103 260/338/103 252/324/103
f 252/324/102 261/339/102 253/326/102
f 261/339/109 254/329/109 253/326/109
f 262/340/108 255/331/108 254/329/108
f 263/341/107 256/333/107 255/331/107
f 264/342/106 249/343/106 256/333/106
f 265/344/113 258/336/113 257/345/113
f 266/346/112 259/337/112 258/336/112
f 267/347/111 260/338/111 259/337/111
f 268/348/110 261/339/110 260/338/110
f 269/349/117 262/340/117 261/339/117
f 270/350/116 263/341/116 262/340/116
f 271/351/115 264/342/115 263/341/115
f 264/342/114 265/352/114 257/353/114
f 273/354/121 266/346/121 265/344/121
f 274/355/120 267/347/120 266/346/120
f 275/356/119 268/348/119 267/347/119
f 276/357/118 269/349/118 268/348/118
f 269/349/125 278/358/125 270/350/125
f 270/350/124 279/359/124 271/351/124
f 271/351/123 280/360/123 272/361/123
f 272/361/122 273/362/122 265/352/122
f 201/266/94 274/355/94 273/354/94
f 202/268/127 275/356/127 274/355/127
f 203/270/64 276/357/64 275/356/64
f 204/272/126 277/363/126 276/357/126
f 277/363/92 206/275/92 278/358/92
f 278/358/129 207/277/129 279/359/129
f 279/359/66 208/279/66 280/360/66
f 280/360/128 201/281/128 273/362/128
f 12/1/1 11/4/1 20/2/1
f 11/4/2 10/6/2 21/5/2
f 10/6/130 9/364/130 22/7/130
f 22/7/131 9/364/131 8/8/131
f 8/8/5 7/365/5 24/10/5
f 1/11/6 18/366/6 17/12/6
f 2/13/6 17/12/6 16/14/6
f 3/15/6 16/14/6 15/16/6
f 15/16/6 14/367/6 5/18/6
f 5/18/6 14/367/6 13/19/6
f 18/21/7 19/42/7 20/22/7
f 20/22/8 21/368/8 16/24/8
f 16/24/9 21/368/9 22/25/9
f 15/26/10 22/25/10 23/27/10
f 23/27/11 24/31/11 13/29/11
f 6/30/12 13/29/12 24/31/12
f 6/33/13 7/369/13 8/34/13
f 8/34/14 9/37/14 4/36/14
f 9/37/15 10/370/15 3/38/15
f 3/38/16 10/370/16 11/39/16
f 11/39/17 12/371/17 1/41/17
f 19/42/18 18/21/18 1/43/18
f 27/45/19 33/69/19 36/46/19
f 28/47/20 32/58/20 31/48/20
f 32/49/18 30/372/18 29/50/18
f 30/52/12 26/61/12 25/53/12
f 31/55/6 29/373/6 25/56/6
f 28/47/21 26/61/21 30/52/21
f 36/46/21 40/70/21 39/59/21
f 26/61/22 35/60/22 34/62/22
f 28/47/21 36/46/21 35/60/21
f 27/57/6 25/56/6 34/63/6
f 39/65/12 40/374/12 37/66/12
f 34/63/6 38/375/6 37/68/6
f 33/69/23 37/376/23 40/70/23
f 35/71/18 39/62/18 38/60/18
f 49/72/24 50/75/24 42/73/24
f 50/75/25 51/77/25 43/76/25
f 51/77/26 52/79/26 44/78/26
f 52/79/27 53/93/27 45/80/27
f 45/80/28 53/93/28 54/81/28
f 46/82/29 54/81/29 55/83/29
f 47/84/30 55/83/30 56/85/30
f 48/86/31 56/85/31 49/87/31
f 57/89/32 58/90/32 50/75/32
f 58/90/33 59/91/33 51/77/33
f 59/91/34 60/92/34 52/79/34
f 60/92/35 61/101/35 53/93/35
f 53/93/36 61/101/36 62/94/36
f 54/81/37 62/94/37 63/95/37
f 55/83/38 63/95/38 64/96/38
f 56/85/39 64/96/39 57/97/39
f 57/89/40 65/104/40 66/98/40
f 66/98/41 67/107/41 59/91/41
f 59/91/42 67/107/42 68/99/42
f 60/92/43 68/99/43 69/100/43
f 69/100/44 70/102/44 62/94/44
f 70/102/45 71/111/45 63/95/45
f 63/95/46 71/111/46 72/103/46
f 72/103/47 65/114/47 57/97/47
f 65/104/48 73/115/48 74/105/48
f 66/98/49 74/105/49 75/106/49
f 67/107/50 75/106/50 76/108/50
f 68/99/51 76/108/51 77/109/51
f 77/109/52 78/110/52 70/102/52
f 78/110/53 79/112/53 71/111/53
f 79/112/54 80/113/54 72/103/54
f 80/113/55 73/123/55 65/114/55
f 73/115/56 81/377/56 82/116/56
f 74/105/57 82/116/57 83/117/57
f 75/106/58 83/117/58 84/118/58
f 76/108/59 84/118/59 85/119/59
f 85/119/60 86/120/60 78/110/60
f 86/120/61 87/121/61 79/112/61
f 87/121/62 88/122/62 80/113/62
f 88/122/63 81/378/63 73/123/63
f 89/124/27 90/127/27 82/125/27
f 90/127/26 91/129/26 83/128/26
f 91/129/25 92/131/25 84/130/25
f 92/131/24 93/145/24 85/132/24
f 85/132/31 93/145/31 94/133/31
f 86/134/30 94/133/30 95/135/30
f 87/136/29 95/135/29 96/137/29
f 88/138/28 96/137/28 89/139/28
f 97/141/35 98/142/35 90/127/35
f 98/142/34 99/143/34 91/129/34
f 99/143/33 100/144/33 92/131/33
f 100/144/32 101/153/32 93/145/32
f 93/145/39 101/153/39 102/146/39
f 94/133/38 102/146/38 103/147/38
f 95/135/37 103/147/37 104/148/37
f 96/137/36 104/148/36 97/149/36
f 105/150/43 106/158/43 98/142/43
f 98/142/42 106/158/42 107/151/42
f 107/151/41 108/152/41 100/144/41
f 108/152/40 109/162/40 101/153/40
f 101/153/47 109/162/47 110/154/47
f 110/154/46 111/155/46 103/147/46
f 111/155/45 112/156/45 104/148/45
f 112/156/44 105/166/44 97/149/44
f 105/150/51 113/167/51 114/157/51
f 106/158/50 114/157/50 115/159/50
f 107/151/49 115/159/49 116/160/49
f 108/152/48 116/160/48 117/161/48
f 117/161/55 118/163/55 110/154/55
f 118/163/54 119/164/54 111/155/54
f 119/164/53 120/165/53 112/156/53
f 120/165/52 113/168/52 105/166/52
f 113/167/59 41/74/59 42/73/59
f 114/157/58 42/73/58 43/76/58
f 115/159/57 43/76/57 44/78/57
f 116/160/56 44/78/56 45/80/56
f 45/80/63 46/82/63 118/163/63
f 46/82/62 47/84/62 119/164/62
f 47/84/61 48/86/61 120/165/61
f 48/86/60 41/88/60 113/168/60
f 121/169/31 129/185/31 130/170/31
f 130/170/64 131/173/64 123/172/64
f 131/173/58 132/175/58 124/174/58
f 132/175/65 133/177/65 125/176/65
f 133/177/27 134/190/27 126/178/27
f 126/178/66 134/190/66 135/179/66
f 127/180/62 135/179/62 136/181/62
f 128/182/67 136/181/67 129/183/67
f 129/185/68 137/194/68 138/186/68
f 138/186/132 139/187/132 131/173/132
f 139/187/96 140/188/96 132/175/96
f 140/188/71 141/189/71 133/177/71
f 141/189/72 142/199/72 134/190/72
f 134/190/133 142/199/133 143/191/133
f 135/179/97 143/191/97 144/192/97
f 136/181/75 144/192/75 137/193/75
f 137/194/76 145/203/76 146/195/76
f 138/186/77 146/195/77 147/196/77
f 147/196/78 148/197/78 140/188/78
f 148/197/79 149/198/79 141/189/79
f 149/198/80 150/200/80 142/199/80
f 150/200/81 151/209/81 143/191/81
f 143/191/82 151/209/82 152/201/82
f 144/192/83 152/201/83 145/202/83
f 145/203/84 153/212/84 154/204/84
f 146/195/85 154/204/85 155/205/85
f 147/196/86 155/205/86 156/206/86
f 156/206/87 157/207/87 149/198/87
f 157/207/88 158/208/88 150/200/88
f 158/208/89 159/210/89 151/209/89
f 159/210/90 160/219/90 152/201/90
f 152/201/91 160/219/91 153/211/91
f 153/212/92 161/379/92 162/213/92
f 154/204/25 162/213/25 163/214/25
f 155/205/93 163/214/93 164/215/93
f 164/215/60 165/216/60 157/207/60
f 165/216/94 166/217/94 158/208/94
f 166/217/29 167/218/29 159/210/29
f 167/218/95 168/380/95 160/219/95
f 160/219/56 168/380/56 161/220/56
f 169/221/65 170/224/65 162/222/65
f 170/224/58 171/226/58 163/225/58
f 171/226/64 172/240/64 164/227/64
f 164/227/31 172/240/31 173/228/31
f 165/229/67 173/228/67 174/230/67
f 166/231/62 174/230/62 175/232/62
f 167/233/66 175/232/66 176/234/66
f 176/234/27 169/245/27 161/236/27
f 177/237/71 178/238/71 170/224/71
f 178/238/70 179/239/70 171/226/70
f 179/239/69 180/249/69 172/240/69
f 172/240/68 180/249/68 181/241/68
f 173/228/75 181/241/75 182/242/75
f 174/230/74 182/242/74 183/243/74
f 175/232/133 183/243/133 184/244/133
f 184/244/72 177/254/72 169/245/72
f 185/246/79 186/247/79 178/238/79
f 186/247/78 187/257/78 179/239/78
f 179/239/77 187/257/77 188/248/77
f 180/249/76 188/248/76 189/250/76
f 181/241/83 189/250/83 190/251/83
f 182/242/82 190/251/82 191/252/82
f 191/252/81 192/253/81 184/244/81
f 192/253/80 185/263/80 177/254/80
f 193/255/87 194/264/87 186/247/87
f 186/247/134 194/264/134 195/256/134
f 187/257/85 195/256/85 196/258/85
f 188/248/84 196/258/84 197/259/84
f 189/250/91 197/259/91 198/260/91
f 198/260/90 199/261/90 191/252/90
f 199/261/135 200/262/135 192/253/135
f 200/262/88 193/265/88 185/263/88
f 121/169/60 122/171/60 194/264/60
f 194/264/93 122/171/93 123/172/93
f 195/256/25 123/172/25 124/174/25
f 196/258/92 124/174/92 125/176/92
f 197/259/56 125/176/56 126/178/56
f 126/178/95 127/180/95 199/261/95
f 127/180/29 128/182/29 200/262/29
f 128/182/94 121/184/94 193/265/94
f 201/266/67 209/282/67 210/267/67
f 202/268/98 210/267/98 211/269/98
f 203/270/93 211/269/93 212/271/93
f 204/272/99 212/271/99 213/273/99
f 213/273/65 214/276/65 206/275/65
f 214/276/100 215/278/100 207/277/100
f 215/278/95 216/280/95 208/279/95
f 216/280/101 209/290/101 201/281/101
f 209/282/102 217/291/102 218/283/102
f 210/267/103 218/283/103 219/284/103
f 211/269/104 219/284/104 220/285/104
f 212/271/105 220/285/105 221/286/105
f 221/286/106 222/287/106 214/276/106
f 222/287/107 223/288/107 215/278/107
f 223/288/108 224/289/108 216/280/108
f 224/289/109 217/297/109 209/290/109
f 217/291/110 225/299/110 226/292/110
f 226/292/111 227/301/111 219/284/111
f 219/284/112 227/301/112 228/293/112
f 220/285/113 228/293/113 229/294/113
f 221/286/114 229/294/114 230/295/114
f 230/295/115 231/306/115 223/288/115
f 223/288/116 231/306/116 232/296/116
f 232/296/117 225/309/117 217/297/117
f 233/298/118 234/300/118 226/292/118
f 234/300/119 235/302/119 227/301/119
f 235/302/120 236/303/120 228/293/120
f 236/303/121 237/314/121 229/294/121
f 229/294/122 237/314/122 238/304/122
f 230/295/123 238/304/123 239/305/123
f 231/306/124 239/305/124 240/307/124
f 232/296/125 240/307/125 233/308/125
f 241/310/126 242/311/126 234/300/126
f 242/311/64 243/312/64 235/302/64
f 243/312/127 244/313/127 236/303/127
f 244/313/94 245/381/94 237/314/94
f 237/314/128 245/381/128 246/315/128
f 238/304/66 246/315/66 247/316/66
f 239/305/129 247/316/129 248/317/129
f 240/307/92 248/317/92 241/318/92
f 241/319/99 249/335/99 250/320/99
f 242/321/93 250/320/93 251/322/93
f 243/323/98 251/322/98 252/324/98
f 244/325/67 252/324/67 253/326/67
f 253/326/101 254/329/101 246/328/101
f 254/329/95 255/331/95 247/330/95
f 255/331/100 256/333/100 248/332/100
f 256/333/65 249/343/65 241/334/65
f 249/335/105 257/345/105 258/336/105
f 250/320/104 258/336/104 259/337/104
f 251/322/103 259/337/103 260/338/103
f 252/324/102 260/338/102 261/339/102
f 261/339/109 262/340/109 254/329/109
f 262/340/108 263/341/108 255/331/108
f 263/341/107 264/342/107 256/333/107
f 264/342/106 257/353/106 249/343/106
f 265/344/113 266/346/113 258/336/113
f 266/346/112 267/347/112 259/337/112
f 267/347/111 268/348/111 260/338/111
f 268/348/110 269/349/110 261/339/110
f 269/349/117 270/350/117 262/340/117
f 270/350/116 271/351/116 263/341/116
f 271/351/115 272/361/115 264/342/115
f 264/342/114 272/361/114 265/352/114
f 273/354/121 274/355/121 266/346/121
f 274/355/120 275/356/120 267/347/120
f 275/356/119 276/357/119 268/348/119
f 276/357/118 277/363/118 269/349/118
f 269/349/125 277/363/125 278/358/125
f 270/350/124 278/358/124 279/359/124
f 271/351/123 279/359/123 280/360/123
f 272/361/122 280/360/122 273/362/122
f 201/266/94 202/268/94 274/355/94
f 202/268/127 203/270/127 275/356/127
f 203/270/64 204/272/64 276/357/64
f 204/272/126 205/274/126 277/363/126
f 277/363/92 205/274/92 206/275/92
f 278/358/129 206/275/129 207/277/129
f 279/359/66 207/277/66 208/279/66
f 280/360/128 208/279/128 201/281/128
