# Blender 5.1.1
# www.blender.org
mtllib head_Mount.mtl
o Head_Mount
v -0.114772 1.395600 1.244771
v -0.114772 -1.321058 1.244771
v -0.114772 1.395600 -1.244771
v 0.000000 -1.348836 -1.348836
v 0.000000 -1.821756 1.076990
v 0.000000 -1.821756 -1.076990
v -0.114772 -2.047302 0.250736
v -0.114772 -2.047302 -0.250736
v -0.114772 0.956742 0.000000
v -0.114772 1.062218 1.244771
v -0.114772 1.062217 -1.244771
v -0.114772 1.074256 0.711034
v -0.114772 1.074256 -0.711034
v -0.169369 1.731564 1.467239
v -0.169369 -1.454069 1.467239
v -0.169369 1.731564 -1.467239
v -0.169369 -1.454069 -1.467239
v -0.169369 -1.968503 1.171530
v -0.169369 -1.968503 -1.171530
v -0.169369 -2.327047 0.295004
v -0.169369 -2.327047 -0.295004
v -0.169369 1.168632 0.000000
v -0.169369 1.168632 1.467239
v -0.169369 1.168632 -1.467239
v -0.169369 1.289879 0.733620
v -0.169369 1.289879 -0.733620
v -0.523553 1.731564 1.467239
v -0.523553 -1.454069 1.467239
v -0.523553 1.731564 -1.467239
v -0.523553 -1.454069 -1.467239
v -0.523553 -1.968503 1.171530
v -0.523553 -1.968503 -1.171530
v -0.523553 -2.327047 0.295004
v -0.523553 -2.327047 -0.295004
v -0.523553 1.168632 0.000000
v -0.523553 1.168632 1.467239
v -0.523553 1.168632 -1.467239
v -0.523553 1.289879 0.733620
v -0.523553 1.289879 -0.733620
v -0.000000 1.173680 0.674418
v -0.000000 1.579723 1.348836
v -0.000000 1.062218 1.348836
v 0.000000 -1.348836 1.348836
v -0.000000 1.062217 -1.348836
v -0.000000 1.579723 -1.348836
v -0.114772 -1.738951 -1.004556
v -0.114772 -1.321058 -1.244771
v -0.114772 -1.738951 1.004556
v 0.000000 -2.151366 0.271197
v 0.000000 -2.151366 -0.271197
v -0.000000 1.173680 -0.674418
v -0.000000 1.062218 0.000000
vn 1.0000 -0.0000 -0.0000
vn 0.5730 -0.0000 0.8196
vn 0.6754 -0.3675 -0.6394
vn 0.5730 -0.0000 -0.8196
vn 0.6754 -0.3675 0.6394
vn 0.7199 -0.6941 -0.0000
vn 0.3773 0.7934 -0.4777
vn 0.5269 0.8386 -0.1386
vn 0.7118 -0.6501 -0.2659
vn 0.3773 0.7934 0.4777
vn 0.7118 -0.6501 0.2659
vn 0.5269 0.8386 0.1386
vn -0.0000 -0.0000 1.0000
vn -0.0000 -0.0000 -1.0000
vn -0.0000 -0.4984 -0.8670
vn -0.0000 0.9866 -0.1631
vn -0.0000 -0.4984 0.8670
vn -0.0000 0.8567 0.5158
vn -0.0000 -1.0000 -0.0000
vn -0.0000 -0.9256 -0.3786
vn -0.0000 -0.9256 0.3786
vn -0.0000 0.8567 -0.5158
vn -0.0000 0.9866 0.1631
vn -1.0000 -0.0000 -0.0000
vn 0.6717 -0.6347 0.3821
vn 0.6717 -0.0000 -0.7408
vn 0.6717 -0.0000 0.7408
vn 0.6717 0.3692 0.6423
vn 0.6717 0.3692 -0.6423
vn 0.6717 0.7408 -0.0000
vn 0.6717 0.6857 0.2805
vn 0.6717 0.6857 -0.2805
vn 0.6717 -0.7309 -0.1208
vn 0.6717 -0.7309 0.1208
vn 0.6717 -0.6347 -0.3821
vt 0.636383 0.448104
vt 0.713563 0.451012
vt 0.634424 0.496218
vt 0.637984 0.104951
vt 0.962036 0.044559
vt 0.996445 0.104979
vt 0.672411 0.044580
vt 0.853402 0.000010
vt 0.574009 0.912586
vt 0.582214 0.827657
vt 0.612429 0.816921
vt 0.817203 0.435423
vt 0.998029 0.448105
vt 0.920849 0.451013
vt 0.095461 0.351968
vt 0.068530 0.460353
vt 0.037729 0.466608
vt 0.021937 0.830029
vt 0.052501 0.839463
vt 0.525072 0.345086
vt 0.554256 0.451764
vt 0.500345 0.366688
vt 0.369320 0.266740
vt 0.259629 0.302629
vt 0.247266 0.270796
vt 0.446799 0.943969
vt 0.554329 0.892277
vt 0.443223 0.974417
vt 0.320725 0.928437
vt 0.120747 0.372928
vt 0.585223 0.457106
vt 0.068910 0.929791
vt 0.196790 0.943652
vt 0.202154 0.974188
vt 0.359302 0.300701
vt 0.321318 0.959439
vt 0.087013 0.910204
vt 0.529376 0.820537
vt 0.111257 0.886884
vt 0.106142 0.829970
vt 0.117217 0.472628
vt 0.426096 0.866221
vt 0.466689 0.399052
vt 0.209997 0.870173
vt 0.271687 0.351500
vt 0.155642 0.403942
vt 0.349454 0.350913
vt 0.519536 0.870893
vt 0.318034 0.867123
vt 0.507213 0.466309
vt 0.591958 0.931914
vt 0.607368 0.455819
vt 0.052255 0.949177
vt 0.080416 0.335008
vt 0.015552 0.465958
vt 0.539723 0.327806
vt 0.240832 0.249637
vt 0.375614 0.246078
vt 0.321572 0.982200
vt 0.634424 0.817400
vt -0.000000 0.831304
vt 0.447533 0.996419
vt 0.198831 0.996419
vt 0.781034 0.000000
vt 1.000000 0.496218
s 0
usemtl Material.005
f 10/1/1 12/2/1 1/3/1
f 2/4/1 46/5/1 47/6/1
f 48/7/1 8/8/1 46/5/1
f 41/9/2 23/10/2 42/11/2
f 9/12/1 2/4/1 11/13/1
f 11/13/1 13/14/1 9/12/1
f 6/15/3 17/16/3 4/17/3
f 44/18/4 17/16/4 24/19/4
f 5/20/5 15/21/5 18/22/5
f 49/23/6 21/24/6 50/25/6
f 41/9/7 25/26/7 14/27/7
f 40/28/8 22/29/8 25/26/8
f 50/25/9 19/30/9 6/15/9
f 42/11/2 15/21/2 43/31/2
f 45/32/10 26/33/10 51/34/10
f 49/23/11 18/22/11 20/35/11
f 51/34/12 22/29/12 52/36/12
f 45/32/4 24/19/4 16/37/4
f 14/27/13 36/38/13 23/10/13
f 24/19/14 29/39/14 16/37/14
f 17/16/14 37/40/14 24/19/14
f 19/30/15 30/41/15 17/16/15
f 22/29/16 38/42/16 25/26/16
f 15/21/17 31/43/17 18/22/17
f 26/33/18 29/39/18 39/44/18
f 20/35/19 34/45/19 21/24/19
f 21/24/20 32/46/20 19/30/20
f 20/35/21 31/43/21 33/47/21
f 25/26/22 27/48/22 14/27/22
f 26/33/23 35/49/23 22/29/23
f 23/10/13 28/50/13 15/21/13
f 38/42/24 36/38/24 27/48/24
f 35/49/24 30/41/24 28/50/24
f 37/40/24 39/44/24 29/39/24
f 28/50/24 32/46/24 31/43/24
f 32/46/24 33/47/24 31/43/24
f 1/51/25 40/28/25 41/9/25
f 2/52/26 42/11/26 43/31/26
f 3/53/27 44/18/27 45/32/27
f 46/54/28 4/17/28 47/55/28
f 48/56/29 43/31/29 5/20/29
f 8/57/30 49/23/30 50/25/30
f 46/54/31 50/25/31 6/15/31
f 48/56/32 49/23/32 7/58/32
f 9/59/33 51/34/33 52/36/33
f 1/51/26 42/11/26 10/60/26
f 47/55/27 44/18/27 11/61/27
f 9/59/34 40/28/34 12/62/34
f 3/53/35 51/34/35 13/63/35
f 10/1/1 9/12/1 12/2/1
f 2/4/1 48/7/1 46/5/1
f 48/7/1 7/64/1 8/8/1
f 41/9/2 14/27/2 23/10/2
f 9/12/1 10/1/1 2/4/1
f 2/4/1 47/6/1 11/13/1
f 11/13/1 3/65/1 13/14/1
f 6/15/3 19/30/3 17/16/3
f 44/18/4 4/17/4 17/16/4
f 5/20/5 43/31/5 15/21/5
f 49/23/6 20/35/6 21/24/6
f 41/9/7 40/28/7 25/26/7
f 40/28/8 52/36/8 22/29/8
f 50/25/9 21/24/9 19/30/9
f 42/11/2 23/10/2 15/21/2
f 45/32/10 16/37/10 26/33/10
f 49/23/11 5/20/11 18/22/11
f 51/34/12 26/33/12 22/29/12
f 45/32/4 44/18/4 24/19/4
f 14/27/13 27/48/13 36/38/13
f 24/19/14 37/40/14 29/39/14
f 17/16/14 30/41/14 37/40/14
f 19/30/15 32/46/15 30/41/15
f 22/29/16 35/49/16 38/42/16
f 15/21/17 28/50/17 31/43/17
f 26/33/18 16/37/18 29/39/18
f 20/35/19 33/47/19 34/45/19
f 21/24/20 34/45/20 32/46/20
f 20/35/21 18/22/21 31/43/21
f 25/26/22 38/42/22 27/48/22
f 26/33/23 39/44/23 35/49/23
f 23/10/13 36/38/13 28/50/13
f 38/42/24 35/49/24 36/38/24
f 28/50/24 36/38/24 35/49/24
f 35/49/24 37/40/24 30/41/24
f 37/40/24 35/49/24 39/44/24
f 28/50/24 30/41/24 32/46/24
f 32/46/24 34/45/24 33/47/24
f 1/51/25 12/62/25 40/28/25
f 2/52/26 10/60/26 42/11/26
f 3/53/27 11/61/27 44/18/27
f 46/54/28 6/15/28 4/17/28
f 48/56/29 2/52/29 43/31/29
f 8/57/30 7/58/30 49/23/30
f 46/54/31 8/57/31 50/25/31
f 48/56/32 5/20/32 49/23/32
f 9/59/33 13/63/33 51/34/33
f 1/51/26 41/9/26 42/11/26
f 47/55/27 4/17/27 44/18/27
f 9/59/34 52/36/34 40/28/34
f 3/53/35 45/32/35 51/34/35
