# Blender 5.1.1
# www.blender.org
mtllib Lounge_Chair.mtl
o Lounge_Chair
v -1.839315 1.091100 0.000000
v -1.839315 3.826356 -3.076946
v -1.839315 1.091100 -3.076946
v -1.839315 2.118064 -3.076946
v 1.839315 1.091100 0.000000
v 1.839315 1.091100 -3.076946
v 1.839315 2.118064 -3.076946
v -1.839315 1.091100 -2.278798
v 1.839315 3.826356 -3.076946
v 1.839315 1.091100 -2.278798
v -2.681564 1.091100 -2.278798
v -2.681564 1.091100 0.000000
v -2.681564 2.118064 0.000000
v -2.681564 2.118064 -2.278798
v -2.681564 2.118064 -3.076946
v -2.681564 1.091100 -3.076946
v -1.839315 2.639835 -3.076946
v 1.839315 2.639835 -3.076946
v -1.839315 2.639835 0.000000
v -1.839315 2.639835 -2.278798
v -2.681564 2.639835 -2.278798
v -2.681564 2.639835 -3.076946
v -2.681564 2.639835 0.000000
v -1.839315 3.826356 0.000000
v -1.839315 3.826356 -2.278798
v 1.839315 3.826356 -2.278798
v -2.681564 3.826356 -2.278798
v -2.681564 3.826356 -3.076946
v -2.681564 3.826356 0.000000
v 1.715669 2.639835 -2.278798
v 1.839315 2.605317 -2.278798
v 1.839315 2.639835 -2.390846
v 1.839315 2.674354 -2.278798
v 1.777492 2.635211 -2.278798
v 1.822750 2.622576 -2.278798
v 1.839315 2.605317 0.000000
v 1.715669 2.639835 0.000000
v 1.822750 2.622576 0.000000
v 1.777492 2.635211 0.000000
v 1.048013 1.091100 -3.076946
v 1.048013 2.118064 -3.076946
v 1.048013 1.091100 0.000000
v 1.048013 1.091100 -2.278798
v 1.048013 2.639835 -3.076946
v 1.048013 3.826356 -3.076946
v 1.048013 3.826356 -2.278798
v 1.839315 2.083539 0.000000
v 1.839315 2.152589 0.000000
v 1.832790 2.106556 0.000000
v 1.832790 2.129572 0.000000
v 1.839315 2.152589 -2.278798
v 1.839315 2.083539 -2.278798
v 1.839315 2.118064 -2.390867
v 1.832790 2.129572 -2.278798
v 1.832790 2.106556 -2.278798
v -2.099309 -0.007606 -2.525178
v -2.421571 -0.007606 -2.525178
v 1.595049 -0.007606 -2.525178
v 1.595049 -0.007606 -2.830567
v -2.099309 -0.007606 -2.830567
v -2.421571 -0.007606 -2.830567
v 1.292280 -0.007606 -2.830567
v 1.292280 -0.007606 -2.525178
v 1.839315 0.609801 -3.076946
v 1.048013 0.609801 -3.076946
v 1.048013 0.609801 -2.278798
v 1.839315 0.609801 -2.278798
v -1.839315 0.609801 -3.076946
v -2.681564 0.609801 -3.076946
v -1.839315 0.609801 -2.278798
v -2.681564 0.609801 -2.278798
v 1.127143 0.921019 -3.003032
v 1.127143 0.921019 -2.352713
v 1.760185 0.921019 -3.003032
v 1.760185 0.921019 -2.352713
v -2.597340 0.921019 -2.999857
v -2.597340 0.921019 -2.355888
v -1.923540 0.921019 -2.999857
v -1.923540 0.921019 -2.355888
v -1.162392 2.639835 -2.278798
v -1.162392 2.639835 0.000000
v -2.245208 5.428151 0.000000
v -2.245208 5.428151 -2.278798
v -1.568285 5.428151 -2.278798
v -1.568285 5.428151 0.000000
v 1.839315 1.091100 -2.390866
v 1.839315 3.826356 -2.390846
v -1.839315 3.826356 3.076946
v -1.839315 1.091100 3.076946
v -1.839315 2.118064 3.076946
v 1.839315 1.091100 3.076946
v 1.839315 2.118064 3.076946
v -1.839315 1.091100 2.278798
v 1.839315 3.826356 3.076946
v 1.839315 1.091100 2.278798
v -2.681564 1.091100 2.278798
v -2.681564 2.118064 2.278798
v -2.681564 2.118064 3.076946
v -2.681564 1.091100 3.076946
v -1.839315 2.639835 3.076946
v 1.839315 2.639835 3.076946
v -1.839315 2.639835 2.278798
v -2.681564 2.639835 2.278798
v -2.681564 2.639835 3.076946
v -1.839315 3.826356 2.278798
v 1.839315 3.826356 2.278798
v -2.681564 3.826356 2.278798
v -2.681564 3.826356 3.076946
v 1.715669 2.639835 2.278798
v 1.839315 2.605317 2.278798
v 1.839315 2.639835 2.390846
v 1.839315 2.674354 2.278798
v 1.777492 2.635211 2.278798
v 1.822750 2.622576 2.278798
v 1.048013 1.091100 3.076946
v 1.048013 2.118064 3.076946
v 1.048013 1.091100 2.278798
v 1.048013 2.639835 3.076946
v 1.048013 3.826356 3.076946
v 1.048013 3.826356 2.278798
v 1.839315 2.152589 2.278798
v 1.839315 2.083539 2.278798
v 1.839315 2.118064 2.390867
v 1.832790 2.129572 2.278798
v 1.832790 2.106556 2.278798
v -2.099309 -0.007606 2.525178
v -2.421571 -0.007606 2.525178
v 1.595049 -0.007606 2.525178
v 1.595049 -0.007606 2.830567
v -2.099309 -0.007606 2.830567
v -2.421571 -0.007606 2.830567
v 1.292280 -0.007606 2.830567
v 1.292280 -0.007606 2.525178
v 1.839315 0.609801 3.076946
v 1.048013 0.609801 3.076946
v 1.048013 0.609801 2.278798
v 1.839315 0.609801 2.278798
v -1.839315 0.609801 3.076946
v -2.681564 0.609801 3.076946
v -1.839315 0.609801 2.278798
v -2.681564 0.609801 2.278798
v 1.127143 0.921019 3.003032
v 1.127143 0.921019 2.352713
v 1.760185 0.921019 3.003032
v 1.760185 0.921019 2.352713
v -2.597340 0.921019 2.999857
v -2.597340 0.921019 2.355888
v -1.923540 0.921019 2.999857
v -1.923540 0.921019 2.355888
v -1.162392 2.639835 2.278798
v -2.245208 5.428151 2.278798
v -1.568285 5.428151 2.278798
v 1.839315 1.091100 2.390866
v 1.839315 3.826356 2.390846
vn -0.0000 -0.3706 -0.9288
vn -0.0000 -0.0000 -1.0000
vn -0.0000 -1.0000 -0.0000
vn -1.0000 -0.0000 -0.0000
vn 1.0000 -0.0000 -0.0000
vn -0.0000 1.0000 -0.0000
vn 0.2578 -0.9234 0.2845
vn 0.0746 0.9972 -0.0000
vn 0.2689 0.9632 -0.0000
vn 0.7215 0.6925 -0.0000
vn -0.0000 -0.0000 1.0000
vn 0.9587 -0.2718 0.0837
vn 0.9983 -0.0000 0.0581
vn 0.9587 0.2718 0.0837
vn 0.9621 -0.2727 -0.0000
vn 0.9621 0.2727 -0.0000
vn -0.9299 -0.3679 -0.0000
vn 0.9299 -0.3679 -0.0000
vn -0.0000 -0.3706 0.9288
vn 0.9216 -0.3881 -0.0000
vn -0.9216 -0.3881 -0.0000
vn -0.0000 0.2311 0.9729
vn 0.9692 0.2464 -0.0000
vn -0.9692 0.2464 -0.0000
vn -0.0000 0.2311 -0.9729
vn -0.0000 0.2404 0.9707
vn -0.9653 0.2612 -0.0000
vn 0.9653 0.2612 -0.0000
vn -0.0000 0.2404 -0.9707
vn -0.0000 -0.3986 -0.9171
vn -0.9067 -0.4218 -0.0000
vn 0.9067 -0.4218 -0.0000
vn -0.0000 -0.3986 0.9171
vn -0.0000 -0.4128 -0.9108
vn 0.8961 -0.4438 -0.0000
vn -0.8961 -0.4438 -0.0000
vn -0.0000 -0.4128 0.9108
vn 0.9896 0.1441 -0.0000
vn -0.9896 -0.1441 -0.0000
vn 0.7056 0.6772 0.2086
vn 0.2642 0.9466 0.1849
vn 0.0743 0.9939 0.0820
vn 0.2578 -0.9234 -0.2845
vn 0.9587 -0.2718 -0.0837
vn 0.9983 -0.0000 -0.0581
vn 0.9587 0.2718 -0.0837
vn 0.7056 0.6772 -0.2086
vn 0.2642 0.9466 -0.1849
vn 0.0743 0.9939 -0.0820
vn 0.7214 0.6925 -0.0000
vn 0.9621 -0.2728 -0.0000
vn 0.9621 0.2728 -0.0000
vt 0.455154 0.777734
vt 0.488476 0.753502
vt 0.516959 0.782807
vt 0.349787 0.414759
vt 0.374942 0.550322
vt 0.349787 0.550322
vt 0.190414 0.709631
vt 0.098973 0.684137
vt 0.190414 0.684137
vt 0.244795 0.414759
vt 0.349787 0.345884
vt 0.613125 0.775346
vt 0.645261 0.751311
vt 0.673197 0.779268
vt 0.244795 0.550322
vt 0.217745 0.414759
vt 0.190414 0.414759
vt 0.217745 0.550322
vt 0.190414 0.550322
vt 0.098973 0.414759
vt 0.098973 0.550322
vt 0.098973 0.577736
vt 0.190414 0.577736
vt 0.244795 0.345884
vt 0.190414 0.345884
vt 0.190414 0.005222
vt 0.098973 0.161846
vt 0.098973 0.005222
vt 0.098973 0.345884
vt 0.190414 0.189260
vt 0.217745 0.345884
vt 0.667446 0.357005
vt 0.630949 0.319735
vt 0.667446 0.319735
vt 0.630949 0.140417
vt 0.636073 0.140417
vt 0.667446 0.175077
vt 0.190414 0.161846
vt 0.873832 0.357005
vt 0.873832 0.319735
vt 0.630949 0.569944
vt 0.667446 0.569944
vt 0.873832 0.175077
vt 0.630949 0.045435
vt 0.630949 0.012068
vt 0.643762 0.012068
vt 0.973427 0.730741
vt 0.872785 0.743235
vt 0.872785 0.730741
vt 0.973427 0.743235
vt 0.872785 0.760366
vt 0.973427 0.760366
vt 0.872785 0.773681
vt 0.845694 0.582551
vt 0.872785 0.433980
vt 0.872785 0.582551
vt 0.535682 0.012068
vt 0.630949 0.175077
vt 0.667446 0.140417
vt 0.873832 0.140417
vt 0.217745 0.684137
vt 0.217745 0.577736
vt 0.374942 0.345884
vt 0.374942 0.414759
vt 0.536708 0.587216
vt 0.545202 0.592079
vt 0.521337 0.595602
vt 0.544986 0.595319
vt 0.544928 0.598583
vt 0.973427 0.826941
vt 0.872785 0.845907
vt 0.872785 0.826941
vt 0.098973 0.846722
vt 0.190414 0.843684
vt 0.190414 0.846722
vt 0.098973 0.843684
vt 0.190414 0.840636
vt 0.973427 0.773681
vt 0.098973 0.709631
vt 0.339094 0.652738
vt 0.331703 0.582224
vt 0.339094 0.582224
vt 0.299701 0.794664
vt 0.331703 0.652738
vt 0.331703 0.794664
vt 0.487694 0.744645
vt 0.483832 0.749637
vt 0.640873 0.747487
vt 0.649181 0.746063
vt 0.676929 0.718204
vt 0.644792 0.742239
vt 0.616857 0.714282
vt 0.458987 0.715219
vt 0.492332 0.748518
vt 0.520970 0.720531
vt 0.693540 0.698210
vt 0.596762 0.697842
vt 0.596514 0.795340
vt 0.693292 0.795708
vt 0.537305 0.700851
vt 0.438822 0.698479
vt 0.537108 0.799483
vt 0.438893 0.797495
vt 0.582030 0.809928
vt 0.708023 0.810110
vt 0.708023 0.683622
vt 0.582030 0.701200
vt 0.582030 0.683440
vt 0.424231 0.812174
vt 0.552011 0.814308
vt 0.423925 0.683440
vt 0.552011 0.686408
vt 0.872785 0.423918
vt 0.973427 0.433980
vt 0.973427 0.582551
vt 0.745052 0.582551
vt 0.845694 0.433980
vt 0.546430 0.575891
vt 0.526672 0.573943
vt 0.527616 0.576272
vt 0.526234 0.571505
vt 0.643383 0.012068
vt 0.338012 0.652738
vt 0.338012 0.794664
vt 0.299701 0.582224
vt 0.299701 0.652738
vt 0.760964 0.012068
vt 0.098973 0.189260
vt 0.630949 0.357005
vt 0.467815 0.175077
vt 0.472200 0.012068
vt 0.973427 0.845907
vt 0.098973 0.840636
vt 0.973427 0.423918
vt 0.745052 0.433980
s 0
usemtl Material.007
f 68/1/1 61/2/1 69/3/1
f 41/4/2 6/5/2 40/6/2
f 10/7/3 42/8/3 43/9/3
f 4/10/2 44/11/2 41/4/2
f 64/12/1 62/13/1 65/14/1
f 3/15/2 15/16/2 4/10/2
f 14/17/4 16/18/4 11/19/4
f 13/20/4 11/19/4 12/21/4
f 1/22/3 11/19/3 8/23/3
f 15/16/2 17/24/2 4/10/2
f 13/20/4 21/25/4 14/17/4
f 20/26/5 24/27/5 19/28/5
f 23/29/4 27/30/4 21/25/4
f 14/17/4 22/31/4 15/16/4
f 28/32/6 25/33/6 2/34/6
f 26/35/6 87/36/6 45/37/6
f 27/30/6 24/27/6 25/38/6
f 22/39/2 2/34/2 17/40/2
f 21/41/4 28/32/4 22/42/4
f 17/40/2 45/37/2 44/43/2
f 33/44/7 30/45/7 32/46/7
f 37/47/8 34/48/8 30/49/8
f 39/50/9 35/51/9 34/48/9
f 38/52/10 31/53/10 35/51/10
f 33/44/5 87/36/5 26/35/5
f 20/54/2 84/55/2 80/56/2
f 80/57/11 33/44/11 46/58/11
f 44/43/2 9/59/2 18/60/2
f 46/58/6 2/34/6 25/33/6
f 40/61/3 8/23/3 3/62/3
f 41/4/2 18/63/2 7/64/2
f 43/9/3 1/22/3 8/23/3
f 4/10/2 40/6/2 3/15/2
f 51/65/12 54/66/12 53/67/12
f 54/66/13 55/68/13 53/67/13
f 55/68/14 52/69/14 53/67/14
f 48/70/15 54/71/15 51/72/15
f 50/73/5 55/74/5 54/75/5
f 49/76/16 52/77/16 55/74/16
f 51/72/5 36/78/5 48/70/5
f 52/77/5 5/79/5 10/7/5
f 51/80/5 32/81/5 31/82/5
f 6/83/5 53/84/5 86/85/5
f 56/86/3 61/2/3 60/87/3
f 59/88/3 63/89/3 62/13/3
f 65/14/17 63/89/17 66/90/17
f 64/12/18 58/91/18 59/88/18
f 66/90/19 58/91/19 67/92/19
f 70/93/20 60/87/20 68/1/20
f 69/3/21 57/94/21 71/95/21
f 71/95/19 56/86/19 70/93/19
f 73/96/22 67/92/22 75/97/22
f 75/97/23 64/12/23 74/98/23
f 72/99/24 66/90/24 73/96/24
f 74/98/25 65/14/25 72/99/25
f 77/100/26 70/93/26 79/101/26
f 76/102/27 71/95/27 77/100/27
f 79/101/28 68/1/28 78/103/28
f 78/103/29 69/3/29 76/102/29
f 6/104/30 72/99/30 40/105/30
f 40/105/31 73/96/31 43/106/31
f 86/107/32 75/97/32 74/98/32
f 43/106/33 75/97/33 10/108/33
f 3/109/34 76/102/34 16/110/34
f 8/111/35 78/103/35 3/109/35
f 16/110/36 77/100/36 11/112/36
f 11/112/37 79/101/37 8/111/37
f 80/56/6 37/47/6 30/49/6
f 83/113/6 85/114/6 84/55/6
f 80/56/38 85/114/38 81/115/38
f 19/116/39 83/117/39 20/54/39
f 32/118/40 35/119/40 31/120/40
f 35/119/41 32/118/41 34/121/41
f 34/122/42 32/46/42 30/45/42
f 86/85/5 52/123/5 10/124/5
f 53/84/5 18/125/5 32/81/5
f 32/46/5 9/59/5 87/36/5
f 131/2/19 138/1/19 139/3/19
f 91/5/11 116/4/11 115/6/11
f 42/8/3 95/7/3 117/9/3
f 118/11/11 90/10/11 116/4/11
f 132/13/19 134/12/19 135/14/19
f 98/16/11 89/15/11 90/10/11
f 99/18/4 97/17/4 96/19/4
f 96/19/4 13/20/4 12/21/4
f 96/19/3 1/22/3 93/23/3
f 100/24/11 98/16/11 90/10/11
f 103/25/4 13/20/4 97/17/4
f 24/27/5 102/26/5 19/28/5
f 107/30/4 23/29/4 103/25/4
f 104/31/4 97/17/4 98/16/4
f 105/33/6 108/32/6 88/34/6
f 119/37/6 154/36/6 106/35/6
f 24/27/6 107/30/6 105/38/6
f 88/34/11 104/39/11 100/40/11
f 108/32/4 103/41/4 104/42/4
f 119/37/11 100/40/11 118/43/11
f 112/44/43 111/46/43 109/45/43
f 113/48/8 37/47/8 109/49/8
f 114/51/9 39/50/9 113/48/9
f 110/53/10 38/52/10 114/51/10
f 112/44/5 154/36/5 111/46/5
f 152/55/11 102/54/11 150/56/11
f 120/58/2 112/44/2 150/57/2
f 94/59/11 118/43/11 101/60/11
f 88/34/6 120/58/6 105/33/6
f 93/23/3 115/61/3 89/62/3
f 101/63/11 116/4/11 92/64/11
f 1/22/3 117/9/3 93/23/3
f 115/6/11 90/10/11 89/15/11
f 121/65/44 123/67/44 124/66/44
f 124/66/45 123/67/45 125/68/45
f 125/68/46 123/67/46 122/69/46
f 124/71/15 48/70/15 121/72/15
f 125/74/5 50/73/5 124/75/5
f 122/77/16 49/76/16 125/74/16
f 36/78/5 121/72/5 48/70/5
f 5/79/5 122/77/5 95/7/5
f 121/80/5 111/81/5 123/84/5
f 91/83/5 123/84/5 92/126/5
f 131/2/3 126/86/3 130/87/3
f 133/89/3 129/88/3 132/13/3
f 133/89/17 135/14/17 136/90/17
f 129/88/18 137/92/18 134/12/18
f 128/91/1 136/90/1 137/92/1
f 130/87/20 140/93/20 138/1/20
f 127/94/21 139/3/21 141/95/21
f 126/86/1 141/95/1 140/93/1
f 137/92/25 143/96/25 145/97/25
f 134/12/23 145/97/23 144/98/23
f 136/90/24 142/99/24 143/96/24
f 135/14/22 144/98/22 142/99/22
f 140/93/29 147/100/29 149/101/29
f 141/95/27 146/102/27 147/100/27
f 138/1/28 149/101/28 148/103/28
f 139/3/26 148/103/26 146/102/26
f 142/99/33 91/104/33 115/105/33
f 143/96/31 115/105/31 117/106/31
f 144/98/32 95/108/32 153/107/32
f 145/97/30 117/106/30 95/108/30
f 146/102/37 89/109/37 99/110/37
f 148/103/35 93/111/35 89/109/35
f 147/100/36 99/110/36 96/112/36
f 149/101/34 96/112/34 93/111/34
f 37/47/6 150/56/6 109/49/6
f 85/114/6 151/113/6 152/55/6
f 85/114/38 150/56/38 81/115/38
f 151/117/39 19/116/39 102/54/39
f 111/118/47 110/120/47 114/119/47
f 114/119/48 113/121/48 111/118/48
f 113/122/49 109/45/49 111/46/49
f 153/85/5 122/123/5 123/84/5
f 101/125/5 123/84/5 111/81/5
f 154/36/5 101/127/5 111/46/5
f 68/1/1 60/87/1 61/2/1
f 41/4/2 7/64/2 6/5/2
f 10/7/3 5/79/3 42/8/3
f 4/10/2 17/24/2 44/11/2
f 64/12/1 59/88/1 62/13/1
f 3/15/2 16/18/2 15/16/2
f 14/17/4 15/16/4 16/18/4
f 13/20/4 14/17/4 11/19/4
f 1/22/3 12/21/3 11/19/3
f 15/16/2 22/31/2 17/24/2
f 13/20/4 23/29/4 21/25/4
f 20/26/5 25/38/5 24/27/5
f 23/29/4 29/128/4 27/30/4
f 14/17/4 21/25/4 22/31/4
f 28/32/6 27/129/6 25/33/6
f 45/37/6 46/58/6 26/35/6
f 87/36/6 9/59/6 45/37/6
f 27/30/6 29/128/6 24/27/6
f 22/39/2 28/32/2 2/34/2
f 21/41/4 27/129/4 28/32/4
f 17/40/2 2/34/2 45/37/2
f 37/47/8 39/50/8 34/48/8
f 39/50/9 38/52/9 35/51/9
f 38/52/50 36/78/50 31/53/50
f 33/44/5 32/46/5 87/36/5
f 20/54/2 83/117/2 84/55/2
f 25/130/11 20/131/11 80/57/11
f 80/57/11 30/45/11 33/44/11
f 33/44/11 26/35/11 46/58/11
f 46/58/11 25/130/11 80/57/11
f 44/43/2 45/37/2 9/59/2
f 46/58/6 45/37/6 2/34/6
f 40/61/3 43/9/3 8/23/3
f 41/4/2 44/11/2 18/63/2
f 43/9/3 42/8/3 1/22/3
f 4/10/2 41/4/2 40/6/2
f 48/70/51 50/132/51 54/71/51
f 50/73/5 49/76/5 55/74/5
f 49/76/52 47/133/52 52/77/52
f 51/72/5 31/53/5 36/78/5
f 52/77/5 47/133/5 5/79/5
f 51/80/5 53/84/5 32/81/5
f 6/83/5 7/126/5 53/84/5
f 56/86/3 57/94/3 61/2/3
f 59/88/3 58/91/3 63/89/3
f 65/14/17 62/13/17 63/89/17
f 64/12/18 67/92/18 58/91/18
f 66/90/19 63/89/19 58/91/19
f 70/93/20 56/86/20 60/87/20
f 69/3/21 61/2/21 57/94/21
f 71/95/19 57/94/19 56/86/19
f 73/96/22 66/90/22 67/92/22
f 75/97/23 67/92/23 64/12/23
f 72/99/24 65/14/24 66/90/24
f 74/98/25 64/12/25 65/14/25
f 77/100/26 71/95/26 70/93/26
f 76/102/27 69/3/27 71/95/27
f 79/101/28 70/93/28 68/1/28
f 78/103/29 68/1/29 69/3/29
f 6/104/30 74/98/30 72/99/30
f 40/105/31 72/99/31 73/96/31
f 74/98/32 6/104/32 86/107/32
f 86/107/32 10/108/32 75/97/32
f 43/106/33 73/96/33 75/97/33
f 3/109/34 78/103/34 76/102/34
f 8/111/35 79/101/35 78/103/35
f 16/110/36 76/102/36 77/100/36
f 11/112/37 77/100/37 79/101/37
f 80/56/6 81/115/6 37/47/6
f 83/113/6 82/134/6 85/114/6
f 80/56/38 84/55/38 85/114/38
f 19/116/39 82/135/39 83/117/39
f 86/85/5 53/84/5 52/123/5
f 53/84/5 7/126/5 18/125/5
f 32/46/5 18/127/5 9/59/5
f 131/2/19 130/87/19 138/1/19
f 91/5/11 92/64/11 116/4/11
f 42/8/3 5/79/3 95/7/3
f 118/11/11 100/24/11 90/10/11
f 132/13/19 129/88/19 134/12/19
f 98/16/11 99/18/11 89/15/11
f 99/18/4 98/16/4 97/17/4
f 96/19/4 97/17/4 13/20/4
f 96/19/3 12/21/3 1/22/3
f 100/24/11 104/31/11 98/16/11
f 103/25/4 23/29/4 13/20/4
f 24/27/5 105/38/5 102/26/5
f 107/30/4 29/128/4 23/29/4
f 104/31/4 103/25/4 97/17/4
f 105/33/6 107/129/6 108/32/6
f 106/35/6 120/58/6 119/37/6
f 119/37/6 94/59/6 154/36/6
f 24/27/6 29/128/6 107/30/6
f 88/34/11 108/32/11 104/39/11
f 108/32/4 107/129/4 103/41/4
f 119/37/11 88/34/11 100/40/11
f 113/48/8 39/50/8 37/47/8
f 114/51/9 38/52/9 39/50/9
f 110/53/50 36/78/50 38/52/50
f 112/44/5 106/35/5 154/36/5
f 152/55/11 151/117/11 102/54/11
f 150/57/2 102/131/2 105/130/2
f 120/58/2 106/35/2 112/44/2
f 150/57/2 105/130/2 120/58/2
f 112/44/2 109/45/2 150/57/2
f 94/59/11 119/37/11 118/43/11
f 88/34/6 119/37/6 120/58/6
f 93/23/3 117/9/3 115/61/3
f 101/63/11 118/11/11 116/4/11
f 1/22/3 42/8/3 117/9/3
f 115/6/11 116/4/11 90/10/11
f 124/71/51 50/132/51 48/70/51
f 125/74/5 49/76/5 50/73/5
f 122/77/52 47/133/52 49/76/52
f 36/78/5 110/53/5 121/72/5
f 5/79/5 47/133/5 122/77/5
f 121/80/5 110/82/5 111/81/5
f 91/83/5 153/85/5 123/84/5
f 131/2/3 127/94/3 126/86/3
f 133/89/3 128/91/3 129/88/3
f 133/89/17 132/13/17 135/14/17
f 129/88/18 128/91/18 137/92/18
f 128/91/1 133/89/1 136/90/1
f 130/87/20 126/86/20 140/93/20
f 127/94/21 131/2/21 139/3/21
f 126/86/1 127/94/1 141/95/1
f 137/92/25 136/90/25 143/96/25
f 134/12/23 137/92/23 145/97/23
f 136/90/24 135/14/24 142/99/24
f 135/14/22 134/12/22 144/98/22
f 140/93/29 141/95/29 147/100/29
f 141/95/27 139/3/27 146/102/27
f 138/1/28 140/93/28 149/101/28
f 139/3/26 138/1/26 148/103/26
f 142/99/33 144/98/33 91/104/33
f 143/96/31 142/99/31 115/105/31
f 153/107/32 91/104/32 144/98/32
f 144/98/32 145/97/32 95/108/32
f 145/97/30 143/96/30 117/106/30
f 146/102/37 148/103/37 89/109/37
f 148/103/35 149/101/35 93/111/35
f 147/100/36 146/102/36 99/110/36
f 149/101/34 147/100/34 96/112/34
f 37/47/6 81/115/6 150/56/6
f 85/114/6 82/134/6 151/113/6
f 85/114/38 152/55/38 150/56/38
f 151/117/39 82/135/39 19/116/39
f 153/85/5 95/124/5 122/123/5
f 101/125/5 92/126/5 123/84/5
f 154/36/5 94/59/5 101/127/5
