# Blender 5.1.1
# www.blender.org
mtllib Shelf.mtl
o Shelf
v -16.493044 0.510198 -16.977129
v -16.477692 1.232782 -16.977129
v -16.493044 0.510198 -28.550421
v -16.477692 1.232782 -28.550421
v 16.493044 0.510198 -16.977129
v 16.477692 1.232782 -16.977129
v 16.493044 0.510198 -28.550421
v 16.477692 1.232782 -28.550421
v -16.477692 1.232782 -18.239346
v -15.154280 1.232782 -28.550421
v 16.477692 1.232782 -27.288204
v -15.093429 1.220278 -16.977890
v -15.154280 1.232782 -18.239346
v 15.154280 1.232782 -16.977129
v -17.631969 1.232782 -16.452700
v -16.477692 1.232782 -27.288204
v -15.154280 1.232782 -27.288204
v -17.631969 1.232782 -22.763775
v -17.631969 1.232782 -29.074850
v 15.154280 1.232782 -28.550421
v 15.154280 1.232782 -27.288204
v 0.000000 1.232782 -29.074850
v 17.631969 1.232782 -29.074850
v 16.477692 1.232782 -18.239346
v 15.154280 1.232782 -18.239346
v 17.631969 1.232782 -22.763775
v 17.631969 1.232782 -16.452700
v 0.000000 1.232782 -16.452700
v -15.153896 10.910599 -16.977890
v -16.477692 10.910503 -16.977129
v -16.477692 10.910503 -18.239346
v -15.154280 10.910503 -18.239346
v -16.477692 10.910501 -27.288204
v -16.477692 10.910501 -28.550421
v -15.154280 10.910501 -28.550421
v -15.154280 10.910501 -27.288204
v 15.154280 10.910503 -28.550421
v 16.477692 10.910503 -28.550421
v 16.477692 10.910503 -27.288204
v 15.154280 10.910503 -27.288204
v 16.477692 10.910501 -18.239346
v 16.477692 10.910501 -16.977129
v 15.154280 10.910501 -16.977129
v 15.154280 10.910501 -18.239346
v -15.154280 11.605745 -16.977129
v -16.477692 11.605745 -16.977129
v -16.477692 11.605745 -18.239346
v -16.477692 11.605743 -27.288204
v -16.477692 11.605743 -28.550421
v -15.154280 11.605743 -28.550421
v 15.154280 11.605745 -28.550421
v 16.477692 11.605745 -28.550421
v 16.477692 11.605745 -27.288204
v 16.477692 11.605743 -18.239346
v 16.477692 11.605743 -16.977129
v 15.154280 11.605743 -16.977129
v -16.493044 0.510198 -18.239346
v -15.138927 0.510198 -28.550421
v 16.493044 0.510198 -18.239346
v -15.223621 0.510198 -16.977129
v -15.177940 0.510198 -18.239557
v -16.493044 0.510198 -27.288204
v -17.631969 0.510198 -16.452700
v 15.138927 0.510198 -16.977129
v 15.184608 0.510198 -18.239557
v 0.000000 1.232782 -18.239346
v 17.631969 0.510198 -16.452700
v 16.493044 0.510198 -27.288204
v -15.093246 0.510198 -27.288418
v 15.138927 0.510198 -28.550421
v -17.631969 0.510198 -29.074850
v 15.184608 0.510198 -27.288418
v 17.631969 0.510198 -29.074850
v 0.000000 1.232782 -27.288204
v -16.195801 -0.939089 -17.943790
v -16.195801 -0.939089 -17.272684
v -15.520864 -0.939089 -17.272684
v -15.520864 -0.939089 -17.943790
v 15.456001 -0.939089 -17.272684
v 16.175970 -0.939089 -17.272684
v 16.175970 -0.939089 -17.943790
v 15.456001 -0.939089 -17.943790
v -15.456001 -0.939089 -28.254866
v -16.175970 -0.939089 -28.254866
v -16.175970 -0.939089 -27.583759
v -15.456001 -0.939089 -27.583759
v 16.175970 -0.939089 -27.583759
v 16.175970 -0.939089 -28.254866
v 15.456001 -0.939089 -28.254866
v 15.456001 -0.939089 -27.583759
v -15.154280 11.605743 -27.288202
v 15.154282 11.605745 -27.288204
v -15.154280 11.605745 -18.239346
v 15.154280 11.605743 -18.239347
v -15.443266 13.172029 -17.080566
v -16.188705 13.172029 -17.080566
v -16.188705 13.172029 -18.135906
v -16.188705 13.172028 -27.391644
v -16.188705 13.172028 -28.446983
v -15.443266 13.172028 -28.446983
v 15.443266 13.172029 -28.446983
v 16.188705 13.172029 -28.446983
v 16.188705 13.172029 -27.391644
v 16.188705 13.172028 -18.135906
v 16.188705 13.172028 -17.080566
v 15.443266 13.172028 -17.080566
v -15.443266 13.172028 -27.391642
v 15.443268 13.172029 -27.391644
v 15.443266 13.172028 -18.135908
v -15.443266 13.172029 -18.135908
v -15.154280 13.172029 -16.977129
v -16.477692 13.172029 -16.977129
v -16.477692 13.172029 -18.239346
v -16.477692 13.172028 -27.288204
v -16.477692 13.172028 -28.550421
v -15.154280 13.172028 -28.550421
v 15.154280 13.172029 -28.550421
v 16.477692 13.172029 -28.550421
v 16.477692 13.172029 -27.288204
v 16.477692 13.172028 -18.239346
v 16.477692 13.172028 -16.977129
v 15.154280 13.172028 -16.977129
v -15.154280 13.172028 -27.288202
v 15.154282 13.172029 -27.288204
v 15.154280 13.172028 -18.239347
v -15.154280 13.172029 -18.239346
v -15.443266 12.877096 -17.080566
v -16.188705 12.877096 -17.080566
v -16.188705 12.877096 -18.135906
v -16.188705 12.877094 -27.391644
v -16.188705 12.877094 -28.446983
v -15.443266 12.877094 -28.446983
v 15.443266 12.877096 -28.446983
v 16.188705 12.877096 -28.446983
v 16.188705 12.877096 -27.391644
v 16.188705 12.877094 -18.135906
v 16.188705 12.877094 -17.080566
v 15.443266 12.877094 -17.080566
v -15.443266 12.877094 -27.391642
v 15.443268 12.877096 -27.391644
v 15.443266 12.877094 -18.135908
v -15.443266 12.877096 -18.135908
v 0.000000 0.510198 -16.452700
v 0.000000 0.510198 -29.074850
v -17.631969 0.510198 -22.763775
v 17.631969 0.510198 -22.763775
vn -1.0000 -0.0000 -0.0000
vn -0.0000 -0.0000 -1.0000
vn 1.0000 -0.0000 -0.0000
vn -0.0000 -0.0000 1.0000
vn -0.0001 -0.1999 -0.9798
vn 0.9997 0.0031 -0.0242
vn 0.0007 0.9998 -0.0206
vn -0.0000 1.0000 -0.0000
vn 0.0006 -0.0000 1.0000
vn -0.0000 -1.0000 -0.0000
vn -0.0000 -0.0005 1.0000
vn 0.0003 -0.0005 1.0000
vn -0.0000 -0.1998 -0.9798
vn 0.9762 -0.2156 0.0231
vn -0.9797 -0.1989 0.0232
vn -0.9769 -0.2137 -0.0000
vn -0.0001 -0.1997 0.9798
vn 0.9733 -0.2283 -0.0230
vn -0.0000 -0.1998 0.9798
vn 0.0001 -0.1998 0.9798
vn 0.9769 -0.2137 -0.0000
vn -0.9797 -0.1989 -0.0231
vn -0.9796 -0.2009 -0.0000
vn 0.0001 -0.1999 -0.9798
vn -0.0005 1.0000 0.0041
vt 0.965822 0.493037
vt 0.952745 0.493037
vt 0.952745 0.424811
vt 0.965822 0.424811
vt 0.965822 0.356585
vt 0.952745 0.356585
vt 0.952745 0.310297
vt 0.965822 0.310297
vt 0.965822 0.721970
vt 0.952745 0.721970
vt 0.952745 0.653744
vt 0.965822 0.653744
vt 0.965822 0.585518
vt 0.952745 0.585518
vt 0.952745 0.539325
vt 0.965822 0.539325
vt 0.851875 0.738007
vt 0.899903 0.738084
vt 0.884426 0.753529
vt 0.868907 0.753529
vt 0.089982 0.381164
vt 0.053769 0.381164
vt 0.053769 0.025266
vt 0.089982 0.025266
vt 0.053702 0.025266
vt 0.089982 0.025266
vt 0.236762 0.480188
vt 0.249921 0.480188
vt 0.249921 0.718647
vt 0.236762 0.718647
vt 0.273156 0.480188
vt 0.273156 0.718647
vt 0.089681 0.480188
vt 0.089562 0.459467
vt 0.153378 0.441126
vt 0.217466 0.459277
vt 0.217415 0.480188
vt 0.033989 0.480188
vt 0.057224 0.480188
vt 0.057224 0.718647
vt 0.033989 0.718647
vt 0.070383 0.480188
vt 0.070383 0.718647
vt 0.089681 0.718647
vt 0.070383 0.957234
vt 0.057267 0.957234
vt 0.057267 0.718647
vt 0.034033 0.957234
vt 0.034033 0.718647
vt 0.217415 0.956963
vt 0.217435 0.977781
vt 0.153596 0.995917
vt 0.089756 0.977782
vt 0.089681 0.956963
vt 0.273112 0.957234
vt 0.249878 0.957234
vt 0.249878 0.718647
vt 0.273112 0.718647
vt 0.236762 0.957234
vt 0.910369 0.534723
vt 0.910369 0.600586
vt 0.854897 0.600586
vt 0.854897 0.534723
vt 0.910370 0.468794
vt 0.854896 0.468794
vt 0.541582 0.381078
vt 0.798472 0.381078
vt 0.798472 0.399937
vt 0.541582 0.399937
vt 0.517953 0.956470
vt 0.518603 0.481399
vt 0.542341 0.481991
vt 0.541636 0.956973
vt 0.517979 0.977229
vt 0.348278 0.977282
vt 0.348217 0.956509
vt 0.348251 0.480375
vt 0.348302 0.459610
vt 0.518611 0.460631
vt 0.324516 0.956681
vt 0.324516 0.480721
vt 0.541735 0.313217
vt 0.798622 0.313214
vt 0.798622 0.332073
vt 0.541732 0.332073
vt 0.195967 0.192931
vt 0.165792 0.192931
vt 0.165792 0.395081
vt 0.195967 0.395081
vt 0.250895 0.192244
vt 0.220720 0.192244
vt 0.220720 0.394395
vt 0.250895 0.394394
vt 0.587350 0.955934
vt 0.587350 0.479779
vt 0.610986 0.479815
vt 0.611000 0.956078
vt 0.851885 0.738349
vt 0.899786 0.738349
vt 0.884429 0.753559
vt 0.868815 0.753559
vt 0.899928 0.786907
vt 0.851622 0.786907
vt 0.868641 0.769705
vt 0.884535 0.769705
vt 0.899937 0.786669
vt 0.884426 0.769579
vt 0.956433 0.832958
vt 0.852211 0.832958
vt 0.837673 0.832958
vt 0.831632 0.828263
vt 0.904322 0.828263
vt 0.977012 0.828263
vt 0.970971 0.832958
vt 0.217415 0.718647
vt 0.852208 0.838352
vt 0.956431 0.838352
vt 0.852208 0.963176
vt 0.837673 0.963364
vt 0.837673 0.838541
vt 0.837673 0.968947
vt 0.831632 0.973642
vt 0.831632 0.900953
vt 0.956431 0.963525
vt 0.970971 0.838541
vt 0.970971 0.963713
vt 0.956433 0.968947
vt 0.852211 0.968947
vt 0.970971 0.968947
vt 0.977012 0.973642
vt 0.904322 0.973642
vt 0.868748 0.753601
vt 0.884461 0.753601
vt 0.884461 0.769550
vt 0.868748 0.769550
vt 0.868907 0.769579
vt 0.884429 0.769566
vt 0.868815 0.769566
vt 0.868641 0.753679
vt 0.884535 0.753679
vt 0.899928 0.738078
vt 0.851885 0.786719
vt 0.851622 0.738078
vt 0.899786 0.786719
vt 0.899946 0.787006
vt 0.851663 0.787006
vt 0.899946 0.738084
vt 0.851663 0.738084
vt 0.851865 0.786669
vt 0.625555 0.067577
vt 0.625555 0.135058
vt 0.544020 0.135058
vt 0.544020 0.067577
vt 0.780500 0.955801
vt 0.780504 0.976596
vt 0.611041 0.976873
vt 0.780486 0.479538
vt 0.804136 0.479682
vt 0.804136 0.955837
vt 0.470125 0.135741
vt 0.470125 0.181523
vt 0.387521 0.181523
vt 0.387521 0.135741
vt 0.610981 0.459020
vt 0.780444 0.458743
vt 0.149111 0.013979
vt 0.278291 0.014819
vt 0.221896 0.077484
vt 0.218124 0.071991
vt 0.625555 0.180746
vt 0.544020 0.180746
vt 0.949679 0.133997
vt 0.949679 0.179685
vt 0.867075 0.179685
vt 0.867075 0.133997
vt 0.278295 0.159955
vt 0.149111 0.159115
vt 0.205249 0.096451
vt 0.209017 0.101943
vt 0.148768 0.013936
vt 0.277946 0.014773
vt 0.221394 0.077440
vt 0.217620 0.071947
vt 0.277954 0.159910
vt 0.148768 0.159072
vt 0.204747 0.096408
vt 0.208513 0.101899
vt 0.625555 0.021889
vt 0.544020 0.021889
vt 0.793006 0.020509
vt 0.793010 0.066500
vt 0.707838 0.066500
vt 0.707838 0.020509
vt 0.949678 0.066515
vt 0.867075 0.066515
vt 0.949678 0.020826
vt 0.867075 0.020826
vt 0.625555 0.248227
vt 0.544020 0.248227
vt 0.793015 0.134288
vt 0.793018 0.180278
vt 0.707838 0.180278
vt 0.707838 0.134288
vt 0.949680 0.247167
vt 0.867075 0.247167
vt 0.793023 0.248066
vt 0.707838 0.248066
vt 0.470124 0.068259
vt 0.387521 0.068259
vt 0.470126 0.249005
vt 0.387521 0.249005
vt 0.470124 0.022477
vt 0.387521 0.022477
vt 0.703174 0.180278
vt 0.703174 0.134288
vt 0.703174 0.066500
vt 0.382995 0.135741
vt 0.382995 0.068259
vt 0.382995 0.022477
vt 0.539554 0.180746
vt 0.539554 0.135058
vt 0.539554 0.067577
vt 0.862550 0.133997
vt 0.862550 0.066515
vt 0.862550 0.020826
vt 0.382995 0.249005
vt 0.382995 0.181523
vt 0.539554 0.021889
vt 0.539554 0.248227
vt 0.862550 0.247167
vt 0.862550 0.179685
vt 0.703174 0.248066
vt 0.703174 0.020509
vt 0.218089 0.071498
vt 0.221863 0.076991
vt 0.208982 0.101450
vt 0.205216 0.095959
vt 0.222813 0.076394
vt 0.209937 0.100840
vt 0.206173 0.095347
vt 0.219045 0.070900
vt 0.149237 0.158623
vt 0.149237 0.013486
vt 0.278423 0.159461
vt 0.278415 0.014324
vt 0.279221 0.158876
vt 0.150037 0.157952
vt 0.279218 0.013740
vt 0.150037 0.012816
vt 0.217415 0.957234
vt 0.977012 0.900953
vt 0.089681 0.957234
vt 0.965822 0.768163
vt 0.952745 0.768163
s 0
usemtl Material.016
f 63/1/1 15/2/1 18/3/1 145/4/1
f 71/5/2 19/6/2 22/7/2 144/8/2
f 73/9/3 23/10/3 26/11/3 146/12/3
f 67/13/4 27/14/4 28/15/4 143/16/4
f 57/17/5 61/18/5 78/19/5 75/20/5
f 17/21/3 10/22/3 35/23/3 36/24/3
f 11/23/3 8/24/3 38/21/3 39/22/3
f 12/25/6 13/26/6 32/21/6 29/22/6
f 6/23/3 24/24/3 41/21/3 42/22/3
f 12/27/7 2/28/7 15/29/7 28/30/7
f 2/28/8 9/31/8 18/32/8 15/29/8
f 17/33/8 16/34/8 18/35/8 9/36/8 13/37/8
f 16/38/8 4/39/8 19/40/8 18/41/8
f 4/39/8 10/42/8 22/43/8 19/40/8
f 17/33/8 74/44/8 22/43/8 10/42/8
f 20/45/8 8/46/8 23/47/8 22/43/8
f 8/46/8 11/48/8 26/49/8 23/47/8
f 25/50/8 24/51/8 26/52/8 11/53/8 21/54/8
f 24/55/8 6/56/8 27/57/8 26/58/8
f 6/56/8 14/59/8 28/30/8 27/57/8
f 38/60/2 37/61/2 51/62/2 52/63/2
f 31/64/1 30/60/1 46/63/1 47/65/1
f 34/60/1 33/61/1 48/62/1 49/63/1
f 37/66/2 35/67/2 50/68/2 51/69/2
f 14/23/4 6/24/4 42/21/4 43/22/4
f 13/23/2 9/24/2 31/21/2 32/22/2
f 20/23/1 21/24/1 40/21/1 37/22/1
f 16/21/4 17/22/4 36/23/4 33/24/4
f 25/23/1 14/24/1 43/21/1 44/22/1
f 21/23/4 11/24/4 39/21/4 40/22/4
f 24/23/2 25/24/2 44/21/2 41/22/2
f 2/23/9 12/24/9 29/21/9 30/22/9
f 4/21/1 16/22/1 33/23/1 34/24/1
f 9/23/1 2/24/1 30/21/1 31/22/1
f 8/23/2 20/24/2 37/21/2 38/22/2
f 10/21/2 4/22/2 34/23/2 35/24/2
f 32/70/10 44/71/10 43/72/10 29/73/10
f 32/70/10 31/74/10 33/75/10 36/76/10
f 40/77/10 39/78/10 41/79/10 44/71/10
f 36/76/10 35/80/10 37/81/10 40/77/10
f 44/71/10 32/70/10 36/76/10 40/77/10
f 35/64/2 34/60/2 49/63/2 50/65/2
f 42/60/3 41/61/3 54/62/3 55/63/3
f 39/64/3 38/60/3 52/63/3 53/65/3
f 29/82/11 43/83/11 56/84/11 45/85/11
f 43/64/4 42/60/4 55/63/4 56/65/4
f 41/86/3 39/87/3 53/88/3 54/89/3
f 33/90/1 31/91/1 47/92/1 48/93/1
f 30/60/12 29/61/12 45/62/12 46/63/12
f 45/94/8 56/95/8 94/96/8 93/97/8
f 3/98/13 58/99/13 83/100/13 84/101/13
f 70/102/13 7/103/13 88/104/13 89/105/13
f 61/18/14 60/106/14 77/107/14 78/19/14
f 59/108/10 68/109/10 7/110/10 73/111/10 146/112/10 67/113/10 5/114/10
f 74/44/8 17/33/8 13/37/8 66/115/8
f 72/116/10 68/109/10 59/108/10 65/117/10
f 69/118/10 58/119/10 70/120/10 72/116/10
f 70/120/10 58/119/10 3/121/10 71/122/10 144/123/10 73/111/10 7/110/10
f 65/117/10 61/124/10 69/118/10 72/116/10
f 65/117/10 64/125/10 60/126/10 61/124/10
f 61/124/10 57/127/10 62/128/10 69/118/10
f 62/128/10 57/127/10 1/129/10 63/130/10 145/131/10 71/122/10 3/121/10
f 82/132/10 81/133/10 80/134/10 79/135/10
f 75/20/10 78/19/10 77/107/10 76/136/10
f 84/101/10 83/100/10 86/137/10 85/138/10
f 89/105/10 88/104/10 87/139/10 90/140/10
f 72/141/15 70/102/15 89/105/15 90/140/15
f 62/142/16 3/98/16 84/101/16 85/138/16
f 68/143/17 72/141/17 90/140/17 87/139/17
f 58/99/18 69/144/18 86/137/18 83/100/18
f 5/145/19 64/146/19 79/135/19 80/134/19
f 69/144/20 62/142/20 85/138/20 86/137/20
f 59/147/21 5/145/21 80/134/21 81/133/21
f 64/146/22 65/148/22 82/132/22 79/135/22
f 1/149/23 57/17/23 75/20/23 76/136/23
f 65/148/24 59/147/24 81/133/24 82/132/24
f 60/106/19 1/149/19 76/136/19 77/107/19
f 7/103/21 68/143/21 87/139/21 88/104/21
f 53/150/3 52/151/3 118/152/3 119/153/3
f 91/154/8 48/155/8 47/156/8 93/97/8
f 91/154/8 92/157/8 51/158/8 50/159/8
f 48/160/4 91/161/4 123/162/4 114/163/4
f 92/157/8 94/96/8 54/164/8 53/165/8
f 110/166/4 97/167/4 129/168/4 142/169/4
f 52/151/2 51/170/2 117/171/2 118/152/2
f 93/97/8 94/96/8 92/157/8 91/154/8
f 54/172/2 94/173/2 125/174/2 120/175/2
f 96/176/2 95/177/2 127/178/2 128/179/2
f 106/180/2 105/181/2 137/182/2 138/183/2
f 104/184/4 109/185/4 141/186/4 136/187/4
f 92/188/4 53/150/4 119/153/4 124/189/4
f 93/190/2 47/191/2 113/192/2 126/193/2
f 55/194/3 54/172/3 120/175/3 121/195/3
f 56/196/4 55/194/4 121/195/4 122/197/4
f 51/170/1 92/198/1 124/199/1 117/171/1
f 46/200/4 45/201/4 111/202/4 112/203/4
f 94/173/1 56/204/1 122/205/1 125/174/1
f 47/191/1 46/200/1 112/203/1 113/192/1
f 45/201/3 93/206/3 126/207/3 111/202/3
f 49/208/1 48/160/1 114/163/1 115/209/1
f 91/161/3 50/210/3 116/211/3 123/162/3
f 50/212/2 49/208/2 115/209/2 116/213/2
f 95/214/8 96/215/8 112/203/8 111/202/8
f 96/215/8 97/216/8 113/192/8 112/203/8
f 98/217/8 99/218/8 115/209/8 114/163/8
f 99/218/8 100/219/8 116/213/8 115/209/8
f 101/220/8 102/221/8 118/152/8 117/171/8
f 102/221/8 103/222/8 119/153/8 118/152/8
f 104/223/8 105/224/8 121/195/8 120/175/8
f 105/224/8 106/225/8 122/197/8 121/195/8
f 100/226/8 107/227/8 123/162/8 116/211/8
f 107/227/8 98/217/8 114/163/8 123/162/8
f 103/222/8 108/228/8 124/189/8 119/153/8
f 108/229/8 101/220/8 117/171/8 124/199/8
f 106/230/8 109/231/8 125/174/8 122/205/8
f 110/232/8 95/214/8 111/202/8 126/207/8
f 109/231/8 104/223/8 120/175/8 125/174/8
f 97/216/8 110/233/8 126/193/8 113/192/8
f 132/234/8 131/235/8 130/236/8 139/237/8
f 133/238/8 140/239/8 135/240/8 134/241/8
f 136/187/8 141/186/8 138/183/8 137/182/8
f 142/169/8 129/168/8 128/179/8 127/178/8
f 107/242/1 100/243/1 132/234/1 139/237/1
f 97/167/3 96/176/3 128/179/3 129/168/3
f 98/244/2 107/242/2 139/237/2 130/236/2
f 99/245/3 98/244/3 130/236/3 131/235/3
f 108/246/2 103/247/2 135/240/2 140/239/2
f 100/243/4 99/245/4 131/235/4 132/234/4
f 101/248/3 108/246/3 140/239/3 133/238/3
f 102/249/4 101/248/4 133/238/4 134/241/4
f 109/185/3 106/180/3 138/183/3 141/186/3
f 103/247/1 102/249/1 134/241/1 135/240/1
f 95/177/1 110/166/1 142/169/1 127/178/1
f 105/181/1 104/184/1 136/187/1 137/182/1
f 25/250/8 66/115/8 28/30/8 14/59/8
f 60/126/10 64/125/10 5/114/10 67/113/10 143/251/10 63/130/10 1/129/10
f 28/30/25 66/115/25 13/37/25 12/27/25
f 22/43/8 74/44/8 21/252/8 20/45/8
f 66/115/8 25/250/8 21/252/8 74/44/8
f 143/16/4 28/15/4 15/2/4 63/1/4
f 144/253/2 22/254/2 23/10/2 73/9/2
f 145/4/1 18/3/1 19/6/1 71/5/1
f 146/12/3 26/11/3 27/14/3 67/13/3
