# Blender 5.1.1
# www.blender.org
mtllib Trophy_Stand.mtl
o Trophy_Stand
v -0.659765 1.372805 0.659765
v -0.546192 3.137213 0.546192
v -0.659765 1.372805 -0.659765
v -0.546192 3.137213 -0.546192
v 0.659765 1.372805 0.659765
v 0.546192 3.137213 0.546192
v 0.659765 1.372805 -0.659765
v 0.546192 3.137213 -0.546192
v -1.117437 0.718118 -1.117437
v -1.117437 0.718118 1.117437
v 1.117437 0.718118 -1.117437
v 1.117437 0.718118 1.117437
v -1.117437 -0.032580 -1.117437
v -1.117437 -0.032580 1.117437
v 1.117437 -0.032580 -1.117437
v 1.117437 -0.032580 1.117437
v -1.551839 3.780293 1.551839
v -1.551839 3.780293 -1.551839
v 1.551839 3.780293 -1.551839
v 1.551839 3.780293 1.551839
vn -0.9979 0.0642 -0.0000
vn -0.0000 0.0642 -0.9979
vn 0.9979 0.0642 -0.0000
vn -0.0000 0.0642 0.9979
vn -0.0000 0.5730 0.8196
vn -0.0000 -0.8425 -0.5387
vn 1.0000 -0.0000 -0.0000
vn -0.0000 0.5730 -0.8196
vn -0.8196 0.5730 -0.0000
vn 0.8196 0.5730 -0.0000
vn -0.0000 -1.0000 -0.0000
vn -1.0000 -0.0000 -0.0000
vn -0.0000 -0.0000 1.0000
vn -0.0000 -0.0000 -1.0000
vn -0.0000 1.0000 -0.0000
vn 0.5387 -0.8425 -0.0000
vn -0.5387 -0.8425 -0.0000
vn -0.0000 -0.8425 0.5387
vt 0.625000 0.000000
vt 0.375000 0.250000
vt 0.375000 0.000000
vt 0.625000 0.250000
vt 0.375000 0.500000
vt 0.625000 0.500000
vt 0.375000 0.750000
vt 0.625000 0.750000
vt 0.375000 1.000000
vt 0.125000 0.750000
vt 0.125000 0.500000
vt 0.875000 0.500000
vt 0.625000 1.000000
vt 0.875000 0.750000
s 0
f 2/1/1 3/2/1 1/3/1
f 4/4/2 7/5/2 3/2/2
f 8/6/3 5/7/3 7/5/3
f 6/8/4 1/9/4 5/7/4
f 1/9/5 12/7/5 5/7/5
f 4/4/6 19/6/6 8/6/6
f 12/7/7 15/5/7 11/5/7
f 7/5/8 9/2/8 3/2/8
f 3/2/9 10/3/9 1/3/9
f 5/7/10 11/5/10 7/5/10
f 15/5/11 14/10/11 13/11/11
f 9/2/12 14/3/12 10/3/12
f 10/9/13 16/7/13 12/7/13
f 11/5/14 13/2/14 9/2/14
f 18/12/15 20/8/15 19/6/15
f 8/6/16 20/8/16 6/8/16
f 2/1/17 18/4/17 4/4/17
f 6/8/18 17/13/18 2/13/18
f 2/1/1 4/4/1 3/2/1
f 4/4/2 8/6/2 7/5/2
f 8/6/3 6/8/3 5/7/3
f 6/8/4 2/13/4 1/9/4
f 1/9/5 10/9/5 12/7/5
f 4/4/6 18/4/6 19/6/6
f 12/7/7 16/7/7 15/5/7
f 7/5/8 11/5/8 9/2/8
f 3/2/9 9/2/9 10/3/9
f 5/7/10 12/7/10 11/5/10
f 15/5/11 16/7/11 14/10/11
f 9/2/12 13/2/12 14/3/12
f 10/9/13 14/9/13 16/7/13
f 11/5/14 15/5/14 13/2/14
f 18/12/15 17/14/15 20/8/15
f 8/6/16 19/6/16 20/8/16
f 2/1/17 17/1/17 18/4/17
f 6/8/18 20/8/18 17/13/18
